<svg xmlns="http://www.w3.org/2000/svg" width="12" height="16" viewBox="0 0 12 16">
    <g fill="#253746" stroke="#253746" stroke-width=".5">
        <path d="M10.17 3.232c-.266-.63-.648-1.196-1.134-1.682C8.551 1.063 7.985.682 7.354.416 6.701.14 6.008 0 5.294 0s-1.407.14-2.06.416c-.63.266-1.195.648-1.682 1.134-.487.486-.868 1.052-1.134 1.682-.276.653-.416 1.346-.416 2.06 0 1.03.274 2.128.814 3.261.427.9 1.024 1.823 1.771 2.748 1.269 1.568 2.517 2.58 2.57 2.623.04.032.089.048.137.048.048 0 .097-.016.137-.048.053-.042 1.301-1.054 2.57-2.623.747-.925 1.343-1.849 1.771-2.748.54-1.133.814-2.23.814-3.26 0-.716-.14-1.409-.415-2.061zm-2.504 7.787c-1 1.238-2.013 2.143-2.372 2.45-.358-.306-1.367-1.206-2.367-2.443C1.792 9.622.438 7.487.438 5.292.438 2.615 2.617.437 5.294.437S10.15 2.615 10.15 5.29c0 2.194-1.35 4.325-2.483 5.728h0z" transform="translate(1 1)"/>
        <path d="M5.294 2.77c-.68 0-1.318.265-1.798.746-.48.48-.745 1.119-.745 1.798 0 .68.264 1.318.745 1.799.48.48 1.119.745 1.798.745.68 0 1.318-.265 1.798-.745s.745-1.12.745-1.799c0-.68-.264-1.318-.745-1.798-.48-.48-1.118-.745-1.798-.745h0zm0 4.65c-1.161 0-2.107-.944-2.107-2.106 0-1.161.946-2.107 2.107-2.107 1.162 0 2.107.946 2.107 2.107 0 1.162-.945 2.107-2.107 2.107h0z" transform="translate(1 1)"/>
    </g>
</svg>
