<svg width="743" height="434" viewBox="0 0 743 434" fill="none" xmlns="http://www.w3.org/2000/svg">
<path d="M356.934 243.039C289.119 259.557 223.185 265.951 171.411 262.942C145.522 261.438 123.19 257.583 105.938 251.477C88.6828 245.37 76.5534 237.027 70.9903 226.562C65.4273 216.098 66.9222 204.436 74.4718 192.287C82.0202 180.14 95.6038 167.537 114.14 155.212C151.211 130.563 208.047 107.054 275.862 90.5365C343.677 74.0187 409.611 67.6243 461.385 70.6331C487.273 72.1376 509.606 75.9923 526.858 82.0985C544.112 88.2058 556.242 96.5487 561.805 107.013C567.368 117.478 565.873 129.139 558.323 141.288C550.775 153.435 537.191 166.038 518.655 178.363C481.584 203.012 424.749 226.521 356.934 243.039Z" stroke="#787878" stroke-width="0.5"/>
<path d="M438.863 306.433C355.03 341.347 271.569 362.871 204.407 369.45C170.825 372.74 141.333 372.292 117.915 367.922C94.4931 363.552 77.191 355.268 67.9105 342.915C58.63 330.562 58.2047 315.25 65.4607 298.103C72.7158 280.958 87.6379 262.013 108.979 242.429C151.659 203.263 219.972 161.577 303.806 126.663C387.639 91.7489 471.1 70.2253 538.262 63.6457C571.844 60.3558 601.336 60.8037 624.754 65.1737C648.176 69.5443 665.478 77.8281 674.759 90.1811C684.039 102.534 684.464 117.846 677.208 134.993C669.953 152.138 655.031 171.083 633.69 190.667C591.01 229.833 522.697 271.519 438.863 306.433Z" stroke="#787878" stroke-width="0.5"/>
</svg>
