<svg width="750" height="434" viewBox="0 0 750 434" fill="none" xmlns="http://www.w3.org/2000/svg">
<path d="M422.744 278.601C490.563 295.12 556.503 301.515 608.284 298.506C634.176 297.001 656.515 293.146 673.776 287.036C691.039 280.926 703.186 272.575 708.759 262.092C714.332 251.608 712.831 239.933 705.278 227.778C697.726 215.625 684.138 203.019 665.599 190.692C628.523 166.04 571.682 142.529 503.863 126.01C436.044 109.491 370.104 103.096 318.323 106.105C292.431 107.61 270.092 111.465 252.831 117.575C235.569 123.685 223.421 132.036 217.848 142.519C212.275 153.003 213.776 164.678 221.329 176.833C228.881 188.986 242.469 201.592 261.008 213.919C298.084 238.571 354.925 262.082 422.744 278.601Z" stroke="#787878" stroke-width="0.4"/>
<path d="M303.775 306.473C387.612 341.389 471.079 362.914 538.247 369.495C571.833 372.785 601.332 372.337 624.759 367.966C648.189 363.594 665.51 355.304 674.804 342.934C684.097 330.564 684.518 315.237 677.26 298.084C670.002 280.933 655.076 261.984 633.733 242.398C591.048 203.227 522.729 161.539 438.892 126.623C355.055 91.7074 271.588 70.1819 204.419 63.6017C170.834 60.3114 141.335 60.7589 117.908 65.1306C94.4779 69.5027 77.1565 77.7918 67.8632 90.1618C58.5699 102.532 58.1486 117.859 65.4071 135.012C72.665 152.163 87.5913 171.113 108.934 190.698C151.619 229.869 219.937 271.557 303.775 306.473Z" stroke="#787878" stroke-width="0.4"/>
</svg>
