<svg width="659" height="754" viewBox="0 0 659 754" fill="none" xmlns="http://www.w3.org/2000/svg">
<path d="M426.307 482.162C376.986 546.277 324.002 597.901 278.217 629.537C255.323 645.356 234.241 656.169 216.325 661.054C198.404 665.94 183.7 664.882 173.503 657.038C163.306 649.194 158.512 635.253 158.639 616.678C158.765 598.109 163.809 574.958 173.227 548.773C192.063 496.405 228.371 431.954 277.692 367.838C327.013 303.723 379.996 252.099 425.782 220.463C448.676 204.644 469.758 193.831 487.674 188.946C505.595 184.06 520.299 185.118 530.496 192.962C540.693 200.806 545.486 214.747 545.36 233.322C545.234 251.891 540.19 275.041 530.772 301.227C511.936 353.595 475.628 418.046 426.307 482.162Z" stroke="#787878" stroke-width="0.5"/>
<path d="M426.091 451.12C361.92 534.539 292.983 601.708 233.408 642.873C203.619 663.456 176.183 677.529 152.863 683.887C129.538 690.246 110.379 688.875 97.0855 678.649C83.792 668.423 77.5534 650.257 77.7176 626.081C77.8817 601.91 84.4474 571.782 96.7019 537.711C121.21 469.571 168.452 385.712 232.622 302.293C296.793 218.874 365.73 151.705 425.305 110.541C455.094 89.9574 482.53 75.8843 505.85 69.5264C529.176 63.1672 548.334 64.5379 561.628 74.7641C574.921 84.9902 581.16 103.157 580.996 127.332C580.832 151.503 574.266 181.631 562.011 215.702C537.503 283.842 490.262 367.701 426.091 451.12Z" stroke="#787878" stroke-width="0.5"/>
</svg>
