<svg width="721" height="704" viewBox="0 0 721 704" fill="none" xmlns="http://www.w3.org/2000/svg">
<path d="M413.866 369.555C347.482 415.784 281.378 449 228.17 465.334C201.565 473.501 178.196 477.445 159.633 476.69C141.067 475.936 127.349 470.484 119.984 459.909C112.619 449.333 112.264 434.576 117.996 416.9C123.726 399.229 135.53 378.677 152.418 356.557C186.192 312.317 240.273 261.836 306.657 215.606C373.041 169.377 439.145 136.161 492.353 119.827C518.958 111.66 542.328 107.716 560.89 108.471C579.457 109.225 593.174 114.677 600.539 125.252C607.904 135.828 608.259 150.585 602.527 168.261C596.797 185.932 584.993 206.484 568.105 228.605C534.331 272.844 480.25 323.325 413.866 369.555Z" stroke="#787878" stroke-width="0.4"/>
<path d="M444.499 439.968C368.354 512.627 289.975 568.5 224.813 600.099C192.231 615.9 162.963 625.626 138.938 628.354C114.91 631.082 96.1647 626.806 84.5707 614.656C72.9766 602.505 69.583 583.581 73.4335 559.706C77.2834 535.835 88.37 507.056 105.679 475.249C140.296 411.638 199.778 335.962 275.923 263.303C352.068 190.644 430.448 134.771 495.61 103.172C528.192 87.3712 557.459 77.6446 581.484 74.9169C605.513 72.1887 624.258 76.4649 635.852 88.6153C647.446 100.766 650.839 119.69 646.989 143.565C643.139 167.436 632.053 196.215 614.744 228.022C580.127 291.632 520.645 367.309 444.499 439.968Z" stroke="#787878" stroke-width="0.4"/>
</svg>
