<svg width="721" height="704" viewBox="0 0 721 704" fill="none" xmlns="http://www.w3.org/2000/svg">
<path d="M412.764 381.716C346.381 335.487 280.276 302.271 227.068 285.937C200.463 277.77 177.094 273.826 158.532 274.581C139.965 275.335 126.248 280.787 118.883 291.362C111.518 301.938 111.163 316.695 116.894 334.371C122.625 352.042 134.429 372.594 151.316 394.714C185.091 438.954 239.172 489.435 305.556 535.665C371.94 581.894 438.044 615.11 491.252 631.444C517.857 639.611 541.226 643.555 559.789 642.8C578.355 642.046 592.072 636.594 599.437 626.018C606.802 615.443 607.158 600.686 601.426 583.01C595.695 565.339 583.892 544.787 567.004 522.666C533.229 478.427 479.148 427.946 412.764 381.716Z" stroke="#787878" stroke-width="0.4"/>
<path d="M444.499 263.303C368.354 190.644 289.975 134.771 224.813 103.172C192.231 87.3713 162.963 77.6447 138.938 74.917C114.91 72.1889 96.1647 76.465 84.5707 88.6154C72.9766 100.766 69.583 119.69 73.4335 143.565C77.2834 167.436 88.37 196.215 105.679 228.022C140.296 291.633 199.778 367.309 275.923 439.968C352.068 512.627 430.448 568.5 495.61 600.099C528.192 615.9 557.459 625.626 581.484 628.354C605.513 631.082 624.258 626.806 635.852 614.656C647.446 602.505 650.839 583.581 646.989 559.706C643.139 535.835 632.053 507.056 614.744 475.249C580.127 411.639 520.645 335.962 444.499 263.303Z" stroke="#787878" stroke-width="0.4"/>
</svg>
