<svg width="607" height="629" viewBox="0 0 607 629" fill="none" xmlns="http://www.w3.org/2000/svg">
<path d="M306.458 331.329C259.396 279.779 222.116 225.014 199.885 178.151C188.769 154.718 181.421 133.272 178.49 115.199C175.558 97.1231 177.048 82.4572 183.566 72.5339C190.085 62.6107 201.047 58.3196 215.335 59.1067C229.622 59.8937 247.205 65.7574 266.921 76.0974C306.352 96.7767 354.273 135.34 401.335 186.891C448.397 238.441 485.677 293.206 507.908 340.069C519.024 363.501 526.372 384.947 529.304 403.021C532.236 421.097 530.745 435.763 524.227 445.686C517.709 455.609 506.747 459.9 492.458 459.113C478.172 458.326 460.588 452.462 440.872 442.122C401.442 421.443 353.52 382.88 306.458 331.329Z" stroke="#787878" stroke-width="0.4"/>
<path d="M256.847 423.141C185.956 366.376 126.987 303.506 88.9546 247.752C69.9377 219.874 56.1622 193.786 48.7445 171.138C41.326 148.487 40.2771 129.313 46.6634 115.221C53.0497 101.128 66.2913 93.3969 84.8225 91.5251C103.352 89.6534 127.141 93.6441 154.571 102.957C209.429 121.583 278.807 161.483 349.699 218.247C420.59 275.011 479.559 337.882 517.591 393.636C536.608 421.514 550.384 447.602 557.801 470.25C565.22 492.901 566.269 512.075 559.882 526.167C553.496 540.26 540.255 547.991 521.723 549.863C503.194 551.734 479.405 547.744 451.975 538.431C397.117 519.805 327.739 479.905 256.847 423.141Z" stroke="#787878" stroke-width="0.4"/>
</svg>
