<svg width="721" height="704" viewBox="0 0 721 704" fill="none" xmlns="http://www.w3.org/2000/svg">
<path d="M358.62 390.483C292.236 436.713 226.132 469.928 172.924 486.263C146.319 494.43 122.95 498.373 104.387 497.619C85.8207 496.864 72.1033 491.413 64.7383 480.837C57.3732 470.261 57.018 455.505 62.7497 437.829C68.4802 420.157 80.284 399.606 97.1719 377.485C130.946 333.245 185.027 282.765 251.411 236.535C317.795 190.306 383.899 157.09 437.107 140.756C463.712 132.588 487.082 128.645 505.644 129.4C524.21 130.154 537.928 135.605 545.293 146.181C552.658 156.757 553.013 171.514 547.281 189.189C541.551 206.861 529.747 227.412 512.859 249.533C479.085 293.773 425.004 344.254 358.62 390.483Z" stroke="#787878" stroke-width="0.4"/>
<path d="M444.499 439.968C368.354 512.627 289.975 568.5 224.813 600.099C192.231 615.9 162.963 625.626 138.938 628.354C114.91 631.082 96.1647 626.806 84.5707 614.656C72.9766 602.505 69.583 583.581 73.4335 559.706C77.2834 535.835 88.37 507.056 105.679 475.249C140.296 411.638 199.778 335.962 275.923 263.303C352.068 190.644 430.448 134.771 495.61 103.172C528.192 87.3712 557.459 77.6446 581.484 74.9169C605.513 72.1887 624.258 76.4649 635.852 88.6153C647.446 100.766 650.839 119.69 646.989 143.565C643.139 167.436 632.053 196.215 614.744 228.022C580.127 291.632 520.645 367.309 444.499 439.968Z" stroke="#787878" stroke-width="0.4"/>
</svg>
