<svg width="605" height="646" viewBox="0 0 605 646" fill="none" xmlns="http://www.w3.org/2000/svg">
<path d="M232.342 190.501C186.397 243.049 150.3 298.6 129.079 345.929C118.468 369.595 111.581 391.193 109.038 409.326C106.494 427.46 108.299 442.091 115.028 451.872C121.758 461.653 132.809 465.708 147.078 464.615C161.344 463.522 178.798 457.282 198.288 446.522C237.265 425.002 284.349 385.419 330.295 332.872C376.241 280.324 412.337 224.772 433.558 177.443C444.169 153.778 451.056 132.179 453.599 114.047C456.143 95.9125 454.338 81.2819 447.609 71.5007C440.879 61.7195 429.828 57.6645 415.559 58.7578C401.293 59.851 383.839 66.0904 364.349 76.8509C325.372 98.3709 278.288 137.953 232.342 190.501Z" stroke="#787878" stroke-width="0.4"/>
<path d="M254.912 233.342C184.556 290.768 126.179 354.189 88.6708 410.297C69.9161 438.352 56.3857 464.568 49.1806 487.285C41.9747 510.003 41.1056 529.186 47.6236 543.218C54.1417 557.25 67.4551 564.857 86.0031 566.555C104.549 568.253 128.3 564.04 155.641 554.47C210.322 535.331 279.324 494.783 349.68 437.357C420.036 379.93 478.413 316.51 515.922 260.402C534.676 232.347 548.207 206.131 555.412 183.414C562.618 160.695 563.487 141.512 556.969 127.48C550.451 113.448 537.137 105.841 518.589 104.143C500.043 102.445 476.292 106.659 448.951 116.229C394.27 135.368 325.269 175.916 254.912 233.342Z" stroke="#787878" stroke-width="0.4"/>
</svg>
