<svg width="607" height="617" viewBox="0 0 607 617" fill="none" xmlns="http://www.w3.org/2000/svg">
<path d="M306.46 366.862C259.398 315.312 222.118 260.547 199.887 213.684C188.771 190.252 181.423 168.806 178.492 150.732C175.56 132.656 177.05 117.99 183.568 108.067C190.087 98.1439 201.049 93.8528 215.337 94.6399C229.624 95.4269 247.207 101.291 266.923 111.631C306.354 132.31 354.275 170.873 401.337 222.424C448.399 273.974 485.679 328.739 507.91 375.602C519.026 399.035 526.374 420.481 529.305 438.554C532.237 456.63 530.747 471.296 524.229 481.219C517.711 491.142 506.749 495.433 492.46 494.646C478.174 493.859 460.59 487.996 440.874 477.656C401.444 456.976 353.522 418.413 306.46 366.862Z" stroke="#787878" stroke-width="0.4"/>
<path d="M256.849 410.674C185.958 353.91 126.989 291.039 88.9565 235.285C69.9396 207.407 56.1642 181.319 48.7465 158.671C41.328 136.02 40.2791 116.846 46.6654 102.754C53.0517 88.6614 66.2932 80.9301 84.8244 79.0583C103.354 77.1866 127.143 81.1773 154.573 90.4904C209.431 109.116 278.809 149.016 349.701 205.78C420.592 262.545 479.561 325.415 517.593 381.169C536.61 409.047 550.386 435.135 557.803 457.783C565.222 480.434 566.271 499.608 559.884 513.7C553.498 527.793 540.257 535.524 521.725 537.396C503.196 539.268 479.407 535.277 451.977 525.964C397.119 507.338 327.741 467.438 256.849 410.674Z" stroke="#787878" stroke-width="0.4"/>
</svg>
