<svg class="logo" viewBox="-10 0 154 19.53" width="180" height="180" xmlns="http://www.w3.org/2000/svg">
    <g fill="#7bf2da" fill-rule="evenodd" font-size="9pt" id="svgGroup"
       stroke="#7bf2da" stroke-linecap="round"
       style="stroke:#7bf2da;fill:#7bf2da" stroke-width="10">
        <path d="M 0 14.46 L 0.12 14.37 A 16.483 16.483 0 0 0 1.87 14.856 A 20.199 20.199 0 0 0 3.015 15.075 Q 4.59 15.33 6.15 15.33 A 38.091 38.091 0 0 0 7.147 15.318 Q 8.183 15.291 8.878 15.203 A 7.377 7.377 0 0 0 9.315 15.135 A 4.966 4.966 0 0 0 9.789 15.024 Q 10.433 14.835 10.68 14.52 A 1.498 1.498 0 0 0 10.962 13.91 A 2.164 2.164 0 0 0 11.01 13.44 A 2.193 2.193 0 0 0 10.983 13.084 Q 10.929 12.759 10.77 12.54 A 0.961 0.961 0 0 0 10.546 12.325 Q 10.323 12.167 9.959 12.051 A 3.785 3.785 0 0 0 9.84 12.015 A 5.751 5.751 0 0 0 9.4 11.911 Q 8.77 11.786 7.8 11.7 L 5.82 11.52 Q 4.311 11.377 3.238 10.999 A 5.739 5.739 0 0 1 2.325 10.59 A 4.482 4.482 0 0 1 1.245 9.754 A 3.809 3.809 0 0 1 0.525 8.655 Q 0.05 7.556 0.005 6.051 A 10.689 10.689 0 0 1 0 5.73 Q 0 4.192 0.469 3.098 A 4.322 4.322 0 0 1 0.825 2.43 A 4.018 4.018 0 0 1 2.081 1.226 Q 2.6 0.901 3.261 0.668 A 7.646 7.646 0 0 1 3.51 0.585 A 10.644 10.644 0 0 1 4.934 0.252 Q 6.432 0 8.46 0 A 25.408 25.408 0 0 1 11.167 0.136 Q 12.504 0.279 13.636 0.575 A 12.035 12.035 0 0 1 15.09 1.05 L 15 5.13 L 14.91 5.25 Q 11.94 4.2 8.7 4.2 A 24.668 24.668 0 0 0 7.965 4.21 Q 7.173 4.234 6.618 4.312 A 5.961 5.961 0 0 0 6.3 4.365 A 4.018 4.018 0 0 0 5.873 4.472 Q 5.439 4.608 5.202 4.82 A 1.003 1.003 0 0 0 5.13 4.89 A 1.176 1.176 0 0 0 4.873 5.357 Q 4.819 5.538 4.805 5.755 A 2.432 2.432 0 0 0 4.8 5.91 A 3.122 3.122 0 0 0 4.818 6.255 Q 4.86 6.634 5.003 6.866 A 0.883 0.883 0 0 0 5.025 6.9 A 0.843 0.843 0 0 0 5.247 7.116 Q 5.464 7.266 5.823 7.365 A 3.468 3.468 0 0 0 5.94 7.395 A 8.94 8.94 0 0 0 6.405 7.492 Q 6.829 7.569 7.4 7.643 A 34.971 34.971 0 0 0 7.95 7.71 L 9.84 7.92 A 17.445 17.445 0 0 1 11.232 8.13 Q 12.643 8.406 13.53 8.88 A 4.506 4.506 0 0 1 14.477 9.545 A 3.454 3.454 0 0 1 15.315 10.725 Q 15.81 11.88 15.81 13.53 Q 15.81 15.54 14.955 16.875 A 4.358 4.358 0 0 1 13.633 18.178 Q 13.084 18.536 12.383 18.797 A 8.117 8.117 0 0 1 12.18 18.87 Q 10.89 19.314 9.018 19.459 A 25.476 25.476 0 0 1 7.05 19.53 A 33.716 33.716 0 0 1 5.085 19.476 Q 4.123 19.419 3.27 19.305 Q 1.59 19.08 0 18.69 L 0 14.46 Z M 75.48 14.46 L 75.6 14.37 A 16.483 16.483 0 0 0 77.35 14.856 A 20.199 20.199 0 0 0 78.495 15.075 Q 80.07 15.33 81.63 15.33 A 38.091 38.091 0 0 0 82.627 15.318 Q 83.663 15.291 84.358 15.203 A 7.377 7.377 0 0 0 84.795 15.135 A 4.966 4.966 0 0 0 85.269 15.024 Q 85.913 14.835 86.16 14.52 A 1.498 1.498 0 0 0 86.442 13.91 A 2.164 2.164 0 0 0 86.49 13.44 A 2.193 2.193 0 0 0 86.463 13.084 Q 86.409 12.759 86.25 12.54 A 0.961 0.961 0 0 0 86.026 12.325 Q 85.803 12.167 85.439 12.051 A 3.785 3.785 0 0 0 85.32 12.015 A 5.751 5.751 0 0 0 84.88 11.911 Q 84.25 11.786 83.28 11.7 L 81.3 11.52 Q 79.791 11.377 78.718 10.999 A 5.739 5.739 0 0 1 77.805 10.59 A 4.482 4.482 0 0 1 76.725 9.754 A 3.809 3.809 0 0 1 76.005 8.655 Q 75.53 7.556 75.485 6.051 A 10.689 10.689 0 0 1 75.48 5.73 Q 75.48 4.192 75.949 3.098 A 4.322 4.322 0 0 1 76.305 2.43 A 4.018 4.018 0 0 1 77.561 1.226 Q 78.08 0.901 78.741 0.668 A 7.646 7.646 0 0 1 78.99 0.585 A 10.644 10.644 0 0 1 80.414 0.252 Q 81.912 0 83.94 0 A 25.408 25.408 0 0 1 86.647 0.136 Q 87.984 0.279 89.116 0.575 A 12.035 12.035 0 0 1 90.57 1.05 L 90.48 5.13 L 90.39 5.25 Q 87.42 4.2 84.18 4.2 A 24.668 24.668 0 0 0 83.445 4.21 Q 82.653 4.234 82.098 4.312 A 5.961 5.961 0 0 0 81.78 4.365 A 4.018 4.018 0 0 0 81.353 4.472 Q 80.919 4.608 80.682 4.82 A 1.003 1.003 0 0 0 80.61 4.89 A 1.176 1.176 0 0 0 80.353 5.357 Q 80.299 5.538 80.285 5.755 A 2.432 2.432 0 0 0 80.28 5.91 A 3.122 3.122 0 0 0 80.298 6.255 Q 80.34 6.634 80.483 6.866 A 0.883 0.883 0 0 0 80.505 6.9 A 0.843 0.843 0 0 0 80.727 7.116 Q 80.944 7.266 81.303 7.365 A 3.468 3.468 0 0 0 81.42 7.395 A 8.94 8.94 0 0 0 81.885 7.492 Q 82.309 7.569 82.88 7.643 A 34.971 34.971 0 0 0 83.43 7.71 L 85.32 7.92 A 17.445 17.445 0 0 1 86.712 8.13 Q 88.123 8.406 89.01 8.88 A 4.506 4.506 0 0 1 89.957 9.545 A 3.454 3.454 0 0 1 90.795 10.725 Q 91.29 11.88 91.29 13.53 Q 91.29 15.54 90.435 16.875 A 4.358 4.358 0 0 1 89.113 18.178 Q 88.564 18.536 87.863 18.797 A 8.117 8.117 0 0 1 87.66 18.87 Q 86.37 19.314 84.498 19.459 A 25.476 25.476 0 0 1 82.53 19.53 A 33.716 33.716 0 0 1 80.565 19.476 Q 79.603 19.419 78.75 19.305 Q 77.07 19.08 75.48 18.69 L 75.48 14.46 Z M 51.48 0.27 L 56.28 0.27 L 56.28 11.46 A 20.065 20.065 0 0 1 56.204 13.264 Q 56.124 14.149 55.959 14.894 A 8.283 8.283 0 0 1 55.575 16.17 Q 54.87 17.94 53.13 18.735 A 7.263 7.263 0 0 1 51.764 19.188 Q 50.392 19.508 48.477 19.529 A 24.715 24.715 0 0 1 48.21 19.53 A 22.11 22.11 0 0 1 46.315 19.454 Q 44.35 19.285 43.095 18.735 Q 41.28 17.94 40.56 16.17 Q 39.84 14.4 39.84 11.46 L 39.84 0.27 L 44.64 0.27 L 44.64 11.37 A 12.667 12.667 0 0 0 44.669 12.262 Q 44.731 13.127 44.92 13.71 A 3.497 3.497 0 0 0 44.94 13.77 A 2.206 2.206 0 0 0 45.291 14.426 A 1.887 1.887 0 0 0 46.02 14.985 A 3.341 3.341 0 0 0 46.631 15.182 Q 47.285 15.33 48.21 15.33 A 8.161 8.161 0 0 0 48.94 15.3 Q 49.669 15.234 50.146 15.026 A 2.227 2.227 0 0 0 50.235 14.985 A 1.786 1.786 0 0 0 51.065 14.137 A 2.544 2.544 0 0 0 51.21 13.77 Q 51.468 12.939 51.48 11.505 A 16.84 16.84 0 0 0 51.48 11.37 L 51.48 0.27 Z M 124.68 19.26 L 115.32 19.26 L 115.32 0.27 L 116.49 0.27 L 124.38 0.27 A 19.095 19.095 0 0 1 125.829 0.321 Q 127.306 0.434 128.265 0.795 Q 129.465 1.247 130.054 2.064 A 2.841 2.841 0 0 1 130.23 2.34 Q 130.742 3.257 130.794 4.585 A 7.808 7.808 0 0 1 130.8 4.89 A 7.053 7.053 0 0 1 130.692 6.167 Q 130.47 7.369 129.795 8.145 A 3.07 3.07 0 0 1 128.852 8.854 Q 127.96 9.306 126.544 9.486 A 13.222 13.222 0 0 1 126.03 9.54 L 126.03 9.63 Q 128.07 9.78 129.24 10.305 Q 130.41 10.83 130.905 11.82 A 4.182 4.182 0 0 1 131.226 12.724 Q 131.334 13.179 131.375 13.715 A 8.985 8.985 0 0 1 131.4 14.4 A 6.165 6.165 0 0 1 131.24 15.849 A 3.948 3.948 0 0 1 129.915 18.03 Q 128.654 19.075 125.757 19.232 A 19.901 19.901 0 0 1 124.68 19.26 Z M 68.58 19.26 L 63.78 19.26 L 63.78 4.32 L 58.38 4.32 L 58.38 0.27 L 73.98 0.27 L 73.98 4.32 L 68.58 4.32 L 68.58 19.26 Z M 18.21 9.75 Q 18.21 6.12 19.035 3.99 Q 19.86 1.86 21.885 0.93 Q 23.91 0 27.54 0 A 24.212 24.212 0 0 1 29.382 0.066 Q 30.246 0.132 30.988 0.264 A 11.14 11.14 0 0 1 32.07 0.51 A 7.2 7.2 0 0 1 33.5 1.076 A 5.303 5.303 0 0 1 34.92 2.16 A 5.669 5.669 0 0 1 35.907 3.675 Q 36.205 4.334 36.393 5.124 A 9.637 9.637 0 0 1 36.405 5.175 A 15.135 15.135 0 0 1 36.687 6.835 Q 36.783 7.655 36.819 8.589 A 30.221 30.221 0 0 1 36.84 9.75 A 28.602 28.602 0 0 1 36.779 11.677 Q 36.677 13.183 36.405 14.355 Q 35.978 16.196 34.958 17.328 A 5.066 5.066 0 0 1 34.92 17.37 A 5.375 5.375 0 0 1 33.326 18.543 A 7.365 7.365 0 0 1 32.07 19.02 A 11.79 11.79 0 0 1 30.589 19.331 Q 29.792 19.449 28.866 19.497 A 25.612 25.612 0 0 1 27.54 19.53 A 24.212 24.212 0 0 1 25.698 19.464 Q 24.835 19.398 24.092 19.266 A 11.14 11.14 0 0 1 23.01 19.02 A 7.2 7.2 0 0 1 21.58 18.454 A 5.303 5.303 0 0 1 20.16 17.37 Q 19.124 16.246 18.673 14.406 A 9.803 9.803 0 0 1 18.66 14.355 A 14.389 14.389 0 0 1 18.386 12.829 Q 18.21 11.456 18.21 9.75 Z M 93.69 9.75 Q 93.69 6.12 94.515 3.99 Q 95.34 1.86 97.365 0.93 Q 99.39 0 103.02 0 A 24.212 24.212 0 0 1 104.862 0.066 Q 105.726 0.132 106.468 0.264 A 11.14 11.14 0 0 1 107.55 0.51 A 7.2 7.2 0 0 1 108.98 1.076 A 5.303 5.303 0 0 1 110.4 2.16 A 5.669 5.669 0 0 1 111.387 3.675 Q 111.685 4.334 111.873 5.124 A 9.637 9.637 0 0 1 111.885 5.175 A 15.135 15.135 0 0 1 112.167 6.835 Q 112.263 7.655 112.299 8.589 A 30.221 30.221 0 0 1 112.32 9.75 A 28.602 28.602 0 0 1 112.259 11.677 Q 112.157 13.183 111.885 14.355 Q 111.458 16.196 110.438 17.328 A 5.066 5.066 0 0 1 110.4 17.37 A 5.375 5.375 0 0 1 108.806 18.543 A 7.365 7.365 0 0 1 107.55 19.02 A 11.79 11.79 0 0 1 106.069 19.331 Q 105.272 19.449 104.346 19.497 A 25.612 25.612 0 0 1 103.02 19.53 A 24.212 24.212 0 0 1 101.178 19.464 Q 100.315 19.398 99.572 19.266 A 11.14 11.14 0 0 1 98.49 19.02 A 7.2 7.2 0 0 1 97.06 18.454 A 5.303 5.303 0 0 1 95.64 17.37 Q 94.604 16.246 94.153 14.406 A 9.803 9.803 0 0 1 94.14 14.355 A 14.389 14.389 0 0 1 93.866 12.829 Q 93.69 11.456 93.69 9.75 Z M 30.19 14.953 A 2.975 2.975 0 0 0 30.42 14.85 A 2.346 2.346 0 0 0 31.517 13.692 A 3.415 3.415 0 0 0 31.71 13.155 Q 32.008 12.058 32.037 10.164 A 27.231 27.231 0 0 0 32.04 9.75 Q 32.04 7.59 31.71 6.39 A 3.153 3.153 0 0 0 31.374 5.589 A 2.361 2.361 0 0 0 30.42 4.695 A 3.563 3.563 0 0 0 29.687 4.424 Q 28.951 4.232 27.894 4.205 A 13.866 13.866 0 0 0 27.54 4.2 A 11.699 11.699 0 0 0 26.549 4.239 Q 25.524 4.327 24.86 4.609 A 3.012 3.012 0 0 0 24.675 4.695 A 2.47 2.47 0 0 0 23.514 5.948 A 3.479 3.479 0 0 0 23.355 6.39 Q 23.043 7.474 23.013 9.341 A 25.34 25.34 0 0 0 23.01 9.75 A 22.519 22.519 0 0 0 23.042 10.994 Q 23.108 12.172 23.306 12.972 A 5.737 5.737 0 0 0 23.355 13.155 A 3.182 3.182 0 0 0 23.698 13.956 A 2.341 2.341 0 0 0 24.675 14.85 Q 25.558 15.285 27.191 15.326 A 13.888 13.888 0 0 0 27.54 15.33 Q 29.242 15.33 30.19 14.953 Z M 105.67 14.953 A 2.975 2.975 0 0 0 105.9 14.85 A 2.346 2.346 0 0 0 106.997 13.692 A 3.415 3.415 0 0 0 107.19 13.155 Q 107.488 12.058 107.517 10.164 A 27.231 27.231 0 0 0 107.52 9.75 Q 107.52 7.59 107.19 6.39 A 3.153 3.153 0 0 0 106.854 5.589 A 2.361 2.361 0 0 0 105.9 4.695 A 3.563 3.563 0 0 0 105.167 4.424 Q 104.431 4.232 103.374 4.205 A 13.866 13.866 0 0 0 103.02 4.2 A 11.699 11.699 0 0 0 102.029 4.239 Q 101.004 4.327 100.34 4.609 A 3.012 3.012 0 0 0 100.155 4.695 A 2.47 2.47 0 0 0 98.994 5.948 A 3.479 3.479 0 0 0 98.835 6.39 Q 98.523 7.474 98.493 9.341 A 25.34 25.34 0 0 0 98.49 9.75 A 22.519 22.519 0 0 0 98.522 10.994 Q 98.588 12.172 98.786 12.972 A 5.737 5.737 0 0 0 98.835 13.155 A 3.182 3.182 0 0 0 99.178 13.956 A 2.341 2.341 0 0 0 100.155 14.85 Q 101.038 15.285 102.671 15.326 A 13.888 13.888 0 0 0 103.02 15.33 Q 104.722 15.33 105.67 14.953 Z M 123.66 11.7 L 120.12 11.7 L 120.12 15.51 L 123.66 15.51 A 8.507 8.507 0 0 0 124.384 15.482 Q 125.305 15.403 125.79 15.105 Q 126.45 14.7 126.45 13.59 A 3.057 3.057 0 0 0 126.409 13.068 Q 126.285 12.356 125.79 12.075 A 2.203 2.203 0 0 0 125.306 11.879 Q 124.817 11.74 124.094 11.709 A 10.122 10.122 0 0 0 123.66 11.7 Z M 123.06 4.05 L 120.12 4.05 L 120.12 7.77 L 123.06 7.77 A 9.183 9.183 0 0 0 123.784 7.744 Q 124.489 7.688 124.939 7.513 A 1.902 1.902 0 0 0 125.19 7.395 Q 125.85 7.02 125.85 5.91 Q 125.85 4.83 125.19 4.44 A 2.164 2.164 0 0 0 124.699 4.234 Q 124.071 4.05 123.06 4.05 Z"
              vector-effect="non-scaling-stroke"></path>
    </g>
</svg>