<svg width="43" height="12" viewBox="0 0 43 12" fill="none" xmlns="http://www.w3.org/2000/svg">
<path d="M1.5 5.25C1.08579 5.25 0.75 5.58579 0.75 6C0.75 6.41421 1.08579 6.75 1.5 6.75L1.5 5.25ZM42.0303 6.53032C42.3232 6.23743 42.3232 5.76256 42.0303 5.46966L37.2574 0.696693C36.9645 0.4038 36.4896 0.4038 36.1967 0.696693C35.9038 0.989587 35.9038 1.46446 36.1967 1.75735L40.4393 5.99999L36.1967 10.2426C35.9038 10.5355 35.9038 11.0104 36.1967 11.3033C36.4896 11.5962 36.9645 11.5962 37.2574 11.3033L42.0303 6.53032ZM1.5 6.75L41.5 6.74999L41.5 5.24999L1.5 5.25L1.5 6.75Z" fill="black"/>
</svg>
