<svg width="497" height="610" fill="none" xmlns="http://www.w3.org/2000/svg"><mask id="a" style="mask-type:alpha" maskUnits="userSpaceOnUse" x="0" y="0" width="497" height="610"><path d="M496.41 394.8c0 1.02-.96 1.93-2.02 1.93a1.97 1.97 0 0 1-2.03-1.93c0-1.1.96-1.92 2.03-1.92 1.06 0 2.02.81 2.02 1.93ZM496.41 405.34c0 1.11-.96 1.92-2.02 1.92a1.97 1.97 0 0 1-2.03-1.92c0-1.11.96-1.92 2.03-1.92 1.06 0 2.02.9 2.02 1.92ZM485.15 394.8c0 1.02-.96 1.93-2.03 1.93a1.97 1.97 0 0 1-2.02-1.93c0-1.1.96-1.92 2.02-1.92 1.17 0 2.03.81 2.03 1.93ZM485.15 405.34c0 1.11-.96 1.92-2.03 1.92a1.97 1.97 0 0 1-2.02-1.92c0-1.11.96-1.92 2.02-1.92 1.17 0 2.03.9 2.03 1.92ZM485.15 416.03c0 1.01-.96 1.92-2.03 1.92a1.97 1.97 0 0 1-2.02-1.92c0-1.11.96-1.92 2.02-1.92 1.17 0 2.03.8 2.03 1.92ZM485.15 426.56c0 1.01-.96 1.93-2.03 1.93a1.97 1.97 0 0 1-2.02-1.93c0-1.1.96-1.92 2.02-1.92 1.17 0 2.03.91 2.03 1.92ZM485.15 437.25c0 1.12-.96 1.93-2.03 1.93a1.97 1.97 0 0 1-2.02-1.93c0-1.1.96-1.92 2.02-1.92 1.17 0 2.03.81 2.03 1.92ZM474.05 394.8c0 1.02-.96 1.93-2.03 1.93a1.97 1.97 0 0 1-2.02-1.93c0-1.1.96-1.92 2.02-1.92 1.07 0 2.03.81 2.03 1.93ZM474.05 405.34c0 1.11-.96 1.92-2.03 1.92a1.97 1.97 0 0 1-2.02-1.92c0-1.11.96-1.92 2.02-1.92 1.07 0 2.03.9 2.03 1.92ZM474.05 416.03c0 1.01-.96 1.92-2.03 1.92a1.97 1.97 0 0 1-2.02-1.92c0-1.11.96-1.92 2.02-1.92 1.07 0 2.03.8 2.03 1.92ZM474.05 426.56c0 1.01-.96 1.92-2.03 1.92a1.97 1.97 0 0 1-2.02-1.92c0-1.1.96-1.92 2.02-1.92 1.07 0 2.03.91 2.03 1.92ZM474.05 437.25c0 1.12-.96 1.93-2.03 1.93a1.97 1.97 0 0 1-2.02-1.93c0-1.1.96-1.92 2.02-1.92 1.07 0 2.03.81 2.03 1.92ZM474.05 447.79c0 1.11-.96 1.92-2.03 1.92a1.97 1.97 0 0 1-2.02-1.92c0-1.12.96-1.92 2.02-1.92 1.07 0 2.03.9 2.03 1.92ZM474.05 458.48c0 1-.96 1.92-2.03 1.92a1.97 1.97 0 0 1-2.02-1.92c0-1.11.96-1.92 2.02-1.92 1.07 0 2.03.8 2.03 1.92ZM462.78 384.12c0 1.1-.96 1.92-2.02 1.92a1.97 1.97 0 0 1-2.03-1.93c0-1.1.96-1.92 2.03-1.92 1.17 0 2.02.91 2.02 1.93ZM462.78 394.8c0 1.02-.96 1.93-2.02 1.93a1.97 1.97 0 0 1-2.03-1.93c0-1.1.96-1.92 2.03-1.92 1.17 0 2.02.81 2.02 1.93ZM462.78 405.34c0 1.11-.96 1.92-2.02 1.92a1.97 1.97 0 0 1-2.03-1.92c0-1.11.96-1.92 2.03-1.92 1.17 0 2.02.9 2.02 1.92ZM462.78 416.03c0 1.01-.96 1.92-2.02 1.92a1.97 1.97 0 0 1-2.03-1.92c0-1.11.96-1.92 2.03-1.92 1.17 0 2.02.8 2.02 1.92ZM462.78 426.56c0 1.01-.96 1.93-2.02 1.93a1.97 1.97 0 0 1-2.03-1.93c0-1.1.96-1.92 2.03-1.92 1.17 0 2.02.91 2.02 1.92ZM462.78 437.25c0 1.12-.96 1.93-2.02 1.93a1.97 1.97 0 0 1-2.03-1.93c0-1.1.96-1.92 2.03-1.92 1.17 0 2.02.81 2.02 1.92ZM462.78 447.79c0 1.11-.96 1.92-2.02 1.92a1.97 1.97 0 0 1-2.03-1.92c0-1.12.96-1.92 2.03-1.92 1.17 0 2.02.9 2.02 1.92ZM462.78 458.48c0 1-.96 1.92-2.02 1.92a1.97 1.97 0 0 1-2.03-1.92c0-1.12.96-1.92 2.03-1.92 1.17 0 2.02.8 2.02 1.92ZM451.68 384.12c0 1.1-.96 1.92-2.03 1.92a1.97 1.97 0 0 1-2.02-1.93c0-1.1.96-1.92 2.02-1.92 1.07 0 2.03.91 2.03 1.93ZM451.68 394.8c0 1.02-.96 1.93-2.03 1.93a1.97 1.97 0 0 1-2.02-1.93c0-1.1.96-1.92 2.02-1.92 1.07 0 2.03.81 2.03 1.93ZM451.68 405.34c0 1.11-.96 1.92-2.03 1.92a1.97 1.97 0 0 1-2.02-1.92c0-1.11.96-1.92 2.02-1.92 1.07 0 2.03.9 2.03 1.92ZM451.68 416.03c0 1.01-.96 1.92-2.03 1.92a1.97 1.97 0 0 1-2.02-1.92c0-1.11.96-1.92 2.02-1.92 1.07 0 2.03.8 2.03 1.92ZM451.68 426.56c0 1.01-.96 1.92-2.03 1.92a1.97 1.97 0 0 1-2.02-1.92c0-1.1.96-1.92 2.02-1.92 1.07 0 2.03.91 2.03 1.92ZM451.68 437.25c0 1.12-.96 1.93-2.03 1.93a1.97 1.97 0 0 1-2.02-1.93c0-1.1.96-1.92 2.02-1.92 1.07 0 2.03.81 2.03 1.92ZM451.68 447.79c0 1.11-.96 1.92-2.03 1.92a1.97 1.97 0 0 1-2.02-1.92c0-1.12.96-1.92 2.02-1.92 1.07 0 2.03.9 2.03 1.92ZM451.68 458.48c0 1-.96 1.92-2.03 1.92a1.97 1.97 0 0 1-2.02-1.92c0-1.11.96-1.92 2.02-1.92 1.07 0 2.03.8 2.03 1.92ZM449.65 470.93c1.12 0 2.03-.86 2.03-1.92s-.9-1.92-2.03-1.92c-1.11 0-2.02.86-2.02 1.92s.9 1.92 2.02 1.92ZM440.42 362.89c0 1.11-.96 1.92-2.03 1.92a1.97 1.97 0 0 1-2.02-1.92c0-1.11.95-1.92 2.02-1.92 1.17 0 2.03.9 2.03 1.92ZM440.42 373.58c0 1.11-.96 1.92-2.03 1.92a1.97 1.97 0 0 1-2.02-1.92c0-1.11.95-1.92 2.02-1.92 1.17 0 2.03.8 2.03 1.92ZM440.42 384.12c0 1.1-.96 1.92-2.03 1.92a1.97 1.97 0 0 1-2.02-1.93c0-1.1.95-1.92 2.02-1.92 1.17 0 2.03.91 2.03 1.93ZM440.42 394.8c0 1.02-.96 1.93-2.03 1.93a1.97 1.97 0 0 1-2.02-1.93c0-1.1.95-1.92 2.02-1.92 1.17 0 2.03.81 2.03 1.93ZM440.42 405.34c0 1.11-.96 1.92-2.03 1.92a1.97 1.97 0 0 1-2.02-1.92c0-1.11.95-1.92 2.02-1.92 1.17 0 2.03.9 2.03 1.92ZM440.42 416.03c0 1.01-.96 1.92-2.03 1.92a1.97 1.97 0 0 1-2.02-1.92c0-1.11.95-1.92 2.02-1.92 1.17 0 2.03.8 2.03 1.92ZM440.42 426.56c0 1.01-.96 1.92-2.03 1.92a1.97 1.97 0 0 1-2.02-1.92c0-1.1.95-1.92 2.02-1.92 1.17 0 2.03.91 2.03 1.92ZM440.42 437.25c0 1.12-.96 1.93-2.03 1.93a1.97 1.97 0 0 1-2.02-1.93c0-1.1.95-1.92 2.02-1.92 1.17 0 2.03.81 2.03 1.92ZM440.42 447.79c0 1.11-.96 1.92-2.03 1.92a1.97 1.97 0 0 1-2.02-1.92c0-1.12.95-1.92 2.02-1.92 1.17 0 2.03.9 2.03 1.92ZM440.42 458.48c0 1-.96 1.92-2.03 1.92a1.97 1.97 0 0 1-2.02-1.92c0-1.11.95-1.92 2.02-1.92 1.17 0 2.03.8 2.03 1.92ZM440.42 469.01c0 1.11-.96 1.92-2.03 1.92a1.97 1.97 0 0 1-2.02-1.92c0-1.11.95-1.92 2.02-1.92 1.17 0 2.03.91 2.03 1.92ZM440.42 479.7c0 1.01-.96 1.92-2.03 1.92a1.97 1.97 0 0 1-2.02-1.92c0-1.11.95-1.92 2.02-1.92 1.17 0 2.03.81 2.03 1.92ZM440.42 490.24c0 1.1-.96 1.92-2.03 1.92a1.97 1.97 0 0 1-2.02-1.92c0-1.12.95-1.93 2.02-1.93 1.17 0 2.03.92 2.03 1.93ZM429.32 192.94c0 1.11-.96 1.92-2.03 1.92a1.97 1.97 0 0 1-2.02-1.92c0-1.11.96-1.92 2.02-1.92 1.07 0 2.03.9 2.03 1.92ZM429.32 362.89c0 1.11-.96 1.92-2.03 1.92a1.97 1.97 0 0 1-2.02-1.92c0-1.11.96-1.92 2.02-1.92 1.07 0 2.03.9 2.03 1.92ZM429.32 373.58c0 1.11-.96 1.92-2.03 1.92a1.97 1.97 0 0 1-2.02-1.92c0-1.11.96-1.92 2.02-1.92 1.07 0 2.03.8 2.03 1.92ZM429.32 384.12c0 1.1-.96 1.92-2.03 1.92a1.97 1.97 0 0 1-2.02-1.93c0-1.1.96-1.92 2.02-1.92 1.07 0 2.03.91 2.03 1.93ZM429.32 394.8c0 1.02-.96 1.93-2.03 1.93a1.97 1.97 0 0 1-2.02-1.93c0-1.1.96-1.92 2.02-1.92 1.07 0 2.03.81 2.03 1.93ZM429.32 405.34c0 1.11-.96 1.92-2.03 1.92a1.97 1.97 0 0 1-2.02-1.92c0-1.11.96-1.92 2.02-1.92 1.07 0 2.03.9 2.03 1.92ZM429.32 416.03c0 1.01-.96 1.92-2.03 1.92a1.97 1.97 0 0 1-2.02-1.92c0-1.11.96-1.92 2.02-1.92 1.07 0 2.03.8 2.03 1.92ZM429.32 426.56c0 1.01-.96 1.92-2.03 1.92a1.97 1.97 0 0 1-2.02-1.92c0-1.1.96-1.92 2.02-1.92 1.07 0 2.03.91 2.03 1.92ZM429.32 437.25c0 1.12-.96 1.93-2.03 1.93a1.97 1.97 0 0 1-2.02-1.93c0-1.1.96-1.92 2.02-1.92 1.07 0 2.03.81 2.03 1.92ZM429.32 447.79c0 1.11-.96 1.92-2.03 1.92a1.97 1.97 0 0 1-2.02-1.92c0-1.12.96-1.92 2.02-1.92 1.07 0 2.03.9 2.03 1.92ZM429.32 458.48c0 1-.96 1.92-2.03 1.92a1.97 1.97 0 0 1-2.02-1.92c0-1.11.96-1.92 2.02-1.92 1.07 0 2.03.8 2.03 1.92ZM429.32 469.01c0 1.11-.96 1.92-2.03 1.92a1.97 1.97 0 0 1-2.02-1.92c0-1.11.96-1.92 2.02-1.92 1.07 0 2.03.91 2.03 1.92ZM429.32 479.7c0 1.01-.96 1.92-2.03 1.92a1.97 1.97 0 0 1-2.02-1.92c0-1.11.96-1.92 2.02-1.92 1.07 0 2.03.81 2.03 1.92ZM429.32 490.24c0 1.1-.96 1.92-2.03 1.92a1.97 1.97 0 0 1-2.02-1.92c0-1.12.96-1.93 2.02-1.93 1.07 0 2.03.92 2.03 1.93ZM429.32 500.93c0 1.1-.96 1.92-2.03 1.92a1.97 1.97 0 0 1-2.02-1.92c0-1.01.96-1.93 2.02-1.93 1.07 0 2.03.81 2.03 1.93ZM418.05 171.72c0 1.1-.96 1.92-2.02 1.92a1.97 1.97 0 0 1-2.03-1.92c0-1.12.96-1.93 2.03-1.93 1.17 0 2.02.91 2.02 1.93ZM418.05 182.4c0 1.12-.96 1.93-2.02 1.93a1.97 1.97 0 0 1-2.03-1.92c0-1.12.96-1.92 2.03-1.92 1.17 0 2.02.8 2.02 1.92ZM418.05 192.94c0 1.11-.96 1.92-2.02 1.92a1.97 1.97 0 0 1-2.03-1.92c0-1.11.96-1.92 2.03-1.92 1.17 0 2.02.9 2.02 1.92ZM418.05 362.89c0 1.11-.96 1.92-2.02 1.92a1.97 1.97 0 0 1-2.03-1.92c0-1.11.96-1.92 2.03-1.92 1.17 0 2.02.9 2.02 1.92ZM418.05 373.58c0 1.11-.96 1.92-2.02 1.92a1.97 1.97 0 0 1-2.03-1.92c0-1.11.96-1.92 2.03-1.92 1.17 0 2.02.8 2.02 1.92ZM418.05 384.12c0 1.1-.96 1.92-2.02 1.92a1.97 1.97 0 0 1-2.03-1.93c0-1.1.96-1.92 2.03-1.92 1.17 0 2.02.91 2.02 1.93ZM418.05 394.8c0 1.02-.96 1.93-2.02 1.93a1.97 1.97 0 0 1-2.03-1.93c0-1.1.96-1.92 2.03-1.92 1.17 0 2.02.81 2.02 1.93ZM418.05 405.34c0 1.11-.96 1.92-2.02 1.92a1.97 1.97 0 0 1-2.03-1.92c0-1.11.96-1.92 2.03-1.92 1.17 0 2.02.9 2.02 1.92ZM418.05 416.03c0 1.01-.96 1.92-2.02 1.92a1.97 1.97 0 0 1-2.03-1.92c0-1.11.96-1.92 2.03-1.92 1.17 0 2.02.8 2.02 1.92ZM418.05 426.56c0 1.01-.96 1.93-2.02 1.93a1.97 1.97 0 0 1-2.03-1.93c0-1.1.96-1.92 2.03-1.92 1.17 0 2.02.91 2.02 1.92ZM418.05 437.25c0 1.12-.96 1.93-2.02 1.93a1.97 1.97 0 0 1-2.03-1.93c0-1.1.96-1.92 2.03-1.92 1.17 0 2.02.81 2.02 1.92ZM418.05 447.79c0 1.11-.96 1.92-2.02 1.92a1.97 1.97 0 0 1-2.03-1.92c0-1.12.96-1.92 2.03-1.92 1.17 0 2.02.9 2.02 1.92ZM418.05 458.48c0 1-.96 1.92-2.02 1.92a1.97 1.97 0 0 1-2.03-1.92c0-1.12.96-1.92 2.03-1.92 1.17 0 2.02.8 2.02 1.92ZM418.05 469.01c0 1.11-.96 1.92-2.02 1.92a1.97 1.97 0 0 1-2.03-1.92c0-1.11.96-1.92 2.03-1.92 1.17 0 2.02.91 2.02 1.92ZM418.05 479.7c0 1.01-.96 1.92-2.02 1.92a1.97 1.97 0 0 1-2.03-1.92c0-1.11.96-1.92 2.03-1.92 1.17 0 2.02.81 2.02 1.92ZM418.05 490.24c0 1.1-.96 1.92-2.02 1.92a1.97 1.97 0 0 1-2.03-1.92c0-1.12.96-1.93 2.03-1.93 1.17 0 2.02.92 2.02 1.93ZM418.05 500.93c0 1.1-.96 1.92-2.02 1.92a1.97 1.97 0 0 1-2.03-1.92c0-1.01.96-1.93 2.03-1.93 1.17 0 2.02.81 2.02 1.93ZM418.05 511.46c0 1.11-.96 1.92-2.02 1.92a1.97 1.97 0 0 1-2.03-1.92c0-1.11.96-1.92 2.03-1.92 1.17 0 2.02.9 2.02 1.92ZM406.95 161.18c0 1.01-.96 1.92-2.02 1.92-1.07 0-2.03-.9-2.03-1.92 0-1.11.96-1.92 2.03-1.92 1.06 0 2.02.8 2.02 1.92ZM406.95 171.72c0 1.1-.96 1.92-2.02 1.92-1.07 0-2.03-.91-2.03-1.92 0-1.12.96-1.93 2.03-1.93 1.06 0 2.02.91 2.02 1.93ZM406.95 192.94c0 1.11-.96 1.92-2.02 1.92-1.07 0-2.03-.9-2.03-1.92 0-1.11.96-1.92 2.03-1.92 1.06 0 2.02.9 2.02 1.92ZM406.95 352.2c0 1.11-.96 1.92-2.02 1.92-1.07 0-2.03-.9-2.03-1.92 0-1.11.96-1.92 2.03-1.92 1.06 0 2.02.9 2.02 1.92ZM406.95 362.89c0 1.11-.96 1.92-2.02 1.92-1.07 0-2.03-.9-2.03-1.92 0-1.11.96-1.92 2.03-1.92 1.06 0 2.02.9 2.02 1.92ZM406.95 373.58c0 1.11-.96 1.92-2.02 1.92-1.07 0-2.03-.9-2.03-1.92 0-1.11.96-1.92 2.03-1.92 1.06 0 2.02.8 2.02 1.92ZM406.95 384.12c0 1.1-.96 1.92-2.02 1.92-1.07 0-2.03-.91-2.03-1.93 0-1.1.96-1.92 2.03-1.92 1.06 0 2.02.91 2.02 1.93ZM406.95 394.8c0 1.02-.96 1.93-2.02 1.93-1.07 0-2.03-.91-2.03-1.93 0-1.1.96-1.92 2.03-1.92 1.06 0 2.02.81 2.02 1.93ZM406.95 405.34c0 1.11-.96 1.92-2.02 1.92-1.07 0-2.03-.91-2.03-1.92 0-1.11.96-1.92 2.03-1.92 1.06 0 2.02.9 2.02 1.92ZM406.95 416.03c0 1.01-.96 1.92-2.02 1.92-1.07 0-2.03-.9-2.03-1.92 0-1.11.96-1.92 2.03-1.92 1.06 0 2.02.8 2.02 1.92ZM406.95 426.56c0 1.01-.96 1.92-2.02 1.92-1.07 0-2.03-.9-2.03-1.92 0-1.1.96-1.92 2.03-1.92 1.06 0 2.02.91 2.02 1.92ZM406.95 437.25c0 1.12-.96 1.93-2.02 1.93-1.07 0-2.03-.92-2.03-1.93 0-1.1.96-1.92 2.03-1.92 1.06 0 2.02.81 2.02 1.92ZM406.95 447.79c0 1.11-.96 1.92-2.02 1.92-1.07 0-2.03-.91-2.03-1.92 0-1.12.96-1.92 2.03-1.92 1.06 0 2.02.9 2.02 1.92ZM406.95 458.48c0 1-.96 1.92-2.02 1.92-1.07 0-2.03-.91-2.03-1.92 0-1.11.96-1.92 2.03-1.92 1.06 0 2.02.8 2.02 1.92ZM406.95 469.01c0 1.11-.96 1.92-2.02 1.92-1.07 0-2.03-.9-2.03-1.92 0-1.11.96-1.92 2.03-1.92 1.06 0 2.02.91 2.02 1.92ZM406.95 479.7c0 1.01-.96 1.92-2.02 1.92-1.07 0-2.03-.9-2.03-1.92 0-1.11.96-1.92 2.03-1.92 1.06 0 2.02.81 2.02 1.92ZM406.95 490.24c0 1.1-.96 1.92-2.02 1.92-1.07 0-2.03-.91-2.03-1.92 0-1.12.96-1.93 2.03-1.93 1.06 0 2.02.92 2.02 1.93ZM406.95 500.93c0 1.1-.96 1.92-2.02 1.92-1.07 0-2.03-.91-2.03-1.92 0-1.01.96-1.93 2.03-1.93 1.06 0 2.02.81 2.02 1.93ZM406.95 511.46c0 1.11-.96 1.92-2.02 1.92-1.07 0-2.03-.9-2.03-1.92 0-1.11.96-1.92 2.03-1.92 1.06 0 2.02.9 2.02 1.92ZM406.95 522.15c0 1.11-.96 1.92-2.02 1.92-1.07 0-2.03-.9-2.03-1.92 0-1.11.96-1.92 2.03-1.92 1.06 0 2.02.8 2.02 1.92ZM395.69 97.5c0 1.12-.96 1.93-2.03 1.93a1.97 1.97 0 0 1-2.02-1.92c0-1.11.96-1.92 2.02-1.92 1.17 0 2.03.8 2.03 1.92ZM395.69 150.5c0 1.1-.96 1.91-2.03 1.91a1.97 1.97 0 0 1-2.02-1.92c0-1.11.96-1.92 2.02-1.92 1.17 0 2.03.91 2.03 1.92ZM395.69 161.18c0 1.01-.96 1.92-2.03 1.92a1.97 1.97 0 0 1-2.02-1.92c0-1.11.96-1.92 2.02-1.92 1.17 0 2.03.8 2.03 1.92ZM395.69 171.72c0 1.1-.96 1.92-2.03 1.92a1.97 1.97 0 0 1-2.02-1.92c0-1.12.96-1.93 2.02-1.93 1.17 0 2.03.91 2.03 1.93ZM395.69 203.63c0 1.11-.96 1.92-2.03 1.92a1.97 1.97 0 0 1-2.02-1.92c0-1.11.96-1.92 2.02-1.92 1.17 0 2.03.8 2.03 1.92ZM395.69 341.67c0 1-.96 1.92-2.03 1.92a1.97 1.97 0 0 1-2.02-1.92c0-1.12.96-1.93 2.02-1.93 1.17 0 2.03.81 2.03 1.93ZM395.69 352.2c0 1.11-.96 1.92-2.03 1.92a1.97 1.97 0 0 1-2.02-1.92c0-1.11.96-1.92 2.02-1.92 1.17 0 2.03.9 2.03 1.92ZM395.69 362.89c0 1.11-.96 1.92-2.03 1.92a1.97 1.97 0 0 1-2.02-1.92c0-1.11.96-1.92 2.02-1.92 1.17 0 2.03.9 2.03 1.92ZM395.69 373.58c0 1.11-.96 1.92-2.03 1.92a1.97 1.97 0 0 1-2.02-1.92c0-1.11.96-1.92 2.02-1.92 1.17 0 2.03.8 2.03 1.92ZM395.69 384.12c0 1.1-.96 1.92-2.03 1.92a1.97 1.97 0 0 1-2.02-1.93c0-1.1.96-1.92 2.02-1.92 1.17 0 2.03.91 2.03 1.93ZM395.69 394.8c0 1.02-.96 1.93-2.03 1.93a1.97 1.97 0 0 1-2.02-1.93c0-1.1.96-1.92 2.02-1.92 1.17 0 2.03.81 2.03 1.93ZM395.69 405.34c0 1.11-.96 1.92-2.03 1.92a1.97 1.97 0 0 1-2.02-1.92c0-1.11.96-1.92 2.02-1.92 1.17 0 2.03.9 2.03 1.92ZM395.69 416.03c0 1.01-.96 1.92-2.03 1.92a1.97 1.97 0 0 1-2.02-1.92c0-1.11.96-1.92 2.02-1.92 1.17 0 2.03.8 2.03 1.92ZM395.69 426.56c0 1.01-.96 1.92-2.03 1.92a1.97 1.97 0 0 1-2.02-1.92c0-1.1.96-1.92 2.02-1.92 1.17 0 2.03.91 2.03 1.92ZM395.69 437.25c0 1.12-.96 1.93-2.03 1.93a1.97 1.97 0 0 1-2.02-1.93c0-1.1.96-1.92 2.02-1.92 1.17 0 2.03.81 2.03 1.92ZM395.69 447.79c0 1.11-.96 1.92-2.03 1.92a1.97 1.97 0 0 1-2.02-1.92c0-1.12.96-1.92 2.02-1.92 1.17 0 2.03.9 2.03 1.92ZM395.69 458.48c0 1-.96 1.92-2.03 1.92a1.97 1.97 0 0 1-2.02-1.92c0-1.11.96-1.92 2.02-1.92 1.17 0 2.03.8 2.03 1.92ZM395.69 469.01c0 1.11-.96 1.92-2.03 1.92a1.97 1.97 0 0 1-2.02-1.92c0-1.11.96-1.92 2.02-1.92 1.17 0 2.03.91 2.03 1.92ZM395.69 479.7c0 1.01-.96 1.92-2.03 1.92a1.97 1.97 0 0 1-2.02-1.92c0-1.11.96-1.92 2.02-1.92 1.17 0 2.03.81 2.03 1.92ZM395.69 490.24c0 1.1-.96 1.92-2.03 1.92a1.97 1.97 0 0 1-2.02-1.92c0-1.12.96-1.93 2.02-1.93 1.17 0 2.03.92 2.03 1.93ZM395.69 500.93c0 1.1-.96 1.92-2.03 1.92a1.97 1.97 0 0 1-2.02-1.92c0-1.01.96-1.93 2.02-1.93 1.17 0 2.03.81 2.03 1.93ZM395.69 511.46c0 1.11-.96 1.92-2.03 1.92a1.97 1.97 0 0 1-2.02-1.92c0-1.11.96-1.92 2.02-1.92 1.17 0 2.03.9 2.03 1.92ZM395.69 522.15c0 1.11-.96 1.92-2.03 1.92a1.97 1.97 0 0 1-2.02-1.92c0-1.11.96-1.92 2.02-1.92 1.17 0 2.03.8 2.03 1.92ZM395.69 532.84c0 1.11-.96 1.92-2.03 1.92a1.97 1.97 0 0 1-2.02-1.92c0-1.11.96-1.92 2.02-1.92 1.17 0 2.03.8 2.03 1.92ZM384.58 86.82c0 1.11-.95 1.92-2.02 1.92a1.97 1.97 0 0 1-2.02-1.92c0-1.01.95-1.92 2.02-1.92s2.02.9 2.02 1.92ZM384.58 97.5c0 1.12-.95 1.93-2.02 1.93a1.97 1.97 0 0 1-2.02-1.92c0-1.11.95-1.92 2.02-1.92s2.02.8 2.02 1.92ZM384.58 108.04c0 1.11-.95 1.92-2.02 1.92a1.97 1.97 0 0 1-2.02-1.92c0-1.11.95-1.92 2.02-1.92s2.02.91 2.02 1.92ZM384.58 118.73c0 1.11-.95 1.92-2.02 1.92a1.97 1.97 0 0 1-2.02-1.92c0-1.1.95-1.92 2.02-1.92s2.02.81 2.02 1.92ZM384.58 139.96c0 1-.95 1.92-2.02 1.92a1.97 1.97 0 0 1-2.02-1.92c0-1.12.95-1.92 2.02-1.92s2.02.8 2.02 1.92ZM384.58 150.5c0 1.1-.95 1.91-2.02 1.91a1.97 1.97 0 0 1-2.02-1.92c0-1.11.95-1.92 2.02-1.92s2.02.91 2.02 1.92ZM384.58 161.18c0 1.01-.95 1.92-2.02 1.92a1.97 1.97 0 0 1-2.02-1.92c0-1.11.95-1.92 2.02-1.92s2.02.8 2.02 1.92ZM384.58 171.72c0 1.1-.95 1.92-2.02 1.92a1.97 1.97 0 0 1-2.02-1.92c0-1.12.95-1.93 2.02-1.93s2.02.91 2.02 1.93ZM384.58 192.94c0 1.11-.95 1.92-2.02 1.92a1.97 1.97 0 0 1-2.02-1.92c0-1.11.95-1.92 2.02-1.92s2.02.9 2.02 1.92ZM384.58 203.63c0 1.11-.95 1.92-2.02 1.92a1.97 1.97 0 0 1-2.02-1.92c0-1.11.95-1.92 2.02-1.92s2.02.8 2.02 1.92ZM384.58 309.75c0 1.11-.95 1.92-2.02 1.92a1.97 1.97 0 0 1-2.02-1.92c0-1.11.95-1.92 2.02-1.92s2.02.91 2.02 1.92ZM384.58 341.67c0 1-.95 1.92-2.02 1.92a1.97 1.97 0 0 1-2.02-1.92c0-1.12.95-1.93 2.02-1.93s2.02.81 2.02 1.93ZM384.58 352.2c0 1.11-.95 1.92-2.02 1.92a1.97 1.97 0 0 1-2.02-1.92c0-1.11.95-1.92 2.02-1.92s2.02.9 2.02 1.92ZM384.58 362.89c0 1.11-.95 1.92-2.02 1.92a1.97 1.97 0 0 1-2.02-1.92c0-1.11.95-1.92 2.02-1.92s2.02.9 2.02 1.92ZM384.58 373.58c0 1.11-.95 1.92-2.02 1.92a1.97 1.97 0 0 1-2.02-1.92c0-1.11.95-1.92 2.02-1.92s2.02.8 2.02 1.92ZM384.58 384.12c0 1.1-.95 1.92-2.02 1.92a1.97 1.97 0 0 1-2.02-1.93c0-1.1.95-1.92 2.02-1.92s2.02.91 2.02 1.93ZM384.58 394.8c0 1.02-.95 1.93-2.02 1.93a1.97 1.97 0 0 1-2.02-1.93c0-1.1.95-1.92 2.02-1.92s2.02.81 2.02 1.93ZM384.58 405.34c0 1.11-.95 1.92-2.02 1.92a1.97 1.97 0 0 1-2.02-1.92c0-1.11.95-1.92 2.02-1.92s2.02.9 2.02 1.92ZM384.58 416.03c0 1.01-.95 1.92-2.02 1.92a1.97 1.97 0 0 1-2.02-1.92c0-1.11.95-1.92 2.02-1.92s2.02.8 2.02 1.92ZM384.58 426.56c0 1.01-.95 1.92-2.02 1.92a1.97 1.97 0 0 1-2.02-1.92c0-1.1.95-1.92 2.02-1.92s2.02.91 2.02 1.92ZM384.58 437.25c0 1.12-.95 1.93-2.02 1.93a1.97 1.97 0 0 1-2.02-1.93c0-1.1.95-1.92 2.02-1.92s2.02.81 2.02 1.92ZM384.58 447.79c0 1.11-.95 1.92-2.02 1.92a1.97 1.97 0 0 1-2.02-1.92c0-1.12.95-1.92 2.02-1.92s2.02.9 2.02 1.92ZM384.58 458.48c0 1-.95 1.92-2.02 1.92a1.97 1.97 0 0 1-2.02-1.92c0-1.11.95-1.92 2.02-1.92s2.02.8 2.02 1.92ZM384.58 469.01c0 1.11-.95 1.92-2.02 1.92a1.97 1.97 0 0 1-2.02-1.92c0-1.11.95-1.92 2.02-1.92s2.02.91 2.02 1.92ZM384.58 479.7c0 1.01-.95 1.92-2.02 1.92a1.97 1.97 0 0 1-2.02-1.92c0-1.11.95-1.92 2.02-1.92s2.02.81 2.02 1.92ZM384.58 490.24c0 1.1-.95 1.92-2.02 1.92a1.97 1.97 0 0 1-2.02-1.92c0-1.12.95-1.93 2.02-1.93s2.02.92 2.02 1.93ZM384.58 500.93c0 1.1-.95 1.92-2.02 1.92a1.97 1.97 0 0 1-2.02-1.92c0-1.01.95-1.93 2.02-1.93s2.02.81 2.02 1.93ZM384.58 511.46c0 1.11-.95 1.92-2.02 1.92a1.97 1.97 0 0 1-2.02-1.92c0-1.11.95-1.92 2.02-1.92s2.02.9 2.02 1.92ZM384.58 522.15c0 1.11-.95 1.92-2.02 1.92a1.97 1.97 0 0 1-2.02-1.92c0-1.11.95-1.92 2.02-1.92s2.02.8 2.02 1.92ZM384.58 532.84c0 1.11-.95 1.92-2.02 1.92a1.97 1.97 0 0 1-2.02-1.92c0-1.11.95-1.92 2.02-1.92s2.02.8 2.02 1.92ZM384.58 543.38c0 1-.95 1.92-2.02 1.92a1.97 1.97 0 0 1-2.02-1.92c0-1.12.95-1.93 2.02-1.93s2.02.91 2.02 1.92ZM384.58 596.51c0 1.12-.95 1.92-2.02 1.92a1.97 1.97 0 0 1-2.02-1.92c0-1.1.95-1.92 2.02-1.92s2.02.81 2.02 1.92ZM373.32 76.28c0 1.12-.96 1.93-2.02 1.93a1.97 1.97 0 0 1-2.03-1.93c0-1.1.96-1.92 2.03-1.92 1.17 0 2.02.81 2.02 1.92ZM373.32 86.82c0 1.11-.96 1.92-2.02 1.92a1.97 1.97 0 0 1-2.03-1.92c0-1.01.96-1.92 2.03-1.92 1.17 0 2.02.9 2.02 1.92ZM373.32 97.5c0 1.12-.96 1.93-2.02 1.93a1.97 1.97 0 0 1-2.03-1.92c0-1.11.96-1.92 2.03-1.92 1.17 0 2.02.8 2.02 1.92ZM373.32 108.04c0 1.11-.96 1.92-2.02 1.92a1.97 1.97 0 0 1-2.03-1.92c0-1.11.96-1.92 2.03-1.92 1.17 0 2.02.91 2.02 1.92ZM373.32 118.73c0 1.12-.96 1.92-2.02 1.92a1.97 1.97 0 0 1-2.03-1.92c0-1.1.96-1.92 2.03-1.92 1.17 0 2.02.81 2.02 1.92ZM373.32 139.96c0 1-.96 1.92-2.02 1.92a1.97 1.97 0 0 1-2.03-1.92c0-1.12.96-1.92 2.03-1.92 1.17 0 2.02.8 2.02 1.92ZM373.32 150.5c0 1.1-.96 1.91-2.02 1.91a1.97 1.97 0 0 1-2.03-1.92c0-1.11.96-1.92 2.03-1.92 1.17 0 2.02.91 2.02 1.92ZM373.32 161.18c0 1.01-.96 1.92-2.02 1.92a1.97 1.97 0 0 1-2.03-1.92c0-1.11.96-1.92 2.03-1.92 1.17 0 2.02.8 2.02 1.92ZM373.32 171.72c0 1.1-.96 1.92-2.02 1.92a1.97 1.97 0 0 1-2.03-1.92c0-1.12.96-1.93 2.03-1.93 1.17 0 2.02.91 2.02 1.93ZM373.32 182.4c0 1.12-.96 1.93-2.02 1.93a1.97 1.97 0 0 1-2.03-1.92c0-1.12.96-1.92 2.03-1.92 1.17 0 2.02.8 2.02 1.92ZM373.32 192.94c0 1.11-.96 1.92-2.02 1.92a1.97 1.97 0 0 1-2.03-1.92c0-1.11.96-1.92 2.03-1.92 1.17 0 2.02.9 2.02 1.92ZM373.32 203.63c0 1.11-.96 1.92-2.02 1.92a1.97 1.97 0 0 1-2.03-1.92c0-1.11.96-1.92 2.03-1.92 1.17 0 2.02.8 2.02 1.92ZM373.32 309.75c0 1.11-.96 1.92-2.02 1.92a1.97 1.97 0 0 1-2.03-1.92c0-1.11.96-1.92 2.03-1.92 1.17 0 2.02.91 2.02 1.92ZM373.32 341.67c0 1-.96 1.92-2.02 1.92a1.97 1.97 0 0 1-2.03-1.92c0-1.12.96-1.93 2.03-1.93 1.17 0 2.02.81 2.02 1.93ZM373.32 352.2c0 1.11-.96 1.92-2.02 1.92a1.97 1.97 0 0 1-2.03-1.92c0-1.11.96-1.92 2.03-1.92 1.17 0 2.02.9 2.02 1.92ZM373.32 362.89c0 1.11-.96 1.92-2.02 1.92a1.97 1.97 0 0 1-2.03-1.92c0-1.11.96-1.92 2.03-1.92 1.17 0 2.02.9 2.02 1.92ZM373.32 373.58c0 1.11-.96 1.92-2.02 1.92a1.97 1.97 0 0 1-2.03-1.92c0-1.11.96-1.92 2.03-1.92 1.17 0 2.02.8 2.02 1.92ZM373.32 384.12c0 1.1-.96 1.92-2.02 1.92a1.97 1.97 0 0 1-2.03-1.93c0-1.1.96-1.92 2.03-1.92 1.17 0 2.02.91 2.02 1.93ZM373.32 394.8c0 1.02-.96 1.93-2.02 1.93a1.97 1.97 0 0 1-2.03-1.93c0-1.1.96-1.92 2.03-1.92 1.17 0 2.02.81 2.02 1.93ZM373.32 405.34c0 1.11-.96 1.92-2.02 1.92a1.97 1.97 0 0 1-2.03-1.92c0-1.11.96-1.92 2.03-1.92 1.17 0 2.02.9 2.02 1.92ZM373.32 416.03c0 1.01-.96 1.92-2.02 1.92a1.97 1.97 0 0 1-2.03-1.92c0-1.11.96-1.92 2.03-1.92 1.17 0 2.02.8 2.02 1.92ZM373.32 426.56c0 1.01-.96 1.92-2.02 1.92a1.97 1.97 0 0 1-2.03-1.92c0-1.1.96-1.92 2.03-1.92 1.17 0 2.02.91 2.02 1.92ZM373.32 437.25c0 1.12-.96 1.93-2.02 1.93a1.97 1.97 0 0 1-2.03-1.93c0-1.1.96-1.92 2.03-1.92 1.17 0 2.02.81 2.02 1.92ZM373.32 447.79c0 1.11-.96 1.92-2.02 1.92a1.97 1.97 0 0 1-2.03-1.92c0-1.12.96-1.92 2.03-1.92 1.17 0 2.02.9 2.02 1.92ZM373.32 458.48c0 1-.96 1.92-2.02 1.92a1.97 1.97 0 0 1-2.03-1.92c0-1.11.96-1.92 2.03-1.92 1.17 0 2.02.8 2.02 1.92ZM373.32 469.01c0 1.11-.96 1.92-2.02 1.92a1.97 1.97 0 0 1-2.03-1.92c0-1.11.96-1.92 2.03-1.92 1.17 0 2.02.91 2.02 1.92ZM373.32 479.7c0 1.01-.96 1.92-2.02 1.92a1.97 1.97 0 0 1-2.03-1.92c0-1.11.96-1.92 2.03-1.92 1.17 0 2.02.81 2.02 1.92ZM373.32 490.24c0 1.1-.96 1.92-2.02 1.92a1.97 1.97 0 0 1-2.03-1.92c0-1.12.96-1.93 2.03-1.93 1.17 0 2.02.92 2.02 1.93ZM373.32 500.93c0 1.1-.96 1.92-2.02 1.92a1.97 1.97 0 0 1-2.03-1.92c0-1.01.96-1.93 2.03-1.93 1.17 0 2.02.81 2.02 1.93ZM373.32 511.46c0 1.11-.96 1.92-2.02 1.92a1.97 1.97 0 0 1-2.03-1.92c0-1.11.96-1.92 2.03-1.92 1.17 0 2.02.9 2.02 1.92ZM373.32 522.15c0 1.11-.96 1.92-2.02 1.92a1.97 1.97 0 0 1-2.03-1.92c0-1.11.96-1.92 2.03-1.92 1.17 0 2.02.8 2.02 1.92ZM373.32 532.84c0 1.11-.96 1.92-2.02 1.92a1.97 1.97 0 0 1-2.03-1.92c0-1.11.96-1.92 2.03-1.92 1.17 0 2.02.8 2.02 1.92ZM373.32 543.38c0 1-.96 1.92-2.02 1.92a1.97 1.97 0 0 1-2.03-1.92c0-1.12.96-1.93 2.03-1.93 1.17 0 2.02.91 2.02 1.92ZM373.32 554.07c0 1.1-.96 1.92-2.02 1.92a1.97 1.97 0 0 1-2.03-1.92c0-1.12.96-1.93 2.03-1.93 1.17 0 2.02.81 2.02 1.93ZM373.32 564.6c0 1.11-.96 1.92-2.02 1.92a1.97 1.97 0 0 1-2.03-1.92c0-1.11.96-1.92 2.03-1.92 1.17 0 2.02.9 2.02 1.92ZM373.32 585.82c0 1.11-.96 1.92-2.02 1.92a1.97 1.97 0 0 1-2.03-1.92c0-1.1.96-1.92 2.03-1.92 1.17 0 2.02.91 2.02 1.92ZM373.32 596.51c0 1.12-.96 1.92-2.02 1.92a1.97 1.97 0 0 1-2.03-1.92c0-1.1.96-1.92 2.03-1.92 1.17 0 2.02.81 2.02 1.92ZM362.22 65.6c0 1.1-.96 1.92-2.02 1.92a1.97 1.97 0 0 1-2.03-1.93c0-1.1.96-1.92 2.03-1.92 1.06 0 2.02.91 2.02 1.92ZM362.22 76.28c0 1.12-.96 1.93-2.02 1.93a1.97 1.97 0 0 1-2.03-1.93c0-1.1.96-1.92 2.03-1.92 1.06 0 2.02.81 2.02 1.92ZM362.22 86.82c0 1.11-.96 1.92-2.02 1.92a1.97 1.97 0 0 1-2.03-1.92c0-1.01.96-1.92 2.03-1.92 1.06 0 2.02.9 2.02 1.92ZM362.22 97.5c0 1.12-.96 1.93-2.02 1.93a1.97 1.97 0 0 1-2.03-1.92c0-1.11.96-1.92 2.03-1.92 1.06 0 2.02.8 2.02 1.92ZM362.22 108.04c0 1.11-.96 1.92-2.02 1.92a1.97 1.97 0 0 1-2.03-1.92c0-1.11.96-1.92 2.03-1.92 1.06 0 2.02.91 2.02 1.92ZM362.22 129.27c0 1.1-.96 1.92-2.02 1.92a1.97 1.97 0 0 1-2.03-1.92c0-1.12.96-1.93 2.03-1.93 1.06 0 2.02.92 2.02 1.93ZM362.22 139.96c0 1-.96 1.92-2.02 1.92a1.97 1.97 0 0 1-2.03-1.92c0-1.12.96-1.92 2.03-1.92 1.06 0 2.02.8 2.02 1.92ZM362.22 150.5c0 1.1-.96 1.91-2.02 1.91a1.97 1.97 0 0 1-2.03-1.92c0-1.11.96-1.92 2.03-1.92 1.06 0 2.02.91 2.02 1.92ZM362.22 161.18c0 1.01-.96 1.92-2.02 1.92a1.97 1.97 0 0 1-2.03-1.92c0-1.11.96-1.92 2.03-1.92 1.06 0 2.02.8 2.02 1.92ZM362.22 171.72c0 1.1-.96 1.92-2.02 1.92a1.97 1.97 0 0 1-2.03-1.92c0-1.12.96-1.93 2.03-1.93 1.06 0 2.02.91 2.02 1.93ZM362.22 182.4c0 1.12-.96 1.93-2.02 1.93a1.97 1.97 0 0 1-2.03-1.92c0-1.12.96-1.93 2.03-1.93 1.06 0 2.02.81 2.02 1.93ZM362.22 192.94c0 1.11-.96 1.92-2.02 1.92a1.97 1.97 0 0 1-2.03-1.92c0-1.11.96-1.92 2.03-1.92 1.06 0 2.02.9 2.02 1.92ZM362.22 203.63c0 1.11-.96 1.92-2.02 1.92a1.97 1.97 0 0 1-2.03-1.92c0-1.11.96-1.92 2.03-1.92 1.06 0 2.02.8 2.02 1.92ZM362.22 214.32c0 1.01-.96 1.92-2.02 1.92a1.97 1.97 0 0 1-2.03-1.92c0-1.11.96-1.92 2.03-1.92 1.06 0 2.02.8 2.02 1.92ZM362.22 299.22c0 1.11-.96 1.92-2.02 1.92a1.97 1.97 0 0 1-2.03-1.92c0-1.01.96-1.92 2.03-1.92 1.06 0 2.02.8 2.02 1.92ZM362.22 309.75c0 1.11-.96 1.92-2.02 1.92a1.97 1.97 0 0 1-2.03-1.92c0-1.11.96-1.92 2.03-1.92 1.06 0 2.02.91 2.02 1.92ZM362.22 330.98c0 1.1-.96 1.92-2.02 1.92a1.97 1.97 0 0 1-2.03-1.92c0-1.12.96-1.93 2.03-1.93 1.06 0 2.02.91 2.02 1.93ZM362.22 341.67c0 1-.96 1.92-2.02 1.92a1.97 1.97 0 0 1-2.03-1.92c0-1.12.96-1.93 2.03-1.93 1.06 0 2.02.81 2.02 1.93ZM362.22 352.2c0 1.11-.96 1.92-2.02 1.92a1.97 1.97 0 0 1-2.03-1.92c0-1.11.96-1.92 2.03-1.92 1.06 0 2.02.9 2.02 1.92ZM362.22 362.89c0 1.11-.96 1.92-2.02 1.92a1.97 1.97 0 0 1-2.03-1.92c0-1.11.96-1.92 2.03-1.92 1.06 0 2.02.9 2.02 1.92ZM362.22 373.58c0 1.11-.96 1.92-2.02 1.92a1.97 1.97 0 0 1-2.03-1.92c0-1.11.96-1.92 2.03-1.92 1.06 0 2.02.8 2.02 1.92ZM362.22 384.12c0 1.1-.96 1.92-2.02 1.92a1.97 1.97 0 0 1-2.03-1.93c0-1.1.96-1.92 2.03-1.92 1.06 0 2.02.91 2.02 1.93ZM362.22 394.8c0 1.02-.96 1.93-2.02 1.93a1.97 1.97 0 0 1-2.03-1.93c0-1.1.96-1.92 2.03-1.92 1.06 0 2.02.81 2.02 1.93ZM362.22 405.34c0 1.11-.96 1.92-2.02 1.92a1.97 1.97 0 0 1-2.03-1.92c0-1.11.96-1.92 2.03-1.92 1.06 0 2.02.9 2.02 1.92ZM362.22 416.03c0 1.01-.96 1.92-2.02 1.92a1.97 1.97 0 0 1-2.03-1.92c0-1.11.96-1.92 2.03-1.92 1.06 0 2.02.8 2.02 1.92ZM362.22 426.56c0 1.01-.96 1.92-2.02 1.92a1.97 1.97 0 0 1-2.03-1.92c0-1.1.96-1.92 2.03-1.92 1.06 0 2.02.91 2.02 1.92ZM362.22 437.25c0 1.12-.96 1.93-2.02 1.93a1.97 1.97 0 0 1-2.03-1.93c0-1.1.96-1.92 2.03-1.92 1.06 0 2.02.81 2.02 1.92ZM362.22 479.7c0 1.01-.96 1.92-2.02 1.92a1.97 1.97 0 0 1-2.03-1.92c0-1.11.96-1.92 2.03-1.92 1.06 0 2.02.81 2.02 1.92ZM362.22 490.24c0 1.1-.96 1.92-2.02 1.92a1.97 1.97 0 0 1-2.03-1.92c0-1.12.96-1.93 2.03-1.93 1.06 0 2.02.92 2.02 1.93ZM362.22 500.93c0 1.1-.96 1.92-2.02 1.92a1.97 1.97 0 0 1-2.03-1.92c0-1.01.96-1.93 2.03-1.93 1.06 0 2.02.81 2.02 1.93ZM362.22 511.46c0 1.11-.96 1.92-2.02 1.92a1.97 1.97 0 0 1-2.03-1.92c0-1.11.96-1.92 2.03-1.92 1.06 0 2.02.9 2.02 1.92ZM362.22 522.15c0 1.11-.96 1.92-2.02 1.92a1.97 1.97 0 0 1-2.03-1.92c0-1.11.96-1.92 2.03-1.92 1.06 0 2.02.8 2.02 1.92ZM362.22 532.84c0 1.11-.96 1.92-2.02 1.92a1.97 1.97 0 0 1-2.03-1.92c0-1.11.96-1.92 2.03-1.92 1.06 0 2.02.8 2.02 1.92ZM362.22 543.38c0 1-.96 1.92-2.02 1.92a1.97 1.97 0 0 1-2.03-1.92c0-1.12.96-1.93 2.03-1.93 1.06 0 2.02.91 2.02 1.92ZM362.22 554.07c0 1.1-.96 1.92-2.02 1.92a1.97 1.97 0 0 1-2.03-1.92c0-1.12.96-1.93 2.03-1.93 1.06 0 2.02.81 2.02 1.93ZM362.22 564.6c0 1.11-.96 1.92-2.02 1.92a1.97 1.97 0 0 1-2.03-1.92c0-1.11.96-1.92 2.03-1.92 1.06 0 2.02.9 2.02 1.92ZM362.22 575.29c0 1.11-.96 1.92-2.02 1.92a1.97 1.97 0 0 1-2.03-1.92c0-1.11.96-1.92 2.03-1.92 1.06 0 2.02.8 2.02 1.92ZM362.22 585.82c0 1.12-.96 1.92-2.02 1.92a1.97 1.97 0 0 1-2.03-1.92c0-1.1.96-1.92 2.03-1.92 1.06 0 2.02.91 2.02 1.92ZM362.22 596.51c0 1.12-.96 1.92-2.02 1.92a1.97 1.97 0 0 1-2.03-1.92c0-1.1.96-1.92 2.03-1.92 1.06 0 2.02.81 2.02 1.92ZM350.95 65.6c0 1.1-.95 1.92-2.02 1.92a1.97 1.97 0 0 1-2.02-1.93c0-1.1.95-1.92 2.02-1.92 1.17 0 2.02.91 2.02 1.92ZM350.95 76.28c0 1.12-.95 1.93-2.02 1.93a1.97 1.97 0 0 1-2.02-1.93c0-1.1.95-1.92 2.02-1.92 1.17 0 2.02.81 2.02 1.92ZM350.95 108.04c0 1.11-.95 1.92-2.02 1.92a1.97 1.97 0 0 1-2.02-1.92c0-1.11.95-1.92 2.02-1.92 1.17 0 2.02.91 2.02 1.92ZM350.95 118.73c0 1.12-.95 1.92-2.02 1.92a1.97 1.97 0 0 1-2.02-1.92c0-1.1.95-1.92 2.02-1.92 1.17 0 2.02.81 2.02 1.92ZM350.95 129.27c0 1.1-.95 1.92-2.02 1.92a1.97 1.97 0 0 1-2.02-1.92c0-1.12.95-1.93 2.02-1.93 1.17 0 2.02.92 2.02 1.93ZM350.95 139.96c0 1-.95 1.92-2.02 1.92a1.97 1.97 0 0 1-2.02-1.92c0-1.12.95-1.92 2.02-1.92 1.17 0 2.02.8 2.02 1.92ZM350.95 150.5c0 1.1-.95 1.91-2.02 1.91a1.97 1.97 0 0 1-2.02-1.92c0-1.11.95-1.92 2.02-1.92 1.17 0 2.02.91 2.02 1.92ZM350.95 161.18c0 1.01-.95 1.92-2.02 1.92a1.97 1.97 0 0 1-2.02-1.92c0-1.11.95-1.92 2.02-1.92 1.17 0 2.02.8 2.02 1.92ZM350.95 171.72c0 1.1-.95 1.92-2.02 1.92a1.97 1.97 0 0 1-2.02-1.92c0-1.12.95-1.93 2.02-1.93 1.17 0 2.02.91 2.02 1.93ZM350.95 182.4c0 1.12-.95 1.93-2.02 1.93a1.97 1.97 0 0 1-2.02-1.92c0-1.12.95-1.92 2.02-1.92 1.17 0 2.02.8 2.02 1.92ZM350.95 192.94c0 1.11-.95 1.92-2.02 1.92a1.97 1.97 0 0 1-2.02-1.92c0-1.11.95-1.92 2.02-1.92 1.17 0 2.02.9 2.02 1.92ZM350.95 203.63c0 1.11-.95 1.92-2.02 1.92a1.97 1.97 0 0 1-2.02-1.92c0-1.11.95-1.92 2.02-1.92 1.17 0 2.02.8 2.02 1.92ZM350.95 214.32c0 1.01-.95 1.92-2.02 1.92a1.97 1.97 0 0 1-2.02-1.92c0-1.11.95-1.92 2.02-1.92 1.17 0 2.02.8 2.02 1.92ZM350.95 224.85c0 1.12-.95 1.93-2.02 1.93a1.97 1.97 0 0 1-2.02-1.93c0-1.1.95-1.92 2.02-1.92 1.17 0 2.02.91 2.02 1.92ZM350.95 299.22c0 1.11-.95 1.92-2.02 1.92a1.97 1.97 0 0 1-2.02-1.92c0-1.01.95-1.92 2.02-1.92 1.17 0 2.02.8 2.02 1.92ZM350.95 309.75c0 1.11-.95 1.92-2.02 1.92a1.97 1.97 0 0 1-2.02-1.92c0-1.11.95-1.92 2.02-1.92 1.17 0 2.02.91 2.02 1.92ZM350.95 341.67c0 1-.95 1.92-2.02 1.92a1.97 1.97 0 0 1-2.02-1.92c0-1.12.95-1.93 2.02-1.93 1.17 0 2.02.81 2.02 1.93ZM350.95 352.2c0 1.11-.95 1.92-2.02 1.92a1.97 1.97 0 0 1-2.02-1.92c0-1.11.95-1.92 2.02-1.92 1.17 0 2.02.9 2.02 1.92ZM350.95 362.89c0 1.11-.95 1.92-2.02 1.92a1.97 1.97 0 0 1-2.02-1.92c0-1.11.95-1.92 2.02-1.92 1.17 0 2.02.9 2.02 1.92ZM350.95 373.58c0 1.11-.95 1.92-2.02 1.92a1.97 1.97 0 0 1-2.02-1.92c0-1.11.95-1.92 2.02-1.92 1.17 0 2.02.8 2.02 1.92ZM350.95 384.12c0 1.1-.95 1.92-2.02 1.92a1.97 1.97 0 0 1-2.02-1.93c0-1.1.95-1.92 2.02-1.92 1.17 0 2.02.91 2.02 1.93ZM350.95 394.8c0 1.02-.95 1.93-2.02 1.93a1.97 1.97 0 0 1-2.02-1.93c0-1.1.95-1.92 2.02-1.92 1.17 0 2.02.81 2.02 1.93ZM350.95 405.34c0 1.11-.95 1.92-2.02 1.92a1.97 1.97 0 0 1-2.02-1.92c0-1.11.95-1.92 2.02-1.92 1.17 0 2.02.9 2.02 1.92ZM350.95 416.03c0 1.01-.95 1.92-2.02 1.92a1.97 1.97 0 0 1-2.02-1.92c0-1.11.95-1.92 2.02-1.92 1.17 0 2.02.8 2.02 1.92ZM350.95 426.56c0 1.01-.95 1.93-2.02 1.93a1.97 1.97 0 0 1-2.02-1.93c0-1.1.95-1.92 2.02-1.92 1.17 0 2.02.91 2.02 1.92ZM350.95 532.84c0 1.11-.95 1.92-2.02 1.92a1.97 1.97 0 0 1-2.02-1.92c0-1.11.95-1.92 2.02-1.92 1.17 0 2.02.8 2.02 1.92ZM350.95 543.38c0 1-.95 1.92-2.02 1.92a1.97 1.97 0 0 1-2.02-1.92c0-1.12.95-1.93 2.02-1.93 1.17 0 2.02.91 2.02 1.92ZM350.95 554.07c0 1.1-.95 1.92-2.02 1.92a1.97 1.97 0 0 1-2.02-1.92c0-1.12.95-1.93 2.02-1.93 1.17 0 2.02.81 2.02 1.93ZM350.95 564.6c0 1.11-.95 1.92-2.02 1.92a1.97 1.97 0 0 1-2.02-1.92c0-1.11.95-1.92 2.02-1.92 1.17 0 2.02.9 2.02 1.92ZM350.95 575.29c0 1.11-.95 1.92-2.02 1.92a1.97 1.97 0 0 1-2.02-1.92c0-1.11.95-1.92 2.02-1.92 1.17 0 2.02.8 2.02 1.92ZM350.95 585.82c0 1.11-.95 1.92-2.02 1.92a1.97 1.97 0 0 1-2.02-1.92c0-1.1.95-1.92 2.02-1.92 1.17 0 2.02.91 2.02 1.92ZM339.69 65.6c0 1.1-.96 1.92-2.03 1.92a1.97 1.97 0 0 1-2.02-1.93c0-1.1.96-1.92 2.02-1.92 1.18 0 2.03.91 2.03 1.92ZM339.69 76.28c0 1.12-.96 1.93-2.03 1.93a1.97 1.97 0 0 1-2.02-1.93c0-1.1.96-1.92 2.02-1.92 1.18 0 2.03.81 2.03 1.92ZM339.69 86.82c0 1.11-.96 1.92-2.03 1.92a1.97 1.97 0 0 1-2.02-1.92c0-1.01.96-1.92 2.02-1.92 1.18 0 2.03.9 2.03 1.92ZM339.69 108.04c0 1.11-.96 1.92-2.03 1.92a1.97 1.97 0 0 1-2.02-1.92c0-1.11.96-1.92 2.02-1.92 1.18 0 2.03.91 2.03 1.92ZM339.69 118.73c0 1.12-.96 1.92-2.03 1.92a1.97 1.97 0 0 1-2.02-1.92c0-1.1.96-1.92 2.02-1.92 1.18 0 2.03.81 2.03 1.92ZM339.69 129.27c0 1.1-.96 1.92-2.03 1.92a1.97 1.97 0 0 1-2.02-1.92c0-1.12.96-1.93 2.02-1.93 1.18 0 2.03.92 2.03 1.93ZM339.69 139.96c0 1-.96 1.92-2.03 1.92a1.97 1.97 0 0 1-2.02-1.92c0-1.12.96-1.92 2.02-1.92 1.18 0 2.03.8 2.03 1.92ZM339.69 161.18c0 1.01-.96 1.92-2.03 1.92a1.97 1.97 0 0 1-2.02-1.92c0-1.11.96-1.92 2.02-1.92 1.18 0 2.03.8 2.03 1.92ZM339.69 171.72c0 1.1-.96 1.92-2.03 1.92a1.97 1.97 0 0 1-2.02-1.92c0-1.12.96-1.93 2.02-1.93 1.18 0 2.03.91 2.03 1.93ZM339.69 182.4c0 1.12-.96 1.93-2.03 1.93a1.97 1.97 0 0 1-2.02-1.92c0-1.12.96-1.92 2.02-1.92 1.18 0 2.03.8 2.03 1.92ZM339.69 192.94c0 1.11-.96 1.92-2.03 1.92a1.97 1.97 0 0 1-2.02-1.92c0-1.11.96-1.92 2.02-1.92 1.18 0 2.03.9 2.03 1.92ZM339.69 203.63c0 1.11-.96 1.92-2.03 1.92a1.97 1.97 0 0 1-2.02-1.92c0-1.11.96-1.92 2.02-1.92 1.18 0 2.03.8 2.03 1.92ZM339.69 214.32c0 1.01-.96 1.92-2.03 1.92a1.97 1.97 0 0 1-2.02-1.92c0-1.11.96-1.92 2.02-1.92 1.18 0 2.03.8 2.03 1.92ZM339.69 224.85c0 1.12-.96 1.93-2.03 1.93a1.97 1.97 0 0 1-2.02-1.93c0-1.1.96-1.92 2.02-1.92 1.18 0 2.03.91 2.03 1.92ZM339.69 235.54c0 1.12-.96 1.93-2.03 1.93a1.97 1.97 0 0 1-2.02-1.93c0-1.1.96-1.92 2.02-1.92 1.18 0 2.03.81 2.03 1.92ZM339.69 246.08c0 1.11-.96 1.92-2.03 1.92a1.97 1.97 0 0 1-2.02-1.92c0-1.11.96-1.92 2.02-1.92 1.18 0 2.03.9 2.03 1.92ZM339.69 299.22c0 1.11-.96 1.92-2.03 1.92a1.97 1.97 0 0 1-2.02-1.92c0-1.01.96-1.92 2.02-1.92 1.18 0 2.03.8 2.03 1.92ZM339.69 309.75c0 1.11-.96 1.92-2.03 1.92a1.97 1.97 0 0 1-2.02-1.92c0-1.11.96-1.92 2.02-1.92 1.18 0 2.03.91 2.03 1.92ZM339.69 341.67c0 1-.96 1.92-2.03 1.92a1.97 1.97 0 0 1-2.02-1.92c0-1.12.96-1.93 2.02-1.93 1.18 0 2.03.81 2.03 1.93ZM339.69 352.2c0 1.11-.96 1.92-2.03 1.92a1.97 1.97 0 0 1-2.02-1.92c0-1.11.96-1.92 2.02-1.92 1.18 0 2.03.9 2.03 1.92ZM339.69 362.89c0 1.11-.96 1.92-2.03 1.92a1.97 1.97 0 0 1-2.02-1.92c0-1.11.96-1.92 2.02-1.92 1.18 0 2.03.9 2.03 1.92ZM339.69 373.58c0 1.11-.96 1.92-2.03 1.92a1.97 1.97 0 0 1-2.02-1.92c0-1.11.96-1.92 2.02-1.92 1.18 0 2.03.8 2.03 1.92ZM339.69 384.12c0 1.1-.96 1.92-2.03 1.92a1.97 1.97 0 0 1-2.02-1.93c0-1.1.96-1.92 2.02-1.92 1.18 0 2.03.91 2.03 1.93ZM339.69 394.8c0 1.02-.96 1.93-2.03 1.93a1.97 1.97 0 0 1-2.02-1.93c0-1.1.96-1.92 2.02-1.92 1.18 0 2.03.81 2.03 1.93ZM339.69 405.34c0 1.11-.96 1.92-2.03 1.92a1.97 1.97 0 0 1-2.02-1.92c0-1.11.96-1.92 2.02-1.92 1.18 0 2.03.9 2.03 1.92ZM339.69 416.03c0 1.01-.96 1.92-2.03 1.92a1.97 1.97 0 0 1-2.02-1.92c0-1.11.96-1.92 2.02-1.92 1.18 0 2.03.8 2.03 1.92ZM328.6 44.37c0 1.11-.97 1.92-2.03 1.92a1.97 1.97 0 0 1-2.03-1.92c0-1.11.96-1.92 2.03-1.92 1.06 0 2.02.9 2.02 1.92ZM328.6 55.06c0 1.11-.97 1.92-2.03 1.92a1.97 1.97 0 0 1-2.03-1.92c0-1.11.96-1.92 2.03-1.92 1.06 0 2.02.8 2.02 1.92ZM328.6 65.6c0 1.1-.97 1.92-2.03 1.92a1.97 1.97 0 0 1-2.03-1.93c0-1.1.96-1.92 2.03-1.92 1.06 0 2.02.91 2.02 1.92ZM328.6 76.28c0 1.12-.97 1.93-2.03 1.93a1.97 1.97 0 0 1-2.03-1.93c0-1.1.96-1.92 2.03-1.92 1.06 0 2.02.81 2.02 1.92ZM328.6 182.4c0 1.12-.97 1.93-2.03 1.93a1.97 1.97 0 0 1-2.03-1.92c0-1.12.96-1.92 2.03-1.92 1.06 0 2.02.8 2.02 1.92ZM328.6 192.94c0 1.11-.97 1.92-2.03 1.92a1.97 1.97 0 0 1-2.03-1.92c0-1.11.96-1.92 2.03-1.92 1.06 0 2.02.9 2.02 1.92ZM328.6 203.63c0 1.11-.97 1.92-2.03 1.92a1.97 1.97 0 0 1-2.03-1.92c0-1.11.96-1.92 2.03-1.92 1.06 0 2.02.8 2.02 1.92ZM328.6 214.32c0 1.01-.97 1.92-2.03 1.92a1.97 1.97 0 0 1-2.03-1.92c0-1.11.96-1.92 2.03-1.92 1.06 0 2.02.8 2.02 1.92ZM328.6 224.85c0 1.12-.97 1.93-2.03 1.93a1.97 1.97 0 0 1-2.03-1.93c0-1.1.96-1.92 2.03-1.92 1.06 0 2.02.91 2.02 1.92ZM328.6 235.54c0 1.12-.97 1.93-2.03 1.93a1.97 1.97 0 0 1-2.03-1.93c0-1.1.96-1.92 2.03-1.92 1.06 0 2.02.81 2.02 1.92ZM328.6 246.08c0 1.11-.97 1.92-2.03 1.92a1.97 1.97 0 0 1-2.03-1.92c0-1.11.96-1.92 2.03-1.92 1.06 0 2.02.9 2.02 1.92ZM328.6 256.77c0 1.11-.97 1.92-2.03 1.92a1.97 1.97 0 0 1-2.03-1.92c0-1.11.96-1.92 2.03-1.92 1.06 0 2.02.8 2.02 1.92ZM328.6 267.3c0 1.01-.97 1.92-2.03 1.92a1.97 1.97 0 0 1-2.03-1.92c0-1.1.96-1.92 2.03-1.92 1.06 0 2.02.91 2.02 1.92ZM328.6 278c0 1.1-.97 1.92-2.03 1.92a1.97 1.97 0 0 1-2.03-1.93c0-1 .96-1.92 2.03-1.92 1.06 0 2.02.81 2.02 1.92ZM328.6 299.22c0 1.11-.97 1.92-2.03 1.92a1.97 1.97 0 0 1-2.03-1.92c0-1.01.96-1.92 2.03-1.92 1.06 0 2.02.8 2.02 1.92ZM328.6 341.67c0 1-.97 1.92-2.03 1.92a1.97 1.97 0 0 1-2.03-1.92c0-1.12.96-1.93 2.03-1.93 1.06 0 2.02.81 2.02 1.93ZM328.6 352.2c0 1.11-.97 1.92-2.03 1.92a1.97 1.97 0 0 1-2.03-1.92c0-1.11.96-1.92 2.03-1.92 1.06 0 2.02.9 2.02 1.92ZM328.6 373.58c0 1.11-.97 1.92-2.03 1.92a1.97 1.97 0 0 1-2.03-1.92c0-1.11.96-1.92 2.03-1.92 1.06 0 2.02.8 2.02 1.92ZM328.6 384.12c0 1.1-.97 1.92-2.03 1.92a1.97 1.97 0 0 1-2.03-1.93c0-1.1.96-1.92 2.03-1.92 1.06 0 2.02.91 2.02 1.93ZM328.6 394.8c0 1.02-.97 1.93-2.03 1.93a1.97 1.97 0 0 1-2.03-1.93c0-1.1.96-1.92 2.03-1.92 1.06 0 2.02.81 2.02 1.93ZM317.32 44.37c0 1.11-.95 1.92-2.02 1.92a1.97 1.97 0 0 1-2.03-1.92c0-1.11.96-1.92 2.03-1.92 1.17 0 2.02.9 2.02 1.92ZM317.32 55.06c0 1.11-.95 1.92-2.02 1.92a1.97 1.97 0 0 1-2.03-1.92c0-1.11.96-1.92 2.03-1.92 1.17 0 2.02.8 2.02 1.92ZM317.32 65.6c0 1.1-.95 1.92-2.02 1.92a1.97 1.97 0 0 1-2.03-1.93c0-1.1.96-1.92 2.03-1.92 1.17 0 2.02.91 2.02 1.92ZM317.32 76.28c0 1.12-.95 1.93-2.02 1.93a1.97 1.97 0 0 1-2.03-1.93c0-1.1.96-1.92 2.03-1.92 1.17 0 2.02.81 2.02 1.92ZM317.32 86.82c0 1.11-.95 1.92-2.02 1.92a1.97 1.97 0 0 1-2.03-1.92c0-1.01.96-1.92 2.03-1.92 1.17 0 2.02.9 2.02 1.92ZM317.32 97.5c0 1.12-.95 1.93-2.02 1.93a1.97 1.97 0 0 1-2.03-1.92c0-1.11.96-1.92 2.03-1.92 1.17 0 2.02.8 2.02 1.92ZM317.32 108.04c0 1.11-.95 1.92-2.02 1.92a1.97 1.97 0 0 1-2.03-1.92c0-1.11.96-1.92 2.03-1.92 1.17 0 2.02.91 2.02 1.92ZM317.32 118.73c0 1.12-.95 1.92-2.02 1.92a1.97 1.97 0 0 1-2.03-1.92c0-1.1.96-1.92 2.03-1.92 1.17 0 2.02.81 2.02 1.92ZM317.32 161.18c0 1.01-.95 1.92-2.02 1.92a1.97 1.97 0 0 1-2.03-1.92c0-1.11.96-1.92 2.03-1.92 1.17 0 2.02.8 2.02 1.92ZM317.32 171.72c0 1.1-.95 1.92-2.02 1.92a1.97 1.97 0 0 1-2.03-1.92c0-1.12.96-1.93 2.03-1.93 1.17 0 2.02.91 2.02 1.93ZM317.32 182.4c0 1.12-.95 1.93-2.02 1.93a1.97 1.97 0 0 1-2.03-1.92c0-1.12.96-1.92 2.03-1.92 1.17 0 2.02.8 2.02 1.92ZM317.32 192.94c0 1.11-.95 1.92-2.02 1.92a1.97 1.97 0 0 1-2.03-1.92c0-1.11.96-1.92 2.03-1.92 1.17 0 2.02.9 2.02 1.92ZM317.32 203.63c0 1.11-.95 1.92-2.02 1.92a1.97 1.97 0 0 1-2.03-1.92c0-1.11.96-1.92 2.03-1.92 1.17 0 2.02.8 2.02 1.92ZM317.32 214.32c0 1.01-.95 1.92-2.02 1.92a1.97 1.97 0 0 1-2.03-1.92c0-1.11.96-1.92 2.03-1.92 1.17 0 2.02.8 2.02 1.92ZM317.32 224.85c0 1.12-.95 1.93-2.02 1.93a1.97 1.97 0 0 1-2.03-1.93c0-1.1.96-1.92 2.03-1.92 1.17 0 2.02.91 2.02 1.92ZM317.32 235.54c0 1.12-.95 1.93-2.02 1.93a1.97 1.97 0 0 1-2.03-1.93c0-1.1.96-1.92 2.03-1.92 1.17 0 2.02.81 2.02 1.92ZM317.32 246.08c0 1.11-.95 1.92-2.02 1.92a1.97 1.97 0 0 1-2.03-1.92c0-1.11.96-1.92 2.03-1.92 1.17 0 2.02.9 2.02 1.92ZM317.32 256.77c0 1.11-.95 1.92-2.02 1.92a1.97 1.97 0 0 1-2.03-1.92c0-1.11.96-1.92 2.03-1.92 1.17 0 2.02.8 2.02 1.92ZM317.32 267.3c0 1.01-.95 1.92-2.02 1.92a1.97 1.97 0 0 1-2.03-1.92c0-1.1.96-1.92 2.03-1.92 1.17 0 2.02.91 2.02 1.92ZM317.32 320.44c0 1.11-.95 1.92-2.02 1.92a1.97 1.97 0 0 1-2.03-1.92c0-1.11.96-1.92 2.03-1.92 1.17 0 2.02.81 2.02 1.92ZM317.32 330.98c0 1.1-.95 1.92-2.02 1.92a1.97 1.97 0 0 1-2.03-1.92c0-1.12.96-1.93 2.03-1.93 1.17 0 2.02.91 2.02 1.93ZM317.32 341.67c0 1-.95 1.92-2.02 1.92a1.97 1.97 0 0 1-2.03-1.92c0-1.12.96-1.93 2.03-1.93 1.17 0 2.02.81 2.02 1.93ZM306.23 44.37c0 1.11-.96 1.92-2.03 1.92-1.06 0-2.02-.9-2.02-1.92 0-1.11.96-1.92 2.02-1.92 1.07 0 2.03.9 2.03 1.92ZM306.23 55.06c0 1.11-.96 1.92-2.03 1.92-1.06 0-2.02-.9-2.02-1.92 0-1.11.96-1.92 2.02-1.92 1.07 0 2.03.8 2.03 1.92ZM306.23 65.6c0 1.1-.96 1.92-2.03 1.92-1.06 0-2.02-.91-2.02-1.93 0-1.1.96-1.92 2.02-1.92 1.07 0 2.03.91 2.03 1.92ZM306.23 76.28c0 1.12-.96 1.93-2.03 1.93-1.06 0-2.02-.91-2.02-1.93 0-1.1.96-1.92 2.02-1.92 1.07 0 2.03.81 2.03 1.92ZM306.23 86.82c0 1.11-.96 1.92-2.03 1.92-1.06 0-2.02-.91-2.02-1.92 0-1.01.96-1.92 2.02-1.92 1.07 0 2.03.9 2.03 1.92ZM306.23 97.5c0 1.12-.96 1.93-2.03 1.93-1.06 0-2.02-.91-2.02-1.92 0-1.11.96-1.92 2.02-1.92 1.07 0 2.03.8 2.03 1.92ZM306.23 108.04c0 1.11-.96 1.92-2.03 1.92-1.06 0-2.02-.9-2.02-1.92 0-1.11.96-1.92 2.02-1.92 1.07 0 2.03.91 2.03 1.92ZM306.23 161.18c0 1.01-.96 1.92-2.03 1.92-1.06 0-2.02-.9-2.02-1.92 0-1.11.96-1.92 2.02-1.92 1.07 0 2.03.8 2.03 1.92ZM306.23 171.72c0 1.1-.96 1.92-2.03 1.92-1.06 0-2.02-.91-2.02-1.92 0-1.12.96-1.93 2.02-1.93 1.07 0 2.03.91 2.03 1.93ZM304.2 184.33c1.12 0 2.03-.86 2.03-1.92s-.91-1.92-2.03-1.92c-1.12 0-2.02.85-2.02 1.92 0 1.06.9 1.92 2.02 1.92ZM306.23 192.94c0 1.11-.96 1.92-2.03 1.92-1.06 0-2.02-.9-2.02-1.92 0-1.11.96-1.92 2.02-1.92 1.07 0 2.03.9 2.03 1.92ZM306.23 203.63c0 1.11-.96 1.92-2.03 1.92-1.06 0-2.02-.9-2.02-1.92 0-1.11.96-1.92 2.02-1.92 1.07 0 2.03.8 2.03 1.92ZM306.23 214.32c0 1.01-.96 1.92-2.03 1.92-1.06 0-2.02-.9-2.02-1.92 0-1.11.96-1.92 2.02-1.92 1.07 0 2.03.8 2.03 1.92ZM306.23 224.85c0 1.12-.96 1.93-2.03 1.93-1.06 0-2.02-.91-2.02-1.93 0-1.1.96-1.92 2.02-1.92 1.07 0 2.03.91 2.03 1.92ZM306.23 235.54c0 1.12-.96 1.93-2.03 1.93-1.06 0-2.02-.91-2.02-1.93 0-1.1.96-1.92 2.02-1.92 1.07 0 2.03.81 2.03 1.92ZM306.23 246.08c0 1.11-.96 1.92-2.03 1.92-1.06 0-2.02-.91-2.02-1.92 0-1.11.96-1.92 2.02-1.92 1.07 0 2.03.9 2.03 1.92ZM306.23 256.77c0 1.11-.96 1.92-2.03 1.92-1.06 0-2.02-.9-2.02-1.92 0-1.11.96-1.92 2.02-1.92 1.07 0 2.03.8 2.03 1.92ZM306.23 267.3c0 1.01-.96 1.92-2.03 1.92-1.06 0-2.02-.9-2.02-1.92 0-1.1.96-1.92 2.02-1.92 1.07 0 2.03.91 2.03 1.92ZM306.23 299.22c0 1.11-.96 1.92-2.03 1.92-1.06 0-2.02-.91-2.02-1.92 0-1.01.96-1.92 2.02-1.92 1.07 0 2.03.8 2.03 1.92ZM306.23 320.44c0 1.11-.96 1.92-2.03 1.92-1.06 0-2.02-.9-2.02-1.92 0-1.11.96-1.92 2.02-1.92 1.07 0 2.03.81 2.03 1.92ZM306.23 330.98c0 1.1-.96 1.92-2.03 1.92-1.06 0-2.02-.91-2.02-1.92 0-1.12.96-1.93 2.02-1.93 1.07 0 2.03.91 2.03 1.93ZM306.23 341.67c0 1-.96 1.92-2.03 1.92-1.06 0-2.02-.91-2.02-1.92 0-1.12.96-1.93 2.02-1.93 1.07 0 2.03.81 2.03 1.93ZM294.96 33.68c0 1.11-.96 1.92-2.03 1.92a1.97 1.97 0 0 1-2.02-1.92c0-1.11.96-1.92 2.02-1.92 1.18 0 2.03.9 2.03 1.92ZM294.96 44.37c0 1.11-.96 1.92-2.03 1.92a1.97 1.97 0 0 1-2.02-1.92c0-1.11.96-1.92 2.02-1.92 1.18 0 2.03.9 2.03 1.92ZM294.96 55.06c0 1.11-.96 1.92-2.03 1.92a1.97 1.97 0 0 1-2.02-1.92c0-1.11.96-1.92 2.02-1.92 1.18 0 2.03.8 2.03 1.92ZM294.96 65.6c0 1.1-.96 1.92-2.03 1.92a1.97 1.97 0 0 1-2.02-1.93c0-1.1.96-1.92 2.02-1.92 1.18 0 2.03.91 2.03 1.92ZM294.96 86.82c0 1.11-.96 1.92-2.03 1.92a1.97 1.97 0 0 1-2.02-1.92c0-1.01.96-1.92 2.02-1.92 1.18 0 2.03.9 2.03 1.92ZM294.96 97.5c0 1.12-.96 1.93-2.03 1.93a1.97 1.97 0 0 1-2.02-1.92c0-1.11.96-1.92 2.02-1.92 1.18 0 2.03.8 2.03 1.92ZM294.96 108.04c0 1.11-.96 1.92-2.03 1.92a1.97 1.97 0 0 1-2.02-1.92c0-1.11.96-1.92 2.02-1.92 1.18 0 2.03.91 2.03 1.92ZM294.96 150.5c0 1.1-.96 1.91-2.03 1.91a1.97 1.97 0 0 1-2.02-1.92c0-1.11.96-1.92 2.02-1.92 1.18 0 2.03.91 2.03 1.92ZM294.96 161.18c0 1.01-.96 1.92-2.03 1.92a1.97 1.97 0 0 1-2.02-1.92c0-1.11.96-1.92 2.02-1.92 1.18 0 2.03.8 2.03 1.92ZM294.96 171.72c0 1.1-.96 1.92-2.03 1.92a1.97 1.97 0 0 1-2.02-1.92c0-1.12.96-1.93 2.02-1.93 1.18 0 2.03.91 2.03 1.93ZM294.96 182.4c0 1.12-.96 1.93-2.03 1.93a1.97 1.97 0 0 1-2.02-1.92c0-1.12.96-1.92 2.02-1.92 1.18 0 2.03.8 2.03 1.92ZM294.96 192.94c0 1.11-.96 1.92-2.03 1.92a1.97 1.97 0 0 1-2.02-1.92c0-1.11.96-1.92 2.02-1.92 1.18 0 2.03.9 2.03 1.92ZM294.96 203.63c0 1.11-.96 1.92-2.03 1.92a1.97 1.97 0 0 1-2.02-1.92c0-1.11.96-1.92 2.02-1.92 1.18 0 2.03.8 2.03 1.92ZM294.96 214.32c0 1.01-.96 1.92-2.03 1.92a1.97 1.97 0 0 1-2.02-1.92c0-1.11.96-1.92 2.02-1.92 1.18 0 2.03.8 2.03 1.92ZM294.96 224.85c0 1.12-.96 1.93-2.03 1.93a1.97 1.97 0 0 1-2.02-1.93c0-1.1.96-1.92 2.02-1.92 1.18 0 2.03.91 2.03 1.92ZM294.96 235.54c0 1.12-.96 1.93-2.03 1.93a1.97 1.97 0 0 1-2.02-1.93c0-1.1.96-1.92 2.02-1.92 1.18 0 2.03.81 2.03 1.92ZM294.96 246.08c0 1.11-.96 1.92-2.03 1.92a1.97 1.97 0 0 1-2.02-1.92c0-1.11.96-1.92 2.02-1.92 1.18 0 2.03.9 2.03 1.92ZM294.96 256.77c0 1.11-.96 1.92-2.03 1.92a1.97 1.97 0 0 1-2.02-1.92c0-1.11.96-1.92 2.02-1.92 1.18 0 2.03.8 2.03 1.92ZM294.96 267.3c0 1.01-.96 1.92-2.03 1.92a1.97 1.97 0 0 1-2.02-1.92c0-1.1.96-1.92 2.02-1.92 1.18 0 2.03.91 2.03 1.92ZM294.96 299.22c0 1.11-.96 1.92-2.03 1.92a1.97 1.97 0 0 1-2.02-1.92c0-1.01.96-1.92 2.02-1.92 1.18 0 2.03.8 2.03 1.92ZM294.96 309.75c0 1.11-.96 1.92-2.03 1.92a1.97 1.97 0 0 1-2.02-1.92c0-1.11.96-1.92 2.02-1.92 1.18 0 2.03.91 2.03 1.92ZM294.96 320.44c0 1.11-.96 1.92-2.03 1.92a1.97 1.97 0 0 1-2.02-1.92c0-1.11.96-1.92 2.02-1.92 1.18 0 2.03.81 2.03 1.92ZM294.96 330.98c0 1.1-.96 1.92-2.03 1.92a1.97 1.97 0 0 1-2.02-1.92c0-1.12.96-1.93 2.02-1.93 1.18 0 2.03.91 2.03 1.93ZM283.86 33.68c0 1.11-.96 1.92-2.02 1.92a1.97 1.97 0 0 1-2.03-1.92c0-1.11.96-1.92 2.03-1.92 1.06 0 2.02.9 2.02 1.92ZM283.86 55.06c0 1.11-.96 1.92-2.02 1.92a1.97 1.97 0 0 1-2.03-1.92c0-1.11.96-1.92 2.03-1.92 1.06 0 2.02.8 2.02 1.92ZM283.86 76.28c0 1.12-.96 1.93-2.02 1.93a1.97 1.97 0 0 1-2.03-1.93c0-1.1.96-1.92 2.03-1.92 1.06 0 2.02.81 2.02 1.92ZM283.86 86.82c0 1.11-.96 1.92-2.02 1.92a1.97 1.97 0 0 1-2.03-1.92c0-1.01.96-1.92 2.03-1.92 1.06 0 2.02.9 2.02 1.92ZM283.86 97.5c0 1.12-.96 1.93-2.02 1.93a1.97 1.97 0 0 1-2.03-1.92c0-1.11.96-1.92 2.03-1.92 1.06 0 2.02.8 2.02 1.92ZM283.86 108.04c0 1.11-.96 1.92-2.02 1.92a1.97 1.97 0 0 1-2.03-1.92c0-1.11.96-1.92 2.03-1.92 1.06 0 2.02.91 2.02 1.92ZM283.86 118.73c0 1.12-.96 1.92-2.02 1.92a1.97 1.97 0 0 1-2.03-1.92c0-1.1.96-1.92 2.03-1.92 1.06 0 2.02.81 2.02 1.92ZM283.86 139.96c0 1-.96 1.92-2.02 1.92a1.97 1.97 0 0 1-2.03-1.92c0-1.12.96-1.92 2.03-1.92 1.06 0 2.02.8 2.02 1.92ZM283.86 150.5c0 1.1-.96 1.91-2.02 1.91a1.97 1.97 0 0 1-2.03-1.92c0-1.11.96-1.92 2.03-1.92 1.06 0 2.02.91 2.02 1.92ZM283.86 161.18c0 1.01-.96 1.92-2.02 1.92a1.97 1.97 0 0 1-2.03-1.92c0-1.11.96-1.92 2.03-1.92 1.06 0 2.02.8 2.02 1.92ZM283.86 171.72c0 1.1-.96 1.92-2.02 1.92a1.97 1.97 0 0 1-2.03-1.92c0-1.12.96-1.93 2.03-1.93 1.06 0 2.02.91 2.02 1.93ZM283.86 182.4c0 1.12-.96 1.93-2.02 1.93a1.97 1.97 0 0 1-2.03-1.92c0-1.12.96-1.92 2.03-1.92 1.06 0 2.02.8 2.02 1.92ZM283.86 192.94c0 1.11-.96 1.92-2.02 1.92a1.97 1.97 0 0 1-2.03-1.92c0-1.11.96-1.92 2.03-1.92 1.06 0 2.02.9 2.02 1.92ZM283.86 203.63c0 1.11-.96 1.92-2.02 1.92a1.97 1.97 0 0 1-2.03-1.92c0-1.11.96-1.92 2.03-1.92 1.06 0 2.02.8 2.02 1.92ZM283.86 214.32c0 1.01-.96 1.92-2.02 1.92a1.97 1.97 0 0 1-2.03-1.92c0-1.11.96-1.92 2.03-1.92 1.06 0 2.02.8 2.02 1.92ZM283.86 224.85c0 1.12-.96 1.93-2.02 1.93a1.97 1.97 0 0 1-2.03-1.93c0-1.1.96-1.92 2.03-1.92 1.06 0 2.02.91 2.02 1.92ZM283.86 235.54c0 1.12-.96 1.93-2.02 1.93a1.97 1.97 0 0 1-2.03-1.93c0-1.1.96-1.92 2.03-1.92 1.06 0 2.02.81 2.02 1.92ZM283.86 246.08c0 1.11-.96 1.92-2.02 1.92a1.97 1.97 0 0 1-2.03-1.92c0-1.11.96-1.92 2.03-1.92 1.06 0 2.02.9 2.02 1.92ZM283.86 256.77c0 1.11-.96 1.92-2.02 1.92a1.97 1.97 0 0 1-2.03-1.92c0-1.11.96-1.92 2.03-1.92 1.06 0 2.02.8 2.02 1.92ZM283.86 267.3c0 1.01-.96 1.92-2.02 1.92a1.97 1.97 0 0 1-2.03-1.92c0-1.1.96-1.92 2.03-1.92 1.06 0 2.02.91 2.02 1.92ZM283.86 309.75c0 1.11-.96 1.92-2.02 1.92a1.97 1.97 0 0 1-2.03-1.92c0-1.11.96-1.92 2.03-1.92 1.06 0 2.02.91 2.02 1.92ZM283.86 320.44c0 1.11-.96 1.92-2.02 1.92a1.97 1.97 0 0 1-2.03-1.92c0-1.11.96-1.92 2.03-1.92 1.06 0 2.02.81 2.02 1.92ZM272.6 23.15c0 1.1-.97 1.92-2.03 1.92-1.07 0-2.02-.91-2.02-1.92 0-1.12.95-1.93 2.02-1.93 1.17 0 2.02.81 2.02 1.93ZM272.6 55.06c0 1.11-.97 1.92-2.03 1.92-1.07 0-2.02-.9-2.02-1.92 0-1.11.95-1.92 2.02-1.92 1.17 0 2.02.8 2.02 1.92ZM272.6 65.6c0 1.1-.97 1.92-2.03 1.92-1.07 0-2.02-.91-2.02-1.93 0-1.1.95-1.92 2.02-1.92 1.17 0 2.02.91 2.02 1.92ZM272.6 76.28c0 1.12-.97 1.93-2.03 1.93-1.07 0-2.02-.91-2.02-1.93 0-1.1.95-1.92 2.02-1.92 1.17 0 2.02.81 2.02 1.92ZM272.6 86.82c0 1.11-.97 1.92-2.03 1.92-1.07 0-2.02-.91-2.02-1.92 0-1.01.95-1.92 2.02-1.92 1.17 0 2.02.9 2.02 1.92ZM272.6 97.5c0 1.12-.97 1.93-2.03 1.93-1.07 0-2.02-.91-2.02-1.92 0-1.11.95-1.92 2.02-1.92 1.17 0 2.02.8 2.02 1.92ZM272.6 108.04c0 1.11-.97 1.92-2.03 1.92-1.07 0-2.02-.9-2.02-1.92 0-1.11.95-1.92 2.02-1.92 1.17 0 2.02.91 2.02 1.92ZM272.6 118.73c0 1.12-.97 1.92-2.03 1.92-1.07 0-2.02-.9-2.02-1.92 0-1.1.95-1.92 2.02-1.92 1.17 0 2.02.81 2.02 1.92ZM272.6 129.27c0 1.1-.97 1.92-2.03 1.92-1.07 0-2.02-.91-2.02-1.92 0-1.12.95-1.93 2.02-1.93 1.17 0 2.02.92 2.02 1.93ZM272.6 139.96c0 1-.97 1.92-2.03 1.92-1.07 0-2.02-.91-2.02-1.92 0-1.12.95-1.92 2.02-1.92 1.17 0 2.02.8 2.02 1.92ZM272.6 150.5c0 1.1-.97 1.91-2.03 1.91-1.07 0-2.02-.9-2.02-1.92 0-1.11.95-1.92 2.02-1.92 1.17 0 2.02.91 2.02 1.92ZM272.6 161.18c0 1.01-.97 1.92-2.03 1.92-1.07 0-2.02-.9-2.02-1.92 0-1.11.95-1.92 2.02-1.92 1.17 0 2.02.8 2.02 1.92ZM272.6 171.72c0 1.1-.97 1.92-2.03 1.92-1.07 0-2.02-.91-2.02-1.92 0-1.12.95-1.93 2.02-1.93 1.17 0 2.02.91 2.02 1.93ZM272.6 182.4c0 1.12-.97 1.93-2.03 1.93-1.07 0-2.02-.91-2.02-1.92 0-1.12.95-1.92 2.02-1.92 1.17 0 2.02.8 2.02 1.92ZM272.6 192.94c0 1.11-.97 1.92-2.03 1.92-1.07 0-2.02-.9-2.02-1.92 0-1.11.95-1.92 2.02-1.92 1.17 0 2.02.9 2.02 1.92ZM272.6 203.63c0 1.11-.97 1.92-2.03 1.92-1.07 0-2.02-.9-2.02-1.92 0-1.11.95-1.92 2.02-1.92 1.17 0 2.02.8 2.02 1.92ZM272.6 214.32c0 1.01-.97 1.92-2.03 1.92-1.07 0-2.02-.9-2.02-1.92 0-1.11.95-1.92 2.02-1.92 1.17 0 2.02.8 2.02 1.92ZM272.6 224.85c0 1.12-.97 1.93-2.03 1.93-1.07 0-2.02-.91-2.02-1.93 0-1.1.95-1.92 2.02-1.92 1.17 0 2.02.91 2.02 1.92ZM272.6 235.54c0 1.12-.97 1.93-2.03 1.93-1.07 0-2.02-.91-2.02-1.93 0-1.1.95-1.92 2.02-1.92 1.17 0 2.02.81 2.02 1.92ZM272.6 246.08c0 1.11-.97 1.92-2.03 1.92-1.07 0-2.02-.91-2.02-1.92 0-1.11.95-1.92 2.02-1.92 1.17 0 2.02.9 2.02 1.92ZM272.6 256.77c0 1.11-.97 1.92-2.03 1.92-1.07 0-2.02-.9-2.02-1.92 0-1.11.95-1.92 2.02-1.92 1.17 0 2.02.8 2.02 1.92ZM272.6 267.3c0 1.01-.97 1.92-2.03 1.92-1.07 0-2.02-.9-2.02-1.92 0-1.1.95-1.92 2.02-1.92 1.17 0 2.02.91 2.02 1.92ZM272.6 309.75c0 1.11-.97 1.92-2.03 1.92-1.07 0-2.02-.9-2.02-1.92 0-1.11.95-1.92 2.02-1.92 1.17 0 2.02.91 2.02 1.92ZM272.6 320.44c0 1.11-.97 1.92-2.03 1.92-1.07 0-2.02-.9-2.02-1.92 0-1.11.95-1.92 2.02-1.92 1.17 0 2.02.81 2.02 1.92ZM261.5 12.45c0 1.12-.96 1.93-2.03 1.93a1.97 1.97 0 0 1-2.02-1.93c0-1.1.95-1.92 2.02-1.92s2.02.91 2.02 1.92ZM261.5 33.68c0 1.11-.96 1.92-2.03 1.92a1.97 1.97 0 0 1-2.02-1.92c0-1.11.95-1.92 2.02-1.92s2.02.9 2.02 1.92ZM261.5 55.06c0 1.11-.96 1.92-2.03 1.92a1.97 1.97 0 0 1-2.02-1.92c0-1.11.95-1.92 2.02-1.92s2.02.8 2.02 1.92ZM261.5 65.6c0 1.1-.96 1.92-2.03 1.92a1.97 1.97 0 0 1-2.02-1.93c0-1.1.95-1.92 2.02-1.92s2.02.91 2.02 1.92ZM261.5 76.28c0 1.12-.96 1.93-2.03 1.93a1.97 1.97 0 0 1-2.02-1.93c0-1.1.95-1.92 2.02-1.92s2.02.81 2.02 1.92ZM261.5 86.82c0 1.11-.96 1.92-2.03 1.92a1.97 1.97 0 0 1-2.02-1.92c0-1.01.95-1.92 2.02-1.92s2.02.9 2.02 1.92ZM261.5 97.5c0 1.12-.96 1.93-2.03 1.93a1.97 1.97 0 0 1-2.02-1.92c0-1.11.95-1.92 2.02-1.92s2.02.8 2.02 1.92ZM261.5 108.04c0 1.11-.96 1.92-2.03 1.92a1.97 1.97 0 0 1-2.02-1.92c0-1.11.95-1.92 2.02-1.92s2.02.91 2.02 1.92ZM261.5 118.73c0 1.12-.96 1.92-2.03 1.92a1.97 1.97 0 0 1-2.02-1.92c0-1.1.95-1.92 2.02-1.92s2.02.81 2.02 1.92ZM261.5 129.27c0 1.1-.96 1.92-2.03 1.92a1.97 1.97 0 0 1-2.02-1.92c0-1.12.95-1.93 2.02-1.93s2.02.92 2.02 1.93ZM261.5 139.96c0 1-.96 1.92-2.03 1.92a1.97 1.97 0 0 1-2.02-1.92c0-1.12.95-1.92 2.02-1.92s2.02.8 2.02 1.92ZM261.5 150.5c0 1.1-.96 1.91-2.03 1.91a1.97 1.97 0 0 1-2.02-1.92c0-1.11.95-1.92 2.02-1.92s2.02.91 2.02 1.92ZM261.5 161.18c0 1.01-.96 1.92-2.03 1.92a1.97 1.97 0 0 1-2.02-1.92c0-1.11.95-1.92 2.02-1.92s2.02.8 2.02 1.92ZM261.5 171.72c0 1.1-.96 1.92-2.03 1.92a1.97 1.97 0 0 1-2.02-1.92c0-1.12.95-1.93 2.02-1.93s2.02.91 2.02 1.93ZM261.5 182.4c0 1.12-.96 1.93-2.03 1.93a1.97 1.97 0 0 1-2.02-1.92c0-1.12.95-1.92 2.02-1.92s2.02.8 2.02 1.92ZM261.5 192.94c0 1.11-.96 1.92-2.03 1.92a1.97 1.97 0 0 1-2.02-1.92c0-1.11.95-1.92 2.02-1.92s2.02.9 2.02 1.92ZM261.5 203.63c0 1.11-.96 1.92-2.03 1.92a1.97 1.97 0 0 1-2.02-1.92c0-1.11.95-1.92 2.02-1.92s2.02.8 2.02 1.92ZM261.5 214.32c0 1.01-.96 1.92-2.03 1.92a1.97 1.97 0 0 1-2.02-1.92c0-1.11.95-1.92 2.02-1.92s2.02.8 2.02 1.92ZM261.5 224.85c0 1.12-.96 1.93-2.03 1.93a1.97 1.97 0 0 1-2.02-1.93c0-1.1.95-1.92 2.02-1.92s2.02.91 2.02 1.92ZM261.5 235.54c0 1.12-.96 1.93-2.03 1.93a1.97 1.97 0 0 1-2.02-1.93c0-1.1.95-1.92 2.02-1.92s2.02.81 2.02 1.92ZM261.5 246.08c0 1.11-.96 1.92-2.03 1.92a1.97 1.97 0 0 1-2.02-1.92c0-1.11.95-1.92 2.02-1.92s2.02.9 2.02 1.92ZM261.5 256.77c0 1.11-.96 1.92-2.03 1.92a1.97 1.97 0 0 1-2.02-1.92c0-1.11.95-1.92 2.02-1.92s2.02.8 2.02 1.92ZM261.5 267.3c0 1.01-.96 1.92-2.03 1.92a1.97 1.97 0 0 1-2.02-1.92c0-1.1.95-1.92 2.02-1.92s2.02.91 2.02 1.92ZM261.5 278c0 1.1-.96 1.92-2.03 1.92a1.97 1.97 0 0 1-2.02-1.93c0-1 .95-1.92 2.02-1.92s2.02.81 2.02 1.92ZM261.5 288.53c0 1.1-.96 1.92-2.03 1.92a1.97 1.97 0 0 1-2.02-1.92c0-1.11.95-1.92 2.02-1.92s2.02.9 2.02 1.92ZM261.5 299.22c0 1.11-.96 1.92-2.03 1.92a1.97 1.97 0 0 1-2.02-1.92c0-1.01.95-1.92 2.02-1.92s2.02.8 2.02 1.92ZM261.5 309.75c0 1.11-.96 1.92-2.03 1.92a1.97 1.97 0 0 1-2.02-1.92c0-1.11.95-1.92 2.02-1.92s2.02.91 2.02 1.92ZM261.5 320.44c0 1.11-.96 1.92-2.03 1.92a1.97 1.97 0 0 1-2.02-1.92c0-1.11.95-1.92 2.02-1.92s2.02.81 2.02 1.92ZM250.23 1.92c0 1.11-.96 1.92-2.02 1.92a1.97 1.97 0 0 1-2.03-1.92c0-1.11.96-1.92 2.03-1.92 1.17 0 2.02.8 2.02 1.92ZM250.23 12.45c0 1.12-.96 1.93-2.02 1.93a1.97 1.97 0 0 1-2.03-1.93c0-1.1.96-1.92 2.03-1.92 1.17 0 2.02.91 2.02 1.92ZM250.23 33.68c0 1.11-.96 1.92-2.02 1.92a1.97 1.97 0 0 1-2.03-1.92c0-1.11.96-1.92 2.03-1.92 1.17 0 2.02.9 2.02 1.92ZM250.23 55.06c0 1.11-.96 1.92-2.02 1.92a1.97 1.97 0 0 1-2.03-1.92c0-1.11.96-1.92 2.03-1.92 1.17 0 2.02.8 2.02 1.92ZM250.23 76.28c0 1.12-.96 1.93-2.02 1.93a1.97 1.97 0 0 1-2.03-1.93c0-1.1.96-1.92 2.03-1.92 1.17 0 2.02.81 2.02 1.92ZM250.23 86.82c0 1.11-.96 1.92-2.02 1.92a1.97 1.97 0 0 1-2.03-1.92c0-1.01.96-1.92 2.03-1.92 1.17 0 2.02.9 2.02 1.92ZM250.23 97.5c0 1.12-.96 1.93-2.02 1.93a1.97 1.97 0 0 1-2.03-1.92c0-1.11.96-1.92 2.03-1.92 1.17 0 2.02.8 2.02 1.92ZM250.23 108.04c0 1.11-.96 1.92-2.02 1.92a1.97 1.97 0 0 1-2.03-1.92c0-1.11.96-1.92 2.03-1.92 1.17 0 2.02.91 2.02 1.92ZM250.23 118.73c0 1.12-.96 1.92-2.02 1.92a1.97 1.97 0 0 1-2.03-1.92c0-1.1.96-1.92 2.03-1.92 1.17 0 2.02.81 2.02 1.92ZM250.23 129.27c0 1.1-.96 1.92-2.02 1.92a1.97 1.97 0 0 1-2.03-1.92c0-1.12.96-1.93 2.03-1.93 1.17 0 2.02.92 2.02 1.93ZM250.23 139.96c0 1-.96 1.92-2.02 1.92a1.97 1.97 0 0 1-2.03-1.92c0-1.12.96-1.92 2.03-1.92 1.17 0 2.02.8 2.02 1.92ZM250.23 150.5c0 1.1-.96 1.91-2.02 1.91a1.97 1.97 0 0 1-2.03-1.92c0-1.11.96-1.92 2.03-1.92 1.17 0 2.02.91 2.02 1.92ZM250.23 161.18c0 1.01-.96 1.92-2.02 1.92a1.97 1.97 0 0 1-2.03-1.92c0-1.11.96-1.92 2.03-1.92 1.17 0 2.02.8 2.02 1.92ZM250.23 171.72c0 1.1-.96 1.92-2.02 1.92a1.97 1.97 0 0 1-2.03-1.92c0-1.12.96-1.93 2.03-1.93 1.17 0 2.02.91 2.02 1.93ZM250.23 182.4c0 1.12-.96 1.93-2.02 1.93a1.97 1.97 0 0 1-2.03-1.92c0-1.12.96-1.92 2.03-1.92 1.17 0 2.02.8 2.02 1.92ZM250.23 192.94c0 1.11-.96 1.92-2.02 1.92a1.97 1.97 0 0 1-2.03-1.92c0-1.11.96-1.92 2.03-1.92 1.17 0 2.02.9 2.02 1.92ZM250.23 203.63c0 1.11-.96 1.92-2.02 1.92a1.97 1.97 0 0 1-2.03-1.92c0-1.11.96-1.92 2.03-1.92 1.17 0 2.02.8 2.02 1.92ZM250.23 214.32c0 1.01-.96 1.92-2.02 1.92a1.97 1.97 0 0 1-2.03-1.92c0-1.11.96-1.92 2.03-1.92 1.17 0 2.02.8 2.02 1.92ZM250.23 224.85c0 1.12-.96 1.93-2.02 1.93a1.97 1.97 0 0 1-2.03-1.93c0-1.1.96-1.92 2.03-1.92 1.17 0 2.02.91 2.02 1.92ZM250.23 235.54c0 1.12-.96 1.93-2.02 1.93a1.97 1.97 0 0 1-2.03-1.93c0-1.1.96-1.92 2.03-1.92 1.17 0 2.02.81 2.02 1.92ZM250.23 246.08c0 1.11-.96 1.92-2.02 1.92a1.97 1.97 0 0 1-2.03-1.92c0-1.11.96-1.92 2.03-1.92 1.17 0 2.02.9 2.02 1.92ZM250.23 256.77c0 1.11-.96 1.92-2.02 1.92a1.97 1.97 0 0 1-2.03-1.92c0-1.11.96-1.92 2.03-1.92 1.17 0 2.02.8 2.02 1.92ZM250.23 267.3c0 1.01-.96 1.92-2.02 1.92a1.97 1.97 0 0 1-2.03-1.92c0-1.1.96-1.92 2.03-1.92 1.17 0 2.02.91 2.02 1.92ZM250.23 278c0 1.1-.96 1.92-2.02 1.92a1.97 1.97 0 0 1-2.03-1.93c0-1 .96-1.92 2.03-1.92 1.17 0 2.02.81 2.02 1.92ZM250.23 288.53c0 1.1-.96 1.92-2.02 1.92a1.97 1.97 0 0 1-2.03-1.92c0-1.11.96-1.92 2.03-1.92 1.17 0 2.02.9 2.02 1.92ZM250.23 299.22c0 1.11-.96 1.92-2.02 1.92a1.97 1.97 0 0 1-2.03-1.92c0-1.01.96-1.92 2.03-1.92 1.17 0 2.02.8 2.02 1.92ZM250.23 309.75c0 1.11-.96 1.92-2.02 1.92a1.97 1.97 0 0 1-2.03-1.92c0-1.11.96-1.92 2.03-1.92 1.17 0 2.02.91 2.02 1.92ZM239.13 12.45c0 1.12-.96 1.93-2.02 1.93a1.97 1.97 0 0 1-2.03-1.93c0-1.1.96-1.92 2.03-1.92 1.06 0 2.02.91 2.02 1.92ZM239.13 23.15c0 1.1-.96 1.92-2.02 1.92a1.97 1.97 0 0 1-2.03-1.92c0-1.12.96-1.93 2.03-1.93 1.06 0 2.02.81 2.02 1.93ZM239.13 33.68c0 1.11-.96 1.92-2.02 1.92a1.97 1.97 0 0 1-2.03-1.92c0-1.11.96-1.92 2.03-1.92 1.06 0 2.02.9 2.02 1.92ZM239.13 55.06c0 1.11-.96 1.92-2.02 1.92a1.97 1.97 0 0 1-2.03-1.92c0-1.11.96-1.92 2.03-1.92 1.06 0 2.02.8 2.02 1.92ZM239.13 65.6c0 1.1-.96 1.92-2.02 1.92a1.97 1.97 0 0 1-2.03-1.93c0-1.1.96-1.92 2.03-1.92 1.06 0 2.02.91 2.02 1.92ZM239.13 76.28c0 1.12-.96 1.93-2.02 1.93a1.97 1.97 0 0 1-2.03-1.93c0-1.1.96-1.92 2.03-1.92 1.06 0 2.02.81 2.02 1.92ZM239.13 86.82c0 1.11-.96 1.92-2.02 1.92a1.97 1.97 0 0 1-2.03-1.92c0-1.01.96-1.92 2.03-1.92 1.06 0 2.02.9 2.02 1.92ZM239.13 97.5c0 1.12-.96 1.93-2.02 1.93a1.97 1.97 0 0 1-2.03-1.92c0-1.11.96-1.92 2.03-1.92 1.06 0 2.02.8 2.02 1.92ZM239.13 108.04c0 1.11-.96 1.92-2.02 1.92a1.97 1.97 0 0 1-2.03-1.92c0-1.11.96-1.92 2.03-1.92 1.06 0 2.02.91 2.02 1.92ZM239.13 118.73c0 1.12-.96 1.92-2.02 1.92a1.97 1.97 0 0 1-2.03-1.92c0-1.1.96-1.92 2.03-1.92 1.06 0 2.02.81 2.02 1.92ZM239.13 129.27c0 1.1-.96 1.92-2.02 1.92a1.97 1.97 0 0 1-2.03-1.92c0-1.12.96-1.93 2.03-1.93 1.06 0 2.02.92 2.02 1.93ZM239.13 139.96c0 1-.96 1.92-2.02 1.92a1.97 1.97 0 0 1-2.03-1.92c0-1.12.96-1.92 2.03-1.92 1.06 0 2.02.8 2.02 1.92ZM239.13 150.5c0 1.1-.96 1.91-2.02 1.91a1.97 1.97 0 0 1-2.03-1.92c0-1.11.96-1.92 2.03-1.92 1.06 0 2.02.91 2.02 1.92ZM239.13 161.18c0 1.01-.96 1.92-2.02 1.92a1.97 1.97 0 0 1-2.03-1.92c0-1.11.96-1.92 2.03-1.92 1.06 0 2.02.8 2.02 1.92ZM239.13 171.72c0 1.1-.96 1.92-2.02 1.92a1.97 1.97 0 0 1-2.03-1.92c0-1.12.96-1.93 2.03-1.93 1.06 0 2.02.91 2.02 1.93ZM239.13 182.4c0 1.12-.96 1.93-2.02 1.93a1.97 1.97 0 0 1-2.03-1.92c0-1.12.96-1.92 2.03-1.92 1.06 0 2.02.8 2.02 1.92ZM239.13 192.94c0 1.11-.96 1.92-2.02 1.92a1.97 1.97 0 0 1-2.03-1.92c0-1.11.96-1.92 2.03-1.92 1.06 0 2.02.9 2.02 1.92ZM239.13 203.63c0 1.11-.96 1.92-2.02 1.92a1.97 1.97 0 0 1-2.03-1.92c0-1.11.96-1.92 2.03-1.92 1.06 0 2.02.8 2.02 1.92ZM239.13 214.32c0 1.01-.96 1.92-2.02 1.92a1.97 1.97 0 0 1-2.03-1.92c0-1.11.96-1.92 2.03-1.92 1.06 0 2.02.8 2.02 1.92ZM239.13 224.85c0 1.12-.96 1.93-2.02 1.93a1.97 1.97 0 0 1-2.03-1.93c0-1.1.96-1.92 2.03-1.92 1.06 0 2.02.91 2.02 1.92ZM239.13 235.54c0 1.12-.96 1.93-2.02 1.93a1.97 1.97 0 0 1-2.03-1.93c0-1.1.96-1.92 2.03-1.92 1.06 0 2.02.81 2.02 1.92ZM239.13 246.08c0 1.11-.96 1.92-2.02 1.92a1.97 1.97 0 0 1-2.03-1.92c0-1.11.96-1.92 2.03-1.92 1.06 0 2.02.9 2.02 1.92ZM239.13 256.77c0 1.11-.96 1.92-2.02 1.92a1.97 1.97 0 0 1-2.03-1.92c0-1.11.96-1.92 2.03-1.92 1.06 0 2.02.8 2.02 1.92ZM239.13 267.3c0 1.01-.96 1.92-2.02 1.92a1.97 1.97 0 0 1-2.03-1.92c0-1.1.96-1.92 2.03-1.92 1.06 0 2.02.91 2.02 1.92ZM239.13 278c0 1.1-.96 1.92-2.02 1.92a1.97 1.97 0 0 1-2.03-1.93c0-1 .96-1.92 2.03-1.92 1.06 0 2.02.81 2.02 1.92ZM239.13 288.53c0 1.1-.96 1.92-2.02 1.92a1.97 1.97 0 0 1-2.03-1.92c0-1.11.96-1.92 2.03-1.92 1.06 0 2.02.9 2.02 1.92ZM239.13 299.22c0 1.11-.96 1.92-2.02 1.92a1.97 1.97 0 0 1-2.03-1.92c0-1.01.96-1.92 2.03-1.92 1.06 0 2.02.8 2.02 1.92ZM239.13 309.75c0 1.11-.96 1.92-2.02 1.92a1.97 1.97 0 0 1-2.03-1.92c0-1.11.96-1.92 2.03-1.92 1.06 0 2.02.91 2.02 1.92ZM227.86 33.68c0 1.11-.96 1.92-2.02 1.92a1.97 1.97 0 0 1-2.03-1.92c0-1.11.96-1.92 2.03-1.92 1.17 0 2.02.9 2.02 1.92ZM227.86 55.06c0 1.11-.96 1.92-2.02 1.92a1.97 1.97 0 0 1-2.03-1.92c0-1.11.96-1.92 2.03-1.92 1.17 0 2.02.8 2.02 1.92ZM227.86 65.6c0 1.1-.96 1.92-2.02 1.92a1.97 1.97 0 0 1-2.03-1.93c0-1.1.96-1.92 2.03-1.92 1.17 0 2.02.91 2.02 1.92ZM227.86 76.28c0 1.12-.96 1.93-2.02 1.93a1.97 1.97 0 0 1-2.03-1.93c0-1.1.96-1.92 2.03-1.92 1.17 0 2.02.81 2.02 1.92ZM227.86 86.82c0 1.11-.96 1.92-2.02 1.92a1.97 1.97 0 0 1-2.03-1.92c0-1.01.96-1.92 2.03-1.92 1.17 0 2.02.9 2.02 1.92ZM227.86 97.5c0 1.12-.96 1.93-2.02 1.93a1.97 1.97 0 0 1-2.03-1.92c0-1.11.96-1.92 2.03-1.92 1.17 0 2.02.8 2.02 1.92ZM227.86 108.04c0 1.11-.96 1.92-2.02 1.92a1.97 1.97 0 0 1-2.03-1.92c0-1.11.96-1.92 2.03-1.92 1.17 0 2.02.91 2.02 1.92ZM227.86 118.73c0 1.12-.96 1.92-2.02 1.92a1.97 1.97 0 0 1-2.03-1.92c0-1.1.96-1.92 2.03-1.92 1.17 0 2.02.81 2.02 1.92ZM227.86 129.27c0 1.1-.96 1.92-2.02 1.92a1.97 1.97 0 0 1-2.03-1.92c0-1.12.96-1.93 2.03-1.93 1.17 0 2.02.92 2.02 1.93ZM227.86 139.96c0 1-.96 1.92-2.02 1.92a1.97 1.97 0 0 1-2.03-1.92c0-1.12.96-1.92 2.03-1.92 1.17 0 2.02.8 2.02 1.92ZM227.86 150.5c0 1.1-.96 1.91-2.02 1.91a1.97 1.97 0 0 1-2.03-1.92c0-1.11.96-1.92 2.03-1.92 1.17 0 2.02.91 2.02 1.92ZM227.86 161.18c0 1.01-.96 1.92-2.02 1.92a1.97 1.97 0 0 1-2.03-1.92c0-1.11.96-1.92 2.03-1.92 1.17 0 2.02.8 2.02 1.92ZM227.86 171.72c0 1.1-.96 1.92-2.02 1.92a1.97 1.97 0 0 1-2.03-1.92c0-1.12.96-1.93 2.03-1.93 1.17 0 2.02.91 2.02 1.93ZM227.86 182.4c0 1.12-.96 1.93-2.02 1.93a1.97 1.97 0 0 1-2.03-1.92c0-1.12.96-1.92 2.03-1.92 1.17 0 2.02.8 2.02 1.92ZM227.86 192.94c0 1.11-.96 1.92-2.02 1.92a1.97 1.97 0 0 1-2.03-1.92c0-1.11.96-1.92 2.03-1.92 1.17 0 2.02.9 2.02 1.92ZM227.86 203.63c0 1.11-.96 1.92-2.02 1.92a1.97 1.97 0 0 1-2.03-1.92c0-1.11.96-1.92 2.03-1.92 1.17 0 2.02.8 2.02 1.92ZM227.86 214.32c0 1.01-.96 1.92-2.02 1.92a1.97 1.97 0 0 1-2.03-1.92c0-1.11.96-1.92 2.03-1.92 1.17 0 2.02.8 2.02 1.92ZM227.86 224.85c0 1.12-.96 1.93-2.02 1.93a1.97 1.97 0 0 1-2.03-1.93c0-1.1.96-1.92 2.03-1.92 1.17 0 2.02.91 2.02 1.92ZM227.86 235.54c0 1.12-.96 1.93-2.02 1.93a1.97 1.97 0 0 1-2.03-1.93c0-1.1.96-1.92 2.03-1.92 1.17 0 2.02.81 2.02 1.92ZM227.86 246.08c0 1.11-.96 1.92-2.02 1.92a1.97 1.97 0 0 1-2.03-1.92c0-1.11.96-1.92 2.03-1.92 1.17 0 2.02.9 2.02 1.92ZM227.86 256.77c0 1.11-.96 1.92-2.02 1.92a1.97 1.97 0 0 1-2.03-1.92c0-1.11.96-1.92 2.03-1.92 1.17 0 2.02.8 2.02 1.92ZM227.86 267.3c0 1.01-.96 1.92-2.02 1.92a1.97 1.97 0 0 1-2.03-1.92c0-1.1.96-1.92 2.03-1.92 1.17 0 2.02.91 2.02 1.92ZM227.86 278c0 1.1-.96 1.92-2.02 1.92a1.97 1.97 0 0 1-2.03-1.93c0-1 .96-1.92 2.03-1.92 1.17 0 2.02.81 2.02 1.92ZM227.86 288.53c0 1.1-.96 1.92-2.02 1.92a1.97 1.97 0 0 1-2.03-1.92c0-1.11.96-1.92 2.03-1.92 1.17 0 2.02.9 2.02 1.92ZM216.77 12.45c0 1.12-.96 1.93-2.03 1.93a1.97 1.97 0 0 1-2.02-1.93c0-1.1.96-1.92 2.02-1.92 1.07 0 2.03.91 2.03 1.92ZM216.77 23.15c0 1.1-.96 1.92-2.03 1.92a1.97 1.97 0 0 1-2.02-1.92c0-1.12.96-1.93 2.02-1.93 1.07 0 2.03.81 2.03 1.93ZM216.77 33.68c0 1.11-.96 1.92-2.03 1.92a1.97 1.97 0 0 1-2.02-1.92c0-1.11.96-1.92 2.02-1.92 1.07 0 2.03.9 2.03 1.92ZM216.77 65.6c0 1.1-.96 1.92-2.03 1.92a1.97 1.97 0 0 1-2.02-1.93c0-1.1.96-1.92 2.02-1.92 1.07 0 2.03.91 2.03 1.92ZM216.77 76.28c0 1.12-.96 1.93-2.03 1.93a1.97 1.97 0 0 1-2.02-1.93c0-1.1.96-1.92 2.02-1.92 1.07 0 2.03.81 2.03 1.92ZM216.77 97.5c0 1.12-.96 1.93-2.03 1.93a1.97 1.97 0 0 1-2.02-1.92c0-1.11.96-1.92 2.02-1.92 1.07 0 2.03.8 2.03 1.92ZM216.77 108.04c0 1.11-.96 1.92-2.03 1.92a1.97 1.97 0 0 1-2.02-1.92c0-1.11.96-1.92 2.02-1.92 1.07 0 2.03.91 2.03 1.92ZM216.77 118.73c0 1.12-.96 1.92-2.03 1.92a1.97 1.97 0 0 1-2.02-1.92c0-1.1.96-1.92 2.02-1.92 1.07 0 2.03.81 2.03 1.92ZM216.77 129.27c0 1.1-.96 1.92-2.03 1.92a1.97 1.97 0 0 1-2.02-1.92c0-1.12.96-1.93 2.02-1.93 1.07 0 2.03.92 2.03 1.93ZM216.77 139.96c0 1-.96 1.92-2.03 1.92a1.97 1.97 0 0 1-2.02-1.92c0-1.12.96-1.92 2.02-1.92 1.07 0 2.03.8 2.03 1.92ZM216.77 150.5c0 1.1-.96 1.91-2.03 1.91a1.97 1.97 0 0 1-2.02-1.92c0-1.11.96-1.92 2.02-1.92 1.07 0 2.03.91 2.03 1.92ZM216.77 161.18c0 1.01-.96 1.92-2.03 1.92a1.97 1.97 0 0 1-2.02-1.92c0-1.11.96-1.92 2.02-1.92 1.07 0 2.03.8 2.03 1.92ZM216.77 171.72c0 1.1-.96 1.92-2.03 1.92a1.97 1.97 0 0 1-2.02-1.92c0-1.12.96-1.93 2.02-1.93 1.07 0 2.03.91 2.03 1.93ZM216.77 182.4c0 1.12-.96 1.93-2.03 1.93a1.97 1.97 0 0 1-2.02-1.92c0-1.12.96-1.92 2.02-1.92 1.07 0 2.03.8 2.03 1.92ZM216.77 192.94c0 1.11-.96 1.92-2.03 1.92a1.97 1.97 0 0 1-2.02-1.92c0-1.11.96-1.92 2.02-1.92 1.07 0 2.03.9 2.03 1.92ZM216.77 203.63c0 1.11-.96 1.92-2.03 1.92a1.97 1.97 0 0 1-2.02-1.92c0-1.11.96-1.92 2.02-1.92 1.07 0 2.03.8 2.03 1.92ZM216.77 214.32c0 1.01-.96 1.92-2.03 1.92a1.97 1.97 0 0 1-2.02-1.92c0-1.11.96-1.92 2.02-1.92 1.07 0 2.03.8 2.03 1.92ZM216.77 224.85c0 1.12-.96 1.93-2.03 1.93a1.97 1.97 0 0 1-2.02-1.93c0-1.1.96-1.92 2.02-1.92 1.07 0 2.03.91 2.03 1.92ZM216.77 235.54c0 1.12-.96 1.93-2.03 1.93a1.97 1.97 0 0 1-2.02-1.93c0-1.1.96-1.92 2.02-1.92 1.07 0 2.03.81 2.03 1.92ZM216.77 246.08c0 1.11-.96 1.92-2.03 1.92a1.97 1.97 0 0 1-2.02-1.92c0-1.11.96-1.92 2.02-1.92 1.07 0 2.03.9 2.03 1.92ZM216.77 256.77c0 1.11-.96 1.92-2.03 1.92a1.97 1.97 0 0 1-2.02-1.92c0-1.11.96-1.92 2.02-1.92 1.07 0 2.03.8 2.03 1.92ZM216.77 267.3c0 1.01-.96 1.92-2.03 1.92a1.97 1.97 0 0 1-2.02-1.92c0-1.1.96-1.92 2.02-1.92 1.07 0 2.03.91 2.03 1.92ZM216.77 278c0 1.1-.96 1.92-2.03 1.92a1.97 1.97 0 0 1-2.02-1.93c0-1 .96-1.92 2.02-1.92 1.07 0 2.03.81 2.03 1.92ZM216.77 288.53c0 1.1-.96 1.92-2.03 1.92a1.97 1.97 0 0 1-2.02-1.92c0-1.11.96-1.92 2.02-1.92 1.07 0 2.03.9 2.03 1.92ZM205.5 23.15c0 1.1-.96 1.92-2.03 1.92a1.97 1.97 0 0 1-2.02-1.92c0-1.12.96-1.93 2.03-1.93 1.17 0 2.02.81 2.02 1.93ZM205.5 33.68c0 1.11-.96 1.92-2.03 1.92a1.97 1.97 0 0 1-2.02-1.92c0-1.11.96-1.92 2.03-1.92 1.17 0 2.02.9 2.02 1.92ZM205.5 44.37c0 1.11-.96 1.92-2.03 1.92a1.97 1.97 0 0 1-2.02-1.92c0-1.11.96-1.92 2.03-1.92 1.17 0 2.02.9 2.02 1.92ZM205.5 65.6c0 1.1-.96 1.92-2.03 1.92a1.97 1.97 0 0 1-2.02-1.93c0-1.1.96-1.92 2.03-1.92 1.17 0 2.02.91 2.02 1.92ZM205.5 76.28c0 1.12-.96 1.93-2.03 1.93a1.97 1.97 0 0 1-2.02-1.93c0-1.1.96-1.92 2.03-1.92 1.17 0 2.02.81 2.02 1.92ZM205.5 97.5c0 1.12-.96 1.93-2.03 1.93a1.97 1.97 0 0 1-2.02-1.92c0-1.11.96-1.92 2.03-1.92 1.17 0 2.02.8 2.02 1.92ZM205.5 108.04c0 1.11-.96 1.92-2.03 1.92a1.97 1.97 0 0 1-2.02-1.92c0-1.11.96-1.92 2.03-1.92 1.17 0 2.02.91 2.02 1.92ZM205.5 118.73c0 1.12-.96 1.92-2.03 1.92a1.97 1.97 0 0 1-2.02-1.92c0-1.1.96-1.92 2.03-1.92 1.17 0 2.02.81 2.02 1.92ZM205.5 129.27c0 1.1-.96 1.92-2.03 1.92a1.97 1.97 0 0 1-2.02-1.92c0-1.12.96-1.93 2.03-1.93 1.17 0 2.02.92 2.02 1.93ZM205.5 139.96c0 1-.96 1.92-2.03 1.92a1.97 1.97 0 0 1-2.02-1.92c0-1.12.96-1.92 2.03-1.92 1.17 0 2.02.8 2.02 1.92ZM205.5 150.5c0 1.1-.96 1.91-2.03 1.91a1.97 1.97 0 0 1-2.02-1.92c0-1.11.96-1.92 2.03-1.92 1.17 0 2.02.91 2.02 1.92ZM205.5 161.18c0 1.01-.96 1.92-2.03 1.92a1.97 1.97 0 0 1-2.02-1.92c0-1.11.96-1.92 2.03-1.92 1.17 0 2.02.8 2.02 1.92ZM205.5 171.72c0 1.1-.96 1.92-2.03 1.92a1.97 1.97 0 0 1-2.02-1.92c0-1.12.96-1.93 2.03-1.93 1.17 0 2.02.91 2.02 1.93ZM205.5 182.4c0 1.12-.96 1.93-2.03 1.93a1.97 1.97 0 0 1-2.02-1.92c0-1.12.96-1.92 2.03-1.92 1.17 0 2.02.8 2.02 1.92ZM205.5 192.94c0 1.11-.96 1.92-2.03 1.92a1.97 1.97 0 0 1-2.02-1.92c0-1.11.96-1.92 2.03-1.92 1.17 0 2.02.9 2.02 1.92ZM205.5 203.63c0 1.11-.96 1.92-2.03 1.92a1.97 1.97 0 0 1-2.02-1.92c0-1.11.96-1.92 2.03-1.92 1.17 0 2.02.8 2.02 1.92ZM205.5 214.32c0 1.01-.96 1.92-2.03 1.92a1.97 1.97 0 0 1-2.02-1.92c0-1.11.96-1.92 2.03-1.92 1.17 0 2.02.8 2.02 1.92ZM205.5 224.85c0 1.12-.96 1.93-2.03 1.93a1.97 1.97 0 0 1-2.02-1.93c0-1.1.96-1.92 2.03-1.92 1.17 0 2.02.91 2.02 1.92ZM205.5 235.54c0 1.12-.96 1.93-2.03 1.93a1.97 1.97 0 0 1-2.02-1.93c0-1.1.96-1.92 2.03-1.92 1.17 0 2.02.81 2.02 1.92ZM205.5 246.08c0 1.11-.96 1.92-2.03 1.92a1.97 1.97 0 0 1-2.02-1.92c0-1.11.96-1.92 2.03-1.92 1.17 0 2.02.9 2.02 1.92ZM205.5 256.77c0 1.11-.96 1.92-2.03 1.92a1.97 1.97 0 0 1-2.02-1.92c0-1.11.96-1.92 2.03-1.92 1.17 0 2.02.8 2.02 1.92ZM205.5 267.3c0 1.01-.96 1.92-2.03 1.92a1.97 1.97 0 0 1-2.02-1.92c0-1.1.96-1.92 2.03-1.92 1.17 0 2.02.91 2.02 1.92ZM205.5 278c0 1.1-.96 1.92-2.03 1.92a1.97 1.97 0 0 1-2.02-1.93c0-1 .96-1.92 2.03-1.92 1.17 0 2.02.81 2.02 1.92ZM194.4 23.15c0 1.1-.96 1.92-2.02 1.92a1.97 1.97 0 0 1-2.03-1.92c0-1.12.96-1.93 2.03-1.93 1.06 0 2.02.81 2.02 1.93ZM194.4 33.68c0 1.11-.96 1.92-2.02 1.92a1.97 1.97 0 0 1-2.03-1.92c0-1.11.96-1.92 2.03-1.92 1.06 0 2.02.9 2.02 1.92ZM194.4 55.06c0 1.11-.96 1.92-2.02 1.92a1.97 1.97 0 0 1-2.03-1.92c0-1.11.96-1.92 2.03-1.92 1.06 0 2.02.8 2.02 1.92ZM194.4 65.6c0 1.1-.96 1.92-2.02 1.92a1.97 1.97 0 0 1-2.03-1.93c0-1.1.96-1.92 2.03-1.92 1.06 0 2.02.91 2.02 1.92ZM194.4 76.28c0 1.12-.96 1.93-2.02 1.93a1.97 1.97 0 0 1-2.03-1.93c0-1.1.96-1.92 2.03-1.92 1.06 0 2.02.81 2.02 1.92ZM194.4 86.82c0 1.11-.96 1.92-2.02 1.92a1.97 1.97 0 0 1-2.03-1.92c0-1.01.96-1.92 2.03-1.92 1.06 0 2.02.9 2.02 1.92ZM194.4 97.5c0 1.12-.96 1.93-2.02 1.93a1.97 1.97 0 0 1-2.03-1.92c0-1.11.96-1.92 2.03-1.92 1.06 0 2.02.8 2.02 1.92ZM194.4 108.04c0 1.11-.96 1.92-2.02 1.92a1.97 1.97 0 0 1-2.03-1.92c0-1.11.96-1.92 2.03-1.92 1.06 0 2.02.91 2.02 1.92ZM194.4 118.73c0 1.12-.96 1.92-2.02 1.92a1.97 1.97 0 0 1-2.03-1.92c0-1.1.96-1.92 2.03-1.92 1.06 0 2.02.81 2.02 1.92ZM194.4 129.27c0 1.1-.96 1.92-2.02 1.92a1.97 1.97 0 0 1-2.03-1.92c0-1.12.96-1.93 2.03-1.93 1.06 0 2.02.92 2.02 1.93ZM194.4 139.96c0 1-.96 1.92-2.02 1.92a1.97 1.97 0 0 1-2.03-1.92c0-1.12.96-1.92 2.03-1.92 1.06 0 2.02.8 2.02 1.92ZM194.4 150.5c0 1.1-.96 1.91-2.02 1.91a1.97 1.97 0 0 1-2.03-1.92c0-1.11.96-1.92 2.03-1.92 1.06 0 2.02.91 2.02 1.92ZM194.4 161.18c0 1.01-.96 1.92-2.02 1.92a1.97 1.97 0 0 1-2.03-1.92c0-1.11.96-1.92 2.03-1.92 1.06 0 2.02.8 2.02 1.92ZM194.4 171.72c0 1.1-.96 1.92-2.02 1.92a1.97 1.97 0 0 1-2.03-1.92c0-1.12.96-1.93 2.03-1.93 1.06 0 2.02.91 2.02 1.93ZM194.4 182.4c0 1.12-.96 1.93-2.02 1.93a1.97 1.97 0 0 1-2.03-1.92c0-1.12.96-1.92 2.03-1.92 1.06 0 2.02.8 2.02 1.92ZM194.4 192.94c0 1.11-.96 1.92-2.02 1.92a1.97 1.97 0 0 1-2.03-1.92c0-1.11.96-1.92 2.03-1.92 1.06 0 2.02.9 2.02 1.92ZM194.4 203.63c0 1.11-.96 1.92-2.02 1.92a1.97 1.97 0 0 1-2.03-1.92c0-1.11.96-1.92 2.03-1.92 1.06 0 2.02.8 2.02 1.92ZM194.4 214.32c0 1.01-.96 1.92-2.02 1.92a1.97 1.97 0 0 1-2.03-1.92c0-1.11.96-1.92 2.03-1.92 1.06 0 2.02.8 2.02 1.92ZM194.4 224.85c0 1.12-.96 1.93-2.02 1.93a1.97 1.97 0 0 1-2.03-1.93c0-1.1.96-1.92 2.03-1.92 1.06 0 2.02.91 2.02 1.92ZM194.4 235.54c0 1.12-.96 1.93-2.02 1.93a1.97 1.97 0 0 1-2.03-1.93c0-1.1.96-1.92 2.03-1.92 1.06 0 2.02.81 2.02 1.92ZM194.4 246.08c0 1.11-.96 1.92-2.02 1.92a1.97 1.97 0 0 1-2.03-1.92c0-1.11.96-1.92 2.03-1.92 1.06 0 2.02.9 2.02 1.92ZM194.4 256.77c0 1.11-.96 1.92-2.02 1.92a1.97 1.97 0 0 1-2.03-1.92c0-1.11.96-1.92 2.03-1.92 1.06 0 2.02.8 2.02 1.92ZM183.13 23.15c0 1.1-.95 1.92-2.02 1.92a1.97 1.97 0 0 1-2.03-1.92c0-1.12.96-1.93 2.03-1.93 1.17 0 2.02.81 2.02 1.93ZM183.13 33.68c0 1.11-.95 1.92-2.02 1.92a1.97 1.97 0 0 1-2.03-1.92c0-1.11.96-1.92 2.03-1.92 1.17 0 2.02.9 2.02 1.92ZM183.13 55.06c0 1.11-.95 1.92-2.02 1.92a1.97 1.97 0 0 1-2.03-1.92c0-1.11.96-1.92 2.03-1.92 1.17 0 2.02.8 2.02 1.92ZM183.13 65.6c0 1.1-.95 1.92-2.02 1.92a1.97 1.97 0 0 1-2.03-1.93c0-1.1.96-1.92 2.03-1.92 1.17 0 2.02.91 2.02 1.92ZM183.13 86.82c0 1.11-.95 1.92-2.02 1.92a1.97 1.97 0 0 1-2.03-1.92c0-1.01.96-1.92 2.03-1.92 1.17 0 2.02.9 2.02 1.92ZM183.13 97.5c0 1.12-.95 1.93-2.02 1.93a1.97 1.97 0 0 1-2.03-1.92c0-1.11.96-1.92 2.03-1.92 1.17 0 2.02.8 2.02 1.92ZM183.13 108.04c0 1.11-.95 1.92-2.02 1.92a1.97 1.97 0 0 1-2.03-1.92c0-1.11.96-1.92 2.03-1.92 1.17 0 2.02.91 2.02 1.92ZM183.13 118.73c0 1.12-.95 1.92-2.02 1.92a1.97 1.97 0 0 1-2.03-1.92c0-1.1.96-1.92 2.03-1.92 1.17 0 2.02.81 2.02 1.92ZM183.13 129.27c0 1.1-.95 1.92-2.02 1.92a1.97 1.97 0 0 1-2.03-1.92c0-1.12.96-1.93 2.03-1.93 1.17 0 2.02.92 2.02 1.93ZM183.13 139.96c0 1-.95 1.92-2.02 1.92a1.97 1.97 0 0 1-2.03-1.92c0-1.12.96-1.92 2.03-1.92 1.17 0 2.02.8 2.02 1.92ZM183.13 150.5c0 1.1-.95 1.91-2.02 1.91a1.97 1.97 0 0 1-2.03-1.92c0-1.11.96-1.92 2.03-1.92 1.17 0 2.02.91 2.02 1.92ZM183.13 161.18c0 1.01-.95 1.92-2.02 1.92a1.97 1.97 0 0 1-2.03-1.92c0-1.11.96-1.92 2.03-1.92 1.17 0 2.02.8 2.02 1.92ZM183.13 171.72c0 1.1-.95 1.92-2.02 1.92a1.97 1.97 0 0 1-2.03-1.92c0-1.12.96-1.93 2.03-1.93 1.17 0 2.02.91 2.02 1.93ZM183.13 182.4c0 1.12-.95 1.93-2.02 1.93a1.97 1.97 0 0 1-2.03-1.92c0-1.12.96-1.92 2.03-1.92 1.17 0 2.02.8 2.02 1.92ZM183.13 192.94c0 1.11-.95 1.92-2.02 1.92a1.97 1.97 0 0 1-2.03-1.92c0-1.11.96-1.92 2.03-1.92 1.17 0 2.02.9 2.02 1.92ZM183.13 203.63c0 1.11-.95 1.92-2.02 1.92a1.97 1.97 0 0 1-2.03-1.92c0-1.11.96-1.92 2.03-1.92 1.17 0 2.02.8 2.02 1.92ZM183.13 214.32c0 1.01-.95 1.92-2.02 1.92a1.97 1.97 0 0 1-2.03-1.92c0-1.11.96-1.92 2.03-1.92 1.17 0 2.02.8 2.02 1.92ZM183.13 224.85c0 1.12-.95 1.93-2.02 1.93a1.97 1.97 0 0 1-2.03-1.93c0-1.1.96-1.92 2.03-1.92 1.17 0 2.02.91 2.02 1.92ZM183.13 235.54c0 1.12-.95 1.93-2.02 1.93a1.97 1.97 0 0 1-2.03-1.93c0-1.1.96-1.92 2.03-1.92 1.17 0 2.02.81 2.02 1.92ZM183.13 246.08c0 1.11-.95 1.92-2.02 1.92a1.97 1.97 0 0 1-2.03-1.92c0-1.11.96-1.92 2.03-1.92 1.17 0 2.02.9 2.02 1.92ZM172.04 33.68c0 1.11-.96 1.92-2.03 1.92a1.97 1.97 0 0 1-2.02-1.92c0-1.11.96-1.92 2.02-1.92 1.07 0 2.03.9 2.03 1.92ZM172.04 44.37c0 1.11-.96 1.92-2.03 1.92a1.97 1.97 0 0 1-2.02-1.92c0-1.11.96-1.92 2.02-1.92 1.07 0 2.03.9 2.03 1.92ZM172.04 55.06c0 1.11-.96 1.92-2.03 1.92a1.97 1.97 0 0 1-2.02-1.92c0-1.11.96-1.92 2.02-1.92 1.07 0 2.03.8 2.03 1.92ZM172.04 65.6c0 1.1-.96 1.92-2.03 1.92a1.97 1.97 0 0 1-2.02-1.93c0-1.1.96-1.92 2.02-1.92 1.07 0 2.03.91 2.03 1.92ZM172.04 76.28c0 1.12-.96 1.93-2.03 1.93a1.97 1.97 0 0 1-2.02-1.93c0-1.1.96-1.92 2.02-1.92 1.07 0 2.03.81 2.03 1.92ZM172.04 86.82c0 1.11-.96 1.92-2.03 1.92a1.97 1.97 0 0 1-2.02-1.92c0-1.01.85-1.92 1.91-1.92 1.18 0 2.14.9 2.14 1.92ZM172.04 97.5c0 1.12-.96 1.93-2.03 1.93a1.97 1.97 0 0 1-2.02-1.92c0-1.11.96-1.92 2.02-1.92 1.07 0 2.03.8 2.03 1.92ZM172.04 108.04c0 1.11-.96 1.92-2.03 1.92a1.97 1.97 0 0 1-2.02-1.92c0-1.11.96-1.92 2.02-1.92 1.07 0 2.03.91 2.03 1.92ZM172.04 118.73c0 1.12-.96 1.92-2.03 1.92a1.97 1.97 0 0 1-2.02-1.92c0-1.1.96-1.92 2.02-1.92 1.07 0 2.03.81 2.03 1.92ZM172.04 129.27c0 1.1-.96 1.92-2.03 1.92a1.97 1.97 0 0 1-2.02-1.92c0-1.12.96-1.93 2.02-1.93 1.07 0 2.03.92 2.03 1.93ZM172.04 139.96c0 1-.96 1.92-2.03 1.92a1.97 1.97 0 0 1-2.02-1.92c0-1.12.96-1.92 2.02-1.92 1.07 0 2.03.8 2.03 1.92ZM172.04 150.5c0 1.1-.96 1.91-2.03 1.91a1.97 1.97 0 0 1-2.02-1.92c0-1.11.96-1.92 2.02-1.92 1.07 0 2.03.91 2.03 1.92ZM172.04 161.18c0 1.01-.96 1.92-2.03 1.92a1.97 1.97 0 0 1-2.02-1.92c0-1.11.96-1.92 2.02-1.92 1.07 0 2.03.8 2.03 1.92ZM172.04 171.72c0 1.1-.96 1.92-2.03 1.92a1.97 1.97 0 0 1-2.02-1.92c0-1.12.96-1.93 2.02-1.93 1.07 0 2.03.91 2.03 1.93ZM172.04 182.4c0 1.12-.96 1.93-2.03 1.93a1.97 1.97 0 0 1-2.02-1.92c0-1.12.96-1.92 2.02-1.92 1.07 0 2.03.8 2.03 1.92ZM172.04 192.94c0 1.11-.96 1.92-2.03 1.92a1.97 1.97 0 0 1-2.02-1.92c0-1.11.96-1.92 2.02-1.92 1.07 0 2.03.9 2.03 1.92ZM172.04 203.63c0 1.11-.96 1.92-2.03 1.92a1.97 1.97 0 0 1-2.02-1.92c0-1.11.96-1.92 2.02-1.92 1.07 0 2.03.8 2.03 1.92ZM172.04 214.32c0 1.01-.96 1.92-2.03 1.92a1.97 1.97 0 0 1-2.02-1.92c0-1.11.96-1.92 2.02-1.92 1.07 0 2.03.8 2.03 1.92ZM172.04 224.85c0 1.12-.96 1.93-2.03 1.93a1.97 1.97 0 0 1-2.02-1.93c0-1.1.96-1.92 2.02-1.92 1.07 0 2.03.91 2.03 1.92ZM172.04 235.54c0 1.12-.96 1.93-2.03 1.93a1.97 1.97 0 0 1-2.02-1.93c0-1.1.96-1.92 2.02-1.92 1.07 0 2.03.81 2.03 1.92ZM160.77 55.06c0 1.11-.96 1.92-2.03 1.92-1.06 0-2.02-.9-2.02-1.92 0-1.11.96-1.92 2.02-1.92 1.07 0 2.03.8 2.03 1.92ZM160.77 65.6c0 1.1-.96 1.92-2.03 1.92-1.06 0-2.02-.91-2.02-1.93 0-1.1.96-1.92 2.02-1.92 1.07 0 2.03.91 2.03 1.92ZM160.77 76.28c0 1.12-.96 1.93-2.03 1.93-1.06 0-2.02-.91-2.02-1.93 0-1.1.96-1.92 2.02-1.92 1.07 0 2.03.81 2.03 1.92ZM160.77 86.82c0 1.11-.96 1.92-2.03 1.92-1.06 0-2.02-.91-2.02-1.92 0-1.01.96-1.92 2.02-1.92 1.07 0 2.03.9 2.03 1.92ZM160.77 97.5c0 1.12-.96 1.93-2.03 1.93-1.06 0-2.02-.91-2.02-1.92 0-1.11.96-1.92 2.02-1.92 1.07 0 2.03.8 2.03 1.92ZM160.77 108.04c0 1.11-.96 1.92-2.03 1.92-1.06 0-2.02-.9-2.02-1.92 0-1.11.96-1.92 2.02-1.92 1.07 0 2.03.91 2.03 1.92ZM160.77 118.73c0 1.12-.96 1.92-2.03 1.92-1.06 0-2.02-.9-2.02-1.92 0-1.1.96-1.92 2.02-1.92 1.07 0 2.03.81 2.03 1.92ZM160.77 129.27c0 1.1-.96 1.92-2.03 1.92-1.06 0-2.02-.91-2.02-1.92 0-1.12.96-1.93 2.02-1.93 1.07 0 2.03.92 2.03 1.93ZM158.74 141.88c1.12 0 2.03-.86 2.03-1.92s-.9-1.92-2.03-1.92c-1.11 0-2.02.86-2.02 1.92s.9 1.92 2.02 1.92ZM160.77 150.5c0 1.1-.96 1.91-2.03 1.91-1.06 0-2.02-.9-2.02-1.92 0-1.11.96-1.92 2.02-1.92 1.07 0 2.03.91 2.03 1.92ZM160.77 161.18c0 1.01-.96 1.92-2.03 1.92-1.06 0-2.02-.9-2.02-1.92 0-1.11.96-1.92 2.02-1.92 1.07 0 2.03.8 2.03 1.92ZM160.77 171.72c0 1.1-.96 1.92-2.03 1.92-1.06 0-2.02-.91-2.02-1.92 0-1.12.96-1.93 2.02-1.93 1.07 0 2.03.91 2.03 1.93ZM158.74 184.33c1.12 0 2.03-.86 2.03-1.92s-.9-1.92-2.03-1.92c-1.11 0-2.02.85-2.02 1.92 0 1.06.9 1.92 2.02 1.92ZM149.5 76.28c0 1.12-.96 1.93-2.02 1.93a1.97 1.97 0 0 1-2.02-1.93c0-1.1.95-1.92 2.02-1.92 1.17 0 2.02.81 2.02 1.92ZM149.5 86.82c0 1.11-.96 1.92-2.02 1.92a1.97 1.97 0 0 1-2.02-1.92c0-1.01.95-1.92 2.02-1.92 1.17 0 2.02.9 2.02 1.92ZM149.5 97.5c0 1.12-.96 1.93-2.02 1.93a1.97 1.97 0 0 1-2.02-1.92c0-1.11.95-1.92 2.02-1.92 1.17 0 2.02.8 2.02 1.92ZM149.5 108.04c0 1.11-.96 1.92-2.02 1.92a1.97 1.97 0 0 1-2.02-1.92c0-1.11.95-1.92 2.02-1.92 1.17 0 2.02.91 2.02 1.92ZM149.5 118.73c0 1.11-.96 1.92-2.02 1.92a1.97 1.97 0 0 1-2.02-1.92c0-1.1.95-1.92 2.02-1.92 1.17 0 2.02.81 2.02 1.92ZM149.5 129.27c0 1.1-.96 1.92-2.02 1.92a1.97 1.97 0 0 1-2.02-1.92c0-1.12.95-1.93 2.02-1.93 1.17 0 2.02.92 2.02 1.93ZM149.5 139.96c0 1-.96 1.92-2.02 1.92a1.97 1.97 0 0 1-2.02-1.92c0-1.12.95-1.92 2.02-1.92 1.17 0 2.02.8 2.02 1.92ZM149.5 150.5c0 1.1-.96 1.91-2.02 1.91a1.97 1.97 0 0 1-2.02-1.92c0-1.11.95-1.92 2.02-1.92 1.17 0 2.02.91 2.02 1.92ZM149.5 161.18c0 1.01-.96 1.92-2.02 1.92a1.97 1.97 0 0 1-2.02-1.92c0-1.11.95-1.92 2.02-1.92 1.17 0 2.02.8 2.02 1.92ZM149.5 171.72c0 1.1-.96 1.92-2.02 1.92a1.97 1.97 0 0 1-2.02-1.92c0-1.12.95-1.93 2.02-1.93 1.17 0 2.02.91 2.02 1.93ZM149.5 182.4c0 1.12-.96 1.93-2.02 1.93a1.97 1.97 0 0 1-2.02-1.92c0-1.12.95-1.92 2.02-1.92 1.17 0 2.02.8 2.02 1.92ZM138.4 76.28c0 1.12-.95 1.93-2.02 1.93s-2.03-.91-2.03-1.93c0-1.1.96-1.92 2.03-1.92 1.07 0 2.03.81 2.03 1.92ZM138.4 86.82c0 1.11-.95 1.92-2.02 1.92s-2.03-.91-2.03-1.92c0-1.01.96-1.92 2.03-1.92 1.07 0 2.03.9 2.03 1.92ZM138.4 97.5c0 1.12-.95 1.93-2.02 1.93s-2.03-.91-2.03-1.92c0-1.11.96-1.92 2.03-1.92 1.07 0 2.03.8 2.03 1.92ZM138.4 108.04c0 1.11-.95 1.92-2.02 1.92s-2.03-.9-2.03-1.92c0-1.11.96-1.92 2.03-1.92 1.07 0 2.03.91 2.03 1.92ZM138.4 118.73c0 1.12-.95 1.92-2.02 1.92s-2.03-.9-2.03-1.92c0-1.1.96-1.92 2.03-1.92 1.07 0 2.03.81 2.03 1.92ZM138.4 129.27c0 1.1-.95 1.92-2.02 1.92s-2.03-.91-2.03-1.92c0-1.12.96-1.93 2.03-1.93 1.07 0 2.03.92 2.03 1.93ZM138.4 139.96c0 1-.95 1.92-2.02 1.92s-2.03-.91-2.03-1.92c0-1.12.96-1.92 2.03-1.92 1.07 0 2.03.8 2.03 1.92ZM138.4 150.5c0 1.1-.95 1.91-2.02 1.91s-2.03-.9-2.03-1.92c0-1.11.96-1.92 2.03-1.92 1.07 0 2.03.91 2.03 1.92ZM138.4 161.18c0 1.01-.95 1.92-2.02 1.92s-2.03-.9-2.03-1.92c0-1.11.96-1.92 2.03-1.92 1.07 0 2.03.8 2.03 1.92ZM127.14 86.82c0 1.11-.96 1.92-2.03 1.92a1.97 1.97 0 0 1-2.02-1.92c0-1.01.96-1.92 2.02-1.92 1.18 0 2.03.9 2.03 1.92ZM127.14 97.5c0 1.12-.96 1.93-2.03 1.93a1.97 1.97 0 0 1-2.02-1.92c0-1.11.96-1.92 2.02-1.92 1.18 0 2.03.8 2.03 1.92ZM127.14 108.04c0 1.11-.96 1.92-2.03 1.92a1.97 1.97 0 0 1-2.02-1.92c0-1.11.96-1.92 2.02-1.92 1.18 0 2.03.91 2.03 1.92ZM127.14 118.73c0 1.11-.96 1.92-2.03 1.92a1.97 1.97 0 0 1-2.02-1.92c0-1.1.96-1.92 2.02-1.92 1.18 0 2.03.81 2.03 1.92ZM127.14 129.27c0 1.1-.96 1.92-2.03 1.92a1.97 1.97 0 0 1-2.02-1.92c0-1.12.96-1.93 2.02-1.93 1.18 0 2.03.92 2.03 1.93ZM127.14 139.96c0 1-.96 1.92-2.03 1.92a1.97 1.97 0 0 1-2.02-1.92c0-1.12.96-1.92 2.02-1.92 1.18 0 2.03.8 2.03 1.92ZM127.14 150.5c0 1.1-.96 1.91-2.03 1.91a1.97 1.97 0 0 1-2.02-1.92c0-1.11.96-1.92 2.02-1.92 1.18 0 2.03.91 2.03 1.92ZM127.14 161.18c0 1.01-.96 1.92-2.03 1.92a1.97 1.97 0 0 1-2.02-1.92c0-1.11.96-1.92 2.02-1.92 1.18 0 2.03.8 2.03 1.92ZM116.04 86.82c0 1.11-.96 1.92-2.03 1.92a1.97 1.97 0 0 1-2.02-1.92c0-1.01.96-1.92 2.03-1.92 1.06 0 2.02.9 2.02 1.92ZM116.04 97.5c0 1.12-.96 1.93-2.03 1.93a1.97 1.97 0 0 1-2.02-1.92c0-1.11.96-1.92 2.03-1.92 1.06 0 2.02.8 2.02 1.92ZM116.04 108.04c0 1.11-.96 1.92-2.03 1.92a1.97 1.97 0 0 1-2.02-1.92c0-1.11.96-1.92 2.03-1.92 1.06 0 2.02.91 2.02 1.92ZM116.04 118.73c0 1.12-.96 1.92-2.03 1.92a1.97 1.97 0 0 1-2.02-1.92c0-1.1.96-1.92 2.03-1.92 1.06 0 2.02.81 2.02 1.92ZM116.04 129.27c0 1.1-.96 1.92-2.03 1.92a1.97 1.97 0 0 1-2.02-1.92c0-1.12.96-1.93 2.03-1.93 1.06 0 2.02.92 2.02 1.93ZM116.04 139.96c0 1-.96 1.92-2.03 1.92a1.97 1.97 0 0 1-2.02-1.92c0-1.12.96-1.92 2.03-1.92 1.06 0 2.02.8 2.02 1.92ZM104.77 76.28c0 1.12-.95 1.93-2.02 1.93a1.97 1.97 0 0 1-2.03-1.93c0-1.1.96-1.92 2.03-1.92 1.17 0 2.02.81 2.02 1.92ZM104.77 86.82c0 1.11-.95 1.92-2.02 1.92a1.97 1.97 0 0 1-2.03-1.92c0-1.01.96-1.92 2.03-1.92 1.17 0 2.02.9 2.02 1.92ZM104.77 97.5c0 1.12-.95 1.93-2.02 1.93a1.97 1.97 0 0 1-2.03-1.92c0-1.11.96-1.92 2.03-1.92 1.17 0 2.02.8 2.02 1.92ZM104.77 108.04c0 1.11-.95 1.92-2.02 1.92a1.97 1.97 0 0 1-2.03-1.92c0-1.11.96-1.92 2.03-1.92 1.17 0 2.02.91 2.02 1.92ZM104.77 118.73c0 1.11-.95 1.92-2.02 1.92a1.97 1.97 0 0 1-2.03-1.92c0-1.1.96-1.92 2.03-1.92 1.17 0 2.02.81 2.02 1.92ZM104.77 129.27c0 1.1-.95 1.92-2.02 1.92a1.97 1.97 0 0 1-2.03-1.92c0-1.12.96-1.93 2.03-1.93 1.17 0 2.02.92 2.02 1.93ZM93.67 76.28c0 1.12-.95 1.93-2.02 1.93a1.97 1.97 0 0 1-2.03-1.93c0-1.1.96-1.92 2.03-1.92 1.07 0 2.02.81 2.02 1.92ZM93.67 86.82c0 1.11-.95 1.92-2.02 1.92a1.97 1.97 0 0 1-2.03-1.92c0-1.01.96-1.92 2.03-1.92 1.07 0 2.02.9 2.02 1.92ZM93.67 97.5c0 1.12-.95 1.93-2.02 1.93a1.97 1.97 0 0 1-2.03-1.92c0-1.11.96-1.92 2.03-1.92 1.07 0 2.02.8 2.02 1.92ZM93.67 108.04c0 1.11-.95 1.92-2.02 1.92a1.97 1.97 0 0 1-2.03-1.92c0-1.11.96-1.92 2.03-1.92 1.07 0 2.02.91 2.02 1.92ZM93.67 118.73c0 1.12-.95 1.92-2.02 1.92a1.97 1.97 0 0 1-2.03-1.92c0-1.1.96-1.92 2.03-1.92 1.07 0 2.02.81 2.02 1.92ZM93.67 129.27c0 1.1-.95 1.92-2.02 1.92a1.97 1.97 0 0 1-2.03-1.92c0-1.12.96-1.93 2.03-1.93 1.07 0 2.02.92 2.02 1.93ZM82.4 76.28c0 1.12-.95 1.93-2.02 1.93a1.97 1.97 0 0 1-2.02-1.93c0-1.1.96-1.92 2.02-1.92 1.18 0 2.03.81 2.03 1.92ZM82.4 86.82c0 1.11-.95 1.92-2.02 1.92a1.97 1.97 0 0 1-2.02-1.92c0-1.01.96-1.92 2.02-1.92 1.18 0 2.03.9 2.03 1.92ZM82.4 97.5c0 1.12-.95 1.93-2.02 1.93a1.97 1.97 0 0 1-2.02-1.92c0-1.11.96-1.92 2.02-1.92 1.18 0 2.03.8 2.03 1.92ZM82.4 108.04c0 1.11-.95 1.92-2.02 1.92a1.97 1.97 0 0 1-2.02-1.92c0-1.11.96-1.92 2.02-1.92 1.18 0 2.03.91 2.03 1.92ZM82.4 118.73c0 1.11-.95 1.92-2.02 1.92a1.97 1.97 0 0 1-2.02-1.92c0-1.1.96-1.92 2.02-1.92 1.18 0 2.03.81 2.03 1.92ZM82.4 129.27c0 1.1-.95 1.92-2.02 1.92a1.97 1.97 0 0 1-2.02-1.92c0-1.12.96-1.93 2.02-1.93 1.18 0 2.03.92 2.03 1.93ZM71.3 76.28c0 1.12-.95 1.93-2.02 1.93a1.97 1.97 0 0 1-2.02-1.93c0-1.1.96-1.92 2.02-1.92 1.07 0 2.03.81 2.03 1.92ZM71.3 86.82c0 1.11-.95 1.92-2.02 1.92a1.97 1.97 0 0 1-2.02-1.92c0-1.01.96-1.92 2.02-1.92 1.07 0 2.03.9 2.03 1.92ZM71.3 97.5c0 1.12-.95 1.93-2.02 1.93a1.97 1.97 0 0 1-2.02-1.92c0-1.11.96-1.92 2.02-1.92 1.07 0 2.03.8 2.03 1.92ZM71.3 108.04c0 1.11-.95 1.92-2.02 1.92a1.97 1.97 0 0 1-2.02-1.92c0-1.11.96-1.92 2.02-1.92 1.07 0 2.03.91 2.03 1.92ZM71.3 118.73c0 1.12-.95 1.92-2.02 1.92a1.97 1.97 0 0 1-2.02-1.92c0-1.1.96-1.92 2.02-1.92 1.07 0 2.03.81 2.03 1.92ZM71.3 129.27c0 1.1-.95 1.92-2.02 1.92a1.97 1.97 0 0 1-2.02-1.92c0-1.12.96-1.93 2.02-1.93 1.07 0 2.03.92 2.03 1.93ZM60.05 76.28c0 1.12-.96 1.93-2.03 1.93A1.97 1.97 0 0 1 56 76.28c0-1.1.96-1.92 2.02-1.92 1.17 0 2.03.81 2.03 1.92ZM60.05 86.82c0 1.11-.96 1.92-2.03 1.92A1.97 1.97 0 0 1 56 86.82c0-1.01.96-1.92 2.02-1.92 1.17 0 2.03.9 2.03 1.92ZM60.05 97.5c0 1.12-.96 1.93-2.03 1.93A1.97 1.97 0 0 1 56 97.51c0-1.11.96-1.92 2.02-1.92 1.17 0 2.03.8 2.03 1.92ZM60.05 108.04c0 1.11-.96 1.92-2.03 1.92a1.97 1.97 0 0 1-2.02-1.92c0-1.11.96-1.92 2.02-1.92 1.17 0 2.03.91 2.03 1.92ZM60.05 118.73c0 1.11-.96 1.92-2.03 1.92a1.97 1.97 0 0 1-2.02-1.92c0-1.1.96-1.92 2.02-1.92 1.17 0 2.03.81 2.03 1.92ZM60.05 129.27c0 1.1-.96 1.92-2.03 1.92a1.97 1.97 0 0 1-2.02-1.92c0-1.12.96-1.93 2.02-1.93 1.17 0 2.03.92 2.03 1.93ZM60.05 139.96c0 1-.96 1.92-2.03 1.92a1.97 1.97 0 0 1-2.02-1.92c0-1.12.96-1.92 2.02-1.92 1.17 0 2.03.8 2.03 1.92ZM48.94 65.6c0 1.1-.96 1.92-2.02 1.92a1.97 1.97 0 0 1-2.03-1.93c0-1.1.96-1.92 2.03-1.92 1.06 0 2.02.91 2.02 1.92ZM48.94 76.28c0 1.12-.96 1.93-2.02 1.93a1.97 1.97 0 0 1-2.03-1.93c0-1.1.96-1.92 2.03-1.92 1.06 0 2.02.81 2.02 1.92ZM48.94 86.82c0 1.11-.96 1.92-2.02 1.92a1.97 1.97 0 0 1-2.03-1.92c0-1.01.96-1.92 2.03-1.92 1.06 0 2.02.9 2.02 1.92ZM48.94 97.5c0 1.12-.96 1.93-2.02 1.93a1.97 1.97 0 0 1-2.03-1.92c0-1.11.96-1.92 2.03-1.92 1.06 0 2.02.8 2.02 1.92ZM48.94 108.04c0 1.11-.96 1.92-2.02 1.92a1.97 1.97 0 0 1-2.03-1.92c0-1.11.96-1.92 2.03-1.92 1.06 0 2.02.91 2.02 1.92ZM48.94 118.73c0 1.12-.96 1.92-2.02 1.92a1.97 1.97 0 0 1-2.03-1.92c0-1.1.96-1.92 2.03-1.92 1.06 0 2.02.81 2.02 1.92ZM48.94 129.27c0 1.1-.96 1.92-2.02 1.92a1.97 1.97 0 0 1-2.03-1.92c0-1.12.96-1.93 2.03-1.93 1.06 0 2.02.92 2.02 1.93ZM48.94 139.96c0 1-.96 1.92-2.02 1.92a1.97 1.97 0 0 1-2.03-1.92c0-1.12.96-1.92 2.03-1.92 1.06 0 2.02.8 2.02 1.92ZM48.94 150.5c0 1.1-.96 1.91-2.02 1.91a1.97 1.97 0 0 1-2.03-1.92c0-1.11.96-1.92 2.03-1.92 1.06 0 2.02.91 2.02 1.92ZM37.68 65.6c0 1.1-.96 1.92-2.03 1.92a1.97 1.97 0 0 1-2.02-1.93c0-1.1.96-1.92 2.02-1.92 1.18 0 2.03.91 2.03 1.92ZM37.68 76.28c0 1.12-.96 1.93-2.03 1.93a1.97 1.97 0 0 1-2.02-1.93c0-1.1.96-1.92 2.02-1.92 1.18 0 2.03.81 2.03 1.92ZM37.68 86.82c0 1.11-.96 1.92-2.03 1.92a1.97 1.97 0 0 1-2.02-1.92c0-1.01.96-1.92 2.02-1.92 1.18 0 2.03.9 2.03 1.92ZM37.68 97.5c0 1.12-.96 1.93-2.03 1.93a1.97 1.97 0 0 1-2.02-1.92c0-1.11.96-1.92 2.02-1.92 1.18 0 2.03.8 2.03 1.92ZM37.68 108.04c0 1.11-.96 1.92-2.03 1.92a1.97 1.97 0 0 1-2.02-1.92c0-1.11.96-1.92 2.02-1.92 1.18 0 2.03.91 2.03 1.92ZM37.68 118.73c0 1.11-.96 1.92-2.03 1.92a1.97 1.97 0 0 1-2.02-1.92c0-1.1.96-1.92 2.02-1.92 1.18 0 2.03.81 2.03 1.92ZM37.68 129.27c0 1.1-.96 1.92-2.03 1.92a1.97 1.97 0 0 1-2.02-1.92c0-1.12.96-1.93 2.02-1.93 1.18 0 2.03.92 2.03 1.93ZM37.68 139.96c0 1-.96 1.92-2.03 1.92a1.97 1.97 0 0 1-2.02-1.92c0-1.12.96-1.92 2.02-1.92 1.18 0 2.03.8 2.03 1.92ZM37.68 150.5c0 1.1-.96 1.91-2.03 1.91a1.97 1.97 0 0 1-2.02-1.92c0-1.11.96-1.92 2.02-1.92 1.18 0 2.03.91 2.03 1.92ZM26.58 76.28c0 1.12-.96 1.93-2.03 1.93a1.97 1.97 0 0 1-2.02-1.93c0-1.1.96-1.92 2.02-1.92 1.07 0 2.03.81 2.03 1.92ZM26.58 86.82c0 1.11-.96 1.92-2.03 1.92a1.97 1.97 0 0 1-2.02-1.92c0-1.01.96-1.92 2.02-1.92 1.07 0 2.03.9 2.03 1.92ZM26.58 97.5c0 1.12-.96 1.93-2.03 1.93a1.97 1.97 0 0 1-2.02-1.92c0-1.11.96-1.92 2.02-1.92 1.07 0 2.03.8 2.03 1.92ZM26.58 108.04c0 1.11-.96 1.92-2.03 1.92a1.97 1.97 0 0 1-2.02-1.92c0-1.11.96-1.92 2.02-1.92 1.07 0 2.03.91 2.03 1.92ZM26.58 118.73c0 1.12-.96 1.92-2.03 1.92a1.97 1.97 0 0 1-2.02-1.92c0-1.1.96-1.92 2.02-1.92 1.07 0 2.03.81 2.03 1.92ZM26.58 129.27c0 1.1-.96 1.92-2.03 1.92a1.97 1.97 0 0 1-2.02-1.92c0-1.12.96-1.93 2.02-1.93 1.07 0 2.03.92 2.03 1.93ZM26.58 139.96c0 1-.96 1.92-2.03 1.92a1.97 1.97 0 0 1-2.02-1.92c0-1.12.96-1.92 2.02-1.92 1.07 0 2.03.8 2.03 1.92ZM26.58 150.5c0 1.1-.96 1.91-2.03 1.91a1.97 1.97 0 0 1-2.02-1.92c0-1.11.96-1.92 2.02-1.92 1.07 0 2.03.91 2.03 1.92ZM26.58 161.18c0 1.01-.96 1.92-2.03 1.92a1.97 1.97 0 0 1-2.02-1.92c0-1.11.96-1.92 2.02-1.92 1.07 0 2.03.8 2.03 1.92ZM15.31 86.82c0 1.11-.95 1.92-2.02 1.92a1.97 1.97 0 0 1-2.02-1.92c0-1.01.95-1.92 2.02-1.92 1.17 0 2.02.9 2.02 1.92ZM15.31 97.5c0 1.12-.95 1.93-2.02 1.93a1.97 1.97 0 0 1-2.02-1.92c0-1.11.95-1.92 2.02-1.92 1.17 0 2.02.8 2.02 1.92ZM15.31 108.04c0 1.11-.95 1.92-2.02 1.92a1.97 1.97 0 0 1-2.02-1.92c0-1.11.95-1.92 2.02-1.92 1.17 0 2.02.91 2.02 1.92ZM15.31 118.73c0 1.11-.95 1.92-2.02 1.92a1.97 1.97 0 0 1-2.02-1.92c0-1.1.95-1.92 2.02-1.92 1.17 0 2.02.81 2.02 1.92ZM15.31 129.27c0 1.1-.95 1.92-2.02 1.92a1.97 1.97 0 0 1-2.02-1.92c0-1.12.95-1.93 2.02-1.93 1.17 0 2.02.92 2.02 1.93ZM15.31 161.18c0 1.01-.95 1.92-2.02 1.92a1.97 1.97 0 0 1-2.02-1.92c0-1.11.95-1.92 2.02-1.92 1.17 0 2.02.8 2.02 1.92ZM4.05 86.82c0 1.11-.96 1.92-2.03 1.92A1.97 1.97 0 0 1 0 86.82c0-1.01.96-1.92 2.02-1.92 1.18 0 2.03.9 2.03 1.92ZM4.05 97.5c0 1.12-.96 1.93-2.03 1.93A1.97 1.97 0 0 1 0 97.51c0-1.11.96-1.92 2.02-1.92 1.18 0 2.03.8 2.03 1.92ZM4.05 108.04c0 1.11-.96 1.92-2.03 1.92A1.97 1.97 0 0 1 0 108.04c0-1.11.96-1.92 2.02-1.92 1.18 0 2.03.91 2.03 1.92ZM4.05 161.18c0 1.01-.96 1.92-2.03 1.92A1.97 1.97 0 0 1 0 161.18c0-1.11.96-1.92 2.02-1.92 1.18 0 2.03.8 2.03 1.92ZM4.05 171.72c0 1.1-.96 1.92-2.03 1.92A1.97 1.97 0 0 1 0 171.72c0-1.12.96-1.93 2.02-1.93 1.18 0 2.03.91 2.03 1.93ZM384.58 608c0 1.1-.95 1.91-2.02 1.91a1.97 1.97 0 0 1-2.02-1.92c0-1.11.95-1.92 2.02-1.92s2.02.91 2.02 1.92Z" fill="#000"/></mask><g mask="url(#a)"><path fill="url(#b)" d="M0 0h497v610H0z"/></g><defs><linearGradient id="b" x1="58.81" y1="77.04" x2="397.41" y2="560.91" gradientUnits="userSpaceOnUse"><stop stop-color="#7bf2da"/><stop offset=".51" stop-color="#5DB6E1"/><stop offset="1" stop-color="#B896FF"/></linearGradient></defs></svg>