<svg width="138" height="297" fill="none" xmlns="http://www.w3.org/2000/svg">
    <path opacity=".6" fill-rule="evenodd" clip-rule="evenodd"
          d="M0 2.6a2.6 2.6 0 1 0 5.19 0A2.6 2.6 0 0 0 0 2.6Zm81.6 2.59a2.6 2.6 0 1 1 0-5.19 2.6 2.6 0 0 1 0 5.19Zm26.9.17a2.68 2.68 0 1 1 0-5.36 2.68 2.68 0 0 1 0 5.36ZM79 29.5a2.68 2.68 0 1 0 5.36 0 2.68 2.68 0 0 0-5.36 0Zm0 26.82a2.68 2.68 0 1 0 5.36 0 2.68 2.68 0 0 0-5.36 0Zm26.82-26.82a2.68 2.68 0 1 0 5.36 0 2.68 2.68 0 0 0-5.36 0ZM108.5 59a2.68 2.68 0 1 1 0-5.36 2.68 2.68 0 0 1 0 5.36Zm24.14-56.32a2.68 2.68 0 1 0 5.36 0 2.68 2.68 0 0 0-5.36 0Zm2.68 29.5a2.68 2.68 0 1 1 0-5.36 2.68 2.68 0 0 1 0 5.36Zm-2.68 24.14a2.68 2.68 0 1 0 5.36 0 2.68 2.68 0 0 0-5.36 0ZM0 81.59a2.6 2.6 0 1 0 5.19 0 2.6 2.6 0 0 0-5.19 0Zm26.82.1a2.68 2.68 0 1 0 5.36 0 2.68 2.68 0 0 0-5.36 0Zm-24.14 29.5a2.68 2.68 0 1 1 0-5.37 2.68 2.68 0 0 1 0 5.36Zm0 26.81a2.68 2.68 0 1 1 0-5.36 2.68 2.68 0 0 1 0 5.36Zm26.82-26.82a2.68 2.68 0 1 1 0-5.36 2.68 2.68 0 0 1 0 5.36Zm-2.68 24.14a2.68 2.68 0 1 0 5.36 0 2.68 2.68 0 0 0-5.36 0Zm29.5-50.96a2.68 2.68 0 1 1 0-5.36 2.68 2.68 0 0 1 0 5.36Zm-2.68 24.14a2.68 2.68 0 1 0 5.36 0 2.68 2.68 0 0 0-5.36 0Zm2.68 29.5a2.68 2.68 0 1 1 0-5.36 2.68 2.68 0 0 1 0 5.36ZM26.82 2.68a2.68 2.68 0 1 0 5.36 0 2.68 2.68 0 0 0-5.36 0ZM2.68 32.18a2.68 2.68 0 1 1 0-5.36 2.68 2.68 0 0 1 0 5.36Zm0 26.82a2.68 2.68 0 1 1 0-5.36 2.68 2.68 0 0 1 0 5.36ZM29.5 32.18a2.68 2.68 0 1 1 0-5.36 2.68 2.68 0 0 1 0 5.36Zm-2.68 24.14a2.68 2.68 0 1 0 5.36 0 2.68 2.68 0 0 0-5.36 0Zm29.5-50.96a2.68 2.68 0 1 1 0-5.36 2.68 2.68 0 0 1 0 5.36ZM53.64 29.5a2.68 2.68 0 1 0 5.36 0 2.68 2.68 0 0 0-5.36 0ZM56.32 59a2.68 2.68 0 1 1 0-5.36 2.68 2.68 0 0 1 0 5.36ZM79 81.6a2.6 2.6 0 1 0 5.19 0 2.6 2.6 0 0 0-5.19 0Zm26.82.08a2.68 2.68 0 1 0 5.36 0 2.68 2.68 0 0 0-5.36 0Zm-24.14 29.5a2.68 2.68 0 1 1 0-5.36 2.68 2.68 0 0 1 0 5.36Zm0 26.82a2.68 2.68 0 1 1 0-5.36 2.68 2.68 0 0 1 0 5.36Zm26.82-26.82a2.68 2.68 0 1 1 0-5.36 2.68 2.68 0 0 1 0 5.36Zm-2.68 24.14a2.68 2.68 0 1 0 5.36 0 2.68 2.68 0 0 0-5.36 0Zm29.5-50.96a2.68 2.68 0 1 1 0-5.36 2.68 2.68 0 0 1 0 5.36Zm-2.68 24.14a2.68 2.68 0 1 0 5.36 0 2.68 2.68 0 0 0-5.36 0Zm2.68 29.5a2.68 2.68 0 1 1 0-5.37 2.68 2.68 0 0 1 0 5.37Z"
          fill="url(#a)"/>
    <path opacity=".6" fill-rule="evenodd" clip-rule="evenodd"
          d="M0 161.6a2.6 2.6 0 1 0 5.19 0 2.6 2.6 0 0 0-5.19 0Zm81.6 2.59a2.6 2.6 0 1 1 0-5.19 2.6 2.6 0 0 1 0 5.19Zm26.9.17a2.68 2.68 0 1 1 0-5.36 2.68 2.68 0 0 1 0 5.36ZM79 188.5a2.68 2.68 0 1 0 5.36 0 2.68 2.68 0 0 0-5.36 0Zm0 26.82a2.68 2.68 0 1 0 5.36 0 2.68 2.68 0 0 0-5.36 0Zm26.82-26.82a2.68 2.68 0 1 0 5.36 0 2.68 2.68 0 0 0-5.36 0Zm2.68 29.5a2.68 2.68 0 1 1 0-5.37 2.68 2.68 0 0 1 0 5.37Zm24.14-56.32a2.68 2.68 0 1 0 5.36 0 2.68 2.68 0 0 0-5.36 0Zm2.68 29.5a2.68 2.68 0 1 1 0-5.36 2.68 2.68 0 0 1 0 5.36Zm-2.68 24.14a2.68 2.68 0 1 0 5.36 0 2.68 2.68 0 0 0-5.36 0ZM0 240.59a2.6 2.6 0 1 0 5.19 0 2.6 2.6 0 0 0-5.19 0Zm26.82.1a2.68 2.68 0 1 0 5.36 0 2.68 2.68 0 0 0-5.36 0Zm-24.14 29.5a2.68 2.68 0 1 1 0-5.37 2.68 2.68 0 0 1 0 5.36Zm0 26.81a2.68 2.68 0 1 1 0-5.36 2.68 2.68 0 0 1 0 5.36Zm26.82-26.82a2.68 2.68 0 1 1 0-5.36 2.68 2.68 0 0 1 0 5.36Zm-2.68 24.14a2.68 2.68 0 1 0 5.36 0 2.68 2.68 0 0 0-5.36 0Zm29.5-50.96a2.68 2.68 0 1 1 0-5.36 2.68 2.68 0 0 1 0 5.36Zm-2.68 24.14a2.68 2.68 0 1 0 5.36 0 2.68 2.68 0 0 0-5.36 0Zm2.68 29.5a2.68 2.68 0 1 1 0-5.36 2.68 2.68 0 0 1 0 5.36Zm-29.5-135.32a2.68 2.68 0 1 0 5.36 0 2.68 2.68 0 0 0-5.36 0Zm-24.14 29.5a2.68 2.68 0 1 1 0-5.36 2.68 2.68 0 0 1 0 5.36Zm0 26.82a2.68 2.68 0 1 1 0-5.36 2.68 2.68 0 0 1 0 5.36Zm26.82-26.82a2.68 2.68 0 1 1 0-5.36 2.68 2.68 0 0 1 0 5.36Zm-2.68 24.14a2.68 2.68 0 1 0 5.36 0 2.68 2.68 0 0 0-5.36 0Zm29.5-50.96a2.68 2.68 0 1 1 0-5.36 2.68 2.68 0 0 1 0 5.36Zm-2.68 24.14a2.68 2.68 0 1 0 5.36 0 2.68 2.68 0 0 0-5.36 0Zm2.68 29.5a2.68 2.68 0 1 1 0-5.36 2.68 2.68 0 0 1 0 5.36ZM79 240.6a2.6 2.6 0 1 0 5.19 0 2.6 2.6 0 0 0-5.19 0Zm26.82.08a2.68 2.68 0 1 0 5.36 0 2.68 2.68 0 0 0-5.36 0Zm-24.14 29.5a2.68 2.68 0 1 1 0-5.36 2.68 2.68 0 0 1 0 5.36Zm0 26.82a2.68 2.68 0 1 1 0-5.36 2.68 2.68 0 0 1 0 5.36Zm26.82-26.82a2.68 2.68 0 1 1 0-5.36 2.68 2.68 0 0 1 0 5.36Zm-2.68 24.14a2.68 2.68 0 1 0 5.36 0 2.68 2.68 0 0 0-5.36 0Zm29.5-50.96a2.68 2.68 0 1 1 0-5.36 2.68 2.68 0 0 1 0 5.36Zm-2.68 24.14a2.68 2.68 0 1 0 5.36 0 2.68 2.68 0 0 0-5.36 0Zm2.68 29.5a2.68 2.68 0 1 1 0-5.37 2.68 2.68 0 0 1 0 5.37Z"
          fill="url(#b)"/>
    <defs>
        <linearGradient id="a" x1="0" y1="69" x2="138" y2="69" gradientUnits="userSpaceOnUse">
            <stop stop-color="#7bf2da"/>
            <stop offset="1" stop-color="#5FB4E5"/>
        </linearGradient>
        <linearGradient id="b" x1="0" y1="228" x2="138" y2="228" gradientUnits="userSpaceOnUse">
            <stop stop-color="#7bf2da"/>
            <stop offset="1" stop-color="#5FB4E5"/>
        </linearGradient>
    </defs>
</svg>