<svg width="138" height="139" fill="none" xmlns="http://www.w3.org/2000/svg">
    <path opacity=".6" fill-rule="evenodd" clip-rule="evenodd"
          d="M0 3.03a2.6 2.6 0 1 0 5.2 0 2.6 2.6 0 0 0-5.2 0Zm81.6 2.6a2.6 2.6 0 1 1 0-5.2 2.6 2.6 0 0 1 0 5.2Zm26.9.17a2.68 2.68 0 1 1 0-5.37 2.68 2.68 0 0 1 0 5.37ZM79 29.98a2.68 2.68 0 1 0 5.37 0 2.68 2.68 0 0 0-5.37 0Zm0 26.87a2.68 2.68 0 1 0 5.37 0 2.68 2.68 0 0 0-5.37 0Zm26.82-26.87a2.68 2.68 0 1 0 5.37 0 2.68 2.68 0 0 0-5.37 0Zm2.68 29.56a2.68 2.68 0 1 1 0-5.37 2.68 2.68 0 0 1 0 5.37Zm24.14-56.42a2.68 2.68 0 1 0 5.37 0 2.68 2.68 0 0 0-5.37 0Zm2.68 29.55a2.68 2.68 0 1 1 0-5.37 2.68 2.68 0 0 1 0 5.37Zm-2.68 24.18a2.68 2.68 0 1 0 5.37 0 2.68 2.68 0 0 0-5.37 0ZM0 82.17a2.6 2.6 0 1 0 5.2 0 2.6 2.6 0 0 0-5.2 0Zm26.82.1a2.68 2.68 0 1 0 5.37 0 2.68 2.68 0 0 0-5.37 0ZM2.68 111.81a2.68 2.68 0 1 1 0-5.37 2.68 2.68 0 0 1 0 5.37Zm0 26.87a2.68 2.68 0 1 1 0-5.37 2.68 2.68 0 0 1 0 5.37Zm26.82-26.87a2.68 2.68 0 1 1 0-5.37 2.68 2.68 0 0 1 0 5.37ZM26.82 136a2.68 2.68 0 1 0 5.37 0 2.68 2.68 0 0 0-5.37 0Zm29.5-51.05a2.68 2.68 0 1 1 0-5.37 2.68 2.68 0 0 1 0 5.37Zm-2.68 24.18a2.68 2.68 0 1 0 5.36 0 2.68 2.68 0 0 0-5.36 0Zm2.68 29.56a2.68 2.68 0 1 1 0-5.37 2.68 2.68 0 0 1 0 5.37ZM26.82 3.12a2.68 2.68 0 1 0 5.37 0 2.68 2.68 0 0 0-5.37 0ZM2.68 32.67a2.68 2.68 0 1 1 0-5.37 2.68 2.68 0 0 1 0 5.37Zm0 26.87a2.68 2.68 0 1 1 0-5.37 2.68 2.68 0 0 1 0 5.37ZM29.5 32.67a2.68 2.68 0 1 1 0-5.37 2.68 2.68 0 0 1 0 5.37Zm-2.68 24.18a2.68 2.68 0 1 0 5.37 0 2.68 2.68 0 0 0-5.37 0ZM56.32 5.8a2.68 2.68 0 1 1 0-5.37 2.68 2.68 0 0 1 0 5.37Zm-2.68 24.18a2.68 2.68 0 1 0 5.36 0 2.68 2.68 0 0 0-5.36 0Zm2.68 29.56a2.68 2.68 0 1 1 0-5.37 2.68 2.68 0 0 1 0 5.37ZM79 82.17a2.6 2.6 0 1 0 5.2 0 2.6 2.6 0 0 0-5.2 0Zm26.82.1a2.68 2.68 0 1 0 5.37 0 2.68 2.68 0 0 0-5.37 0Zm-24.14 29.55a2.68 2.68 0 1 1 0-5.37 2.68 2.68 0 0 1 0 5.37Zm0 26.87a2.68 2.68 0 1 1 0-5.37 2.68 2.68 0 0 1 0 5.37Zm26.82-26.87a2.68 2.68 0 1 1 0-5.37 2.68 2.68 0 0 1 0 5.37ZM105.82 136a2.68 2.68 0 1 0 5.37 0 2.68 2.68 0 0 0-5.37 0Zm29.5-51.05a2.68 2.68 0 1 1 0-5.37 2.68 2.68 0 0 1 0 5.37Zm-2.68 24.18a2.68 2.68 0 1 0 5.36 0 2.68 2.68 0 0 0-5.36 0Zm2.68 29.56a2.68 2.68 0 1 1 0-5.37 2.68 2.68 0 0 1 0 5.37Z"
          fill="url(#a)"/>
    <defs>
        <linearGradient id="a" x1="0" y1="69.56" x2="138" y2="69.56" gradientUnits="userSpaceOnUse">
            <stop stop-color="#7bf2da"/>
            <stop offset="1" stop-color="#5FB4E5"/>
        </linearGradient>
    </defs>
</svg>