<svg width="17" height="17" viewBox="0 0 17 17" fill="none" xmlns="http://www.w3.org/2000/svg">
<path fill-rule="evenodd" clip-rule="evenodd" d="M3.32687 2.72128C3.03817 2.42425 2.56334 2.41751 2.26632 2.70621C1.9693 2.99491 1.96255 3.46974 2.25125 3.76676L6.84738 8.49536L2.25125 13.224C1.96255 13.521 1.9693 13.9958 2.26632 14.2845C2.56334 14.5732 3.03817 14.5665 3.32687 14.2694L7.90814 9.55613L12.7687 14.2843C13.0656 14.5731 13.5404 14.5666 13.8292 14.2697C14.118 13.9728 14.1115 13.4979 13.8146 13.2091L8.96889 8.49536L13.8146 3.78162C14.1115 3.4928 14.118 3.01797 13.8292 2.72106C13.5404 2.42415 13.0656 2.4176 12.7687 2.70642L7.90814 7.43459L3.32687 2.72128Z" fill="url(#paint0_linear_3193_339)"/>
<defs>
<linearGradient id="paint0_linear_3193_339" x1="2.03906" y1="8.49536" x2="14.0416" y2="8.49536" gradientUnits="userSpaceOnUse">
<stop stop-color="#7bf2da"/>
<stop offset="1" stop-color="#5FB4E5"/>
</linearGradient>
</defs>
</svg>
