<svg width="17" height="15" fill="none" xmlns="http://www.w3.org/2000/svg">
    <path fill-rule="evenodd" clip-rule="evenodd"
          d="M8.5 11.2a.48.48 0 0 1-.32-.14L5.26 8.31a.42.42 0 0 1 0-.61.48.48 0 0 1 .65 0l2.13 2.01V.93c0-.24.2-.43.46-.43.25 0 .46.2.46.43v8.78l2.13-2.01a.48.48 0 0 1 .65 0c.18.17.18.44 0 .61l-2.92 2.75a.46.46 0 0 1-.32.13Zm7.08-3.44c0-.24.2-.43.46-.43s.46.19.46.43v3.93c0 1.55-1.33 2.81-2.97 2.81H3.47C1.83 14.5.5 13.24.5 11.7v-4c0-.25.2-.44.46-.44.25 0 .46.2.46.43v4c0 1.07.92 1.94 2.05 1.94h10.06c1.13 0 2.05-.86 2.05-1.94V7.76Z"
          fill="#000"/>
</svg>