<svg xmlns="http://www.w3.org/2000/svg" width="608" height="290" viewBox="0 0 608 290">
    <g fill="none" fill-rule="evenodd">
        <g fill="#415464" opacity=".4">
            <path d="M216.592 282.818l.19.005c1.831.096 3.299 1.564 3.395 3.395l.005.191-.005.19c-.096 1.832-1.564 3.3-3.395 3.396l-.19.005-.191-.005c-1.896-.1-3.401-1.666-3.401-3.586 0-1.983 1.607-3.59 3.592-3.59zm35.909 0l.19.005c1.831.096 3.3 1.564 3.395 3.395l.005.191-.005.19c-.096 1.832-1.564 3.3-3.395 3.396l-.19.005-.191-.005c-1.895-.1-3.4-1.666-3.4-3.586 0-1.983 1.607-3.59 3.59-3.59zm35.909 0l.19.005c1.831.096 3.3 1.564 3.395 3.395l.005.191-.005.19c-.096 1.832-1.564 3.3-3.395 3.396l-.19.005-.191-.005c-1.895-.1-3.4-1.666-3.4-3.586 0-1.983 1.607-3.59 3.59-3.59zm-71.818-35.909l.19.005c1.831.096 3.299 1.564 3.395 3.395l.005.191-.005.19c-.096 1.832-1.564 3.3-3.395 3.396l-.19.005-.191-.005c-1.896-.1-3.401-1.667-3.401-3.586 0-1.983 1.607-3.59 3.592-3.59zm35.909 0l.19.005c1.831.096 3.3 1.564 3.395 3.395l.005.191-.005.19c-.096 1.832-1.564 3.3-3.395 3.396l-.19.005-.191-.005c-1.895-.1-3.4-1.667-3.4-3.586 0-1.983 1.607-3.59 3.59-3.59zm35.909 0l.19.005c1.831.096 3.3 1.564 3.395 3.395l.005.191-.005.19c-.096 1.832-1.564 3.3-3.395 3.396l-.19.005-.191-.005c-1.895-.1-3.4-1.667-3.4-3.586 0-1.983 1.607-3.59 3.59-3.59zM216.592 211l.19.005c1.894.1 3.4 1.667 3.4 3.586l-.005.19c-.1 1.895-1.667 3.4-3.585 3.4l-.191-.004c-1.896-.1-3.401-1.667-3.401-3.586 0-1.983 1.607-3.591 3.592-3.591zm35.909 0l.19.005c1.831.096 3.3 1.564 3.395 3.395l.005.19-.005.192c-.096 1.831-1.564 3.299-3.395 3.395l-.19.005-.191-.005c-1.895-.1-3.4-1.667-3.4-3.586 0-1.983 1.607-3.591 3.59-3.591zm35.909 0l.19.005c1.831.096 3.3 1.564 3.395 3.395l.005.19-.005.192c-.096 1.831-1.564 3.299-3.395 3.395l-.19.005-.191-.005c-1.895-.1-3.4-1.667-3.4-3.586 0-1.983 1.607-3.591 3.59-3.591zM109.592 282.818l.19.005c1.831.096 3.299 1.564 3.395 3.395l.005.191-.005.19c-.096 1.832-1.564 3.3-3.395 3.396l-.19.005-.191-.005c-1.896-.1-3.401-1.666-3.401-3.586 0-1.983 1.607-3.59 3.592-3.59zm35.909 0l.19.005c1.831.096 3.3 1.564 3.395 3.395l.005.191-.005.19c-.096 1.832-1.564 3.3-3.395 3.396l-.19.005-.191-.005c-1.895-.1-3.4-1.666-3.4-3.586 0-1.983 1.607-3.59 3.59-3.59zm35.909 0l.19.005c1.831.096 3.3 1.564 3.395 3.395l.005.191-.005.19c-.096 1.832-1.564 3.3-3.395 3.396l-.19.005-.191-.005c-1.895-.1-3.4-1.666-3.4-3.586 0-1.983 1.607-3.59 3.59-3.59zm-71.818-35.909l.19.005c1.831.096 3.299 1.564 3.395 3.395l.005.191-.005.19c-.096 1.832-1.564 3.3-3.395 3.396l-.19.005-.191-.005c-1.896-.1-3.401-1.667-3.401-3.586 0-1.983 1.607-3.59 3.592-3.59zm35.909 0l.19.005c1.831.096 3.3 1.564 3.395 3.395l.005.191-.005.19c-.096 1.832-1.564 3.3-3.395 3.396l-.19.005-.191-.005c-1.895-.1-3.4-1.667-3.4-3.586 0-1.983 1.607-3.59 3.59-3.59zm35.909 0l.19.005c1.831.096 3.3 1.564 3.395 3.395l.005.191-.005.19c-.096 1.832-1.564 3.3-3.395 3.396l-.19.005-.191-.005c-1.895-.1-3.4-1.667-3.4-3.586 0-1.983 1.607-3.59 3.59-3.59zM109.592 211l.19.005c1.894.1 3.4 1.667 3.4 3.586l-.005.19c-.1 1.895-1.667 3.4-3.585 3.4l-.191-.004c-1.896-.1-3.401-1.667-3.401-3.586 0-1.983 1.607-3.591 3.592-3.591zm35.909 0l.19.005c1.831.096 3.3 1.564 3.395 3.395l.005.19-.005.192c-.096 1.831-1.564 3.299-3.395 3.395l-.19.005-.191-.005c-1.895-.1-3.4-1.667-3.4-3.586 0-1.983 1.607-3.591 3.59-3.591zm35.909 0l.19.005c1.831.096 3.3 1.564 3.395 3.395l.005.19-.005.192c-.096 1.831-1.564 3.299-3.395 3.395l-.19.005-.191-.005c-1.895-.1-3.4-1.667-3.4-3.586 0-1.983 1.607-3.591 3.59-3.591zM216.592 176.818l.19.005c1.831.096 3.299 1.564 3.395 3.395l.005.191-.005.19c-.096 1.832-1.564 3.3-3.395 3.396l-.19.005-.191-.005c-1.896-.1-3.401-1.666-3.401-3.586 0-1.983 1.607-3.59 3.592-3.59zm35.909 0l.19.005c1.831.096 3.3 1.564 3.395 3.395l.005.191-.005.19c-.096 1.832-1.564 3.3-3.395 3.396l-.19.005-.191-.005c-1.895-.1-3.4-1.666-3.4-3.586 0-1.983 1.607-3.59 3.59-3.59zm35.909 0l.19.005c1.831.096 3.3 1.564 3.395 3.395l.005.191-.005.19c-.096 1.832-1.564 3.3-3.395 3.396l-.19.005-.191-.005c-1.895-.1-3.4-1.666-3.4-3.586 0-1.983 1.607-3.59 3.59-3.59zm-71.818-35.909l.19.005c1.831.096 3.299 1.564 3.395 3.395l.005.191-.005.19c-.096 1.832-1.564 3.3-3.395 3.396l-.19.005-.191-.005c-1.896-.1-3.401-1.667-3.401-3.586 0-1.983 1.607-3.59 3.592-3.59zm35.909 0l.19.005c1.831.096 3.3 1.564 3.395 3.395l.005.191-.005.19c-.096 1.832-1.564 3.3-3.395 3.396l-.19.005-.191-.005c-1.895-.1-3.4-1.667-3.4-3.586 0-1.983 1.607-3.59 3.59-3.59zm35.909 0l.19.005c1.831.096 3.3 1.564 3.395 3.395l.005.191-.005.19c-.096 1.832-1.564 3.3-3.395 3.396l-.19.005-.191-.005c-1.895-.1-3.4-1.667-3.4-3.586 0-1.983 1.607-3.59 3.59-3.59zM216.592 105l.19.005c1.894.1 3.4 1.667 3.4 3.586l-.005.19c-.1 1.895-1.667 3.4-3.585 3.4l-.191-.004c-1.896-.1-3.401-1.667-3.401-3.586 0-1.983 1.607-3.591 3.592-3.591zm35.909 0l.19.005c1.831.096 3.3 1.564 3.395 3.395l.005.19-.005.192c-.096 1.831-1.564 3.299-3.395 3.395l-.19.005-.191-.005c-1.895-.1-3.4-1.667-3.4-3.586 0-1.983 1.607-3.591 3.59-3.591zm35.909 0l.19.005c1.831.096 3.3 1.564 3.395 3.395l.005.19-.005.192c-.096 1.831-1.564 3.299-3.395 3.395l-.19.005-.191-.005c-1.895-.1-3.4-1.667-3.4-3.586 0-1.983 1.607-3.591 3.59-3.591zM109.592 176.818l.19.005c1.831.096 3.299 1.564 3.395 3.395l.005.191-.005.19c-.096 1.832-1.564 3.3-3.395 3.396l-.19.005-.191-.005c-1.896-.1-3.401-1.666-3.401-3.586 0-1.983 1.607-3.59 3.592-3.59zm35.909 0l.19.005c1.831.096 3.3 1.564 3.395 3.395l.005.191-.005.19c-.096 1.832-1.564 3.3-3.395 3.396l-.19.005-.191-.005c-1.895-.1-3.4-1.666-3.4-3.586 0-1.983 1.607-3.59 3.59-3.59zm35.909 0l.19.005c1.831.096 3.3 1.564 3.395 3.395l.005.191-.005.19c-.096 1.832-1.564 3.3-3.395 3.396l-.19.005-.191-.005c-1.895-.1-3.4-1.666-3.4-3.586 0-1.983 1.607-3.59 3.59-3.59zm-71.818-35.909l.19.005c1.831.096 3.299 1.564 3.395 3.395l.005.191-.005.19c-.096 1.832-1.564 3.3-3.395 3.396l-.19.005-.191-.005c-1.896-.1-3.401-1.667-3.401-3.586 0-1.983 1.607-3.59 3.592-3.59zm35.909 0l.19.005c1.831.096 3.3 1.564 3.395 3.395l.005.191-.005.19c-.096 1.832-1.564 3.3-3.395 3.396l-.19.005-.191-.005c-1.895-.1-3.4-1.667-3.4-3.586 0-1.983 1.607-3.59 3.59-3.59zm35.909 0l.19.005c1.831.096 3.3 1.564 3.395 3.395l.005.191-.005.19c-.096 1.832-1.564 3.3-3.395 3.396l-.19.005-.191-.005c-1.895-.1-3.4-1.667-3.4-3.586 0-1.983 1.607-3.59 3.59-3.59zM109.592 105l.19.005c1.894.1 3.4 1.667 3.4 3.586l-.005.19c-.1 1.895-1.667 3.4-3.585 3.4l-.191-.004c-1.896-.1-3.401-1.667-3.401-3.586 0-1.983 1.607-3.591 3.592-3.591zm35.909 0l.19.005c1.831.096 3.3 1.564 3.395 3.395l.005.19-.005.192c-.096 1.831-1.564 3.299-3.395 3.395l-.19.005-.191-.005c-1.895-.1-3.4-1.667-3.4-3.586 0-1.983 1.607-3.591 3.59-3.591zm35.909 0l.19.005c1.831.096 3.3 1.564 3.395 3.395l.005.19-.005.192c-.096 1.831-1.564 3.299-3.395 3.395l-.19.005-.191-.005c-1.895-.1-3.4-1.667-3.4-3.586 0-1.983 1.607-3.591 3.59-3.591zM3.592 282.818l.19.005c1.831.096 3.299 1.564 3.395 3.395l.005.191-.005.19c-.096 1.832-1.564 3.3-3.395 3.396l-.19.005-.191-.005c-1.896-.1-3.401-1.666-3.401-3.586 0-1.983 1.607-3.59 3.592-3.59zm35.909 0l.19.005c1.831.096 3.3 1.564 3.395 3.395l.005.191-.005.19c-.096 1.832-1.564 3.3-3.395 3.396l-.19.005-.191-.005c-1.895-.1-3.4-1.666-3.4-3.586 0-1.983 1.607-3.59 3.59-3.59zm35.909 0l.19.005c1.831.096 3.3 1.564 3.395 3.395l.005.191-.005.19c-.096 1.832-1.564 3.3-3.395 3.396l-.19.005-.191-.005c-1.895-.1-3.4-1.666-3.4-3.586 0-1.983 1.607-3.59 3.59-3.59zM3.592 246.91l.19.005c1.831.096 3.299 1.564 3.395 3.395l.005.191-.005.19c-.096 1.832-1.564 3.3-3.395 3.396l-.19.005-.191-.005C1.505 253.986 0 252.419 0 250.5c0-1.983 1.607-3.59 3.592-3.59zm35.909 0l.19.005c1.831.096 3.3 1.564 3.395 3.395l.005.191-.005.19c-.096 1.832-1.564 3.3-3.395 3.396l-.19.005-.191-.005c-1.895-.1-3.4-1.667-3.4-3.586 0-1.983 1.607-3.59 3.59-3.59zm35.909 0l.19.005c1.831.096 3.3 1.564 3.395 3.395l.005.191-.005.19c-.096 1.832-1.564 3.3-3.395 3.396l-.19.005-.191-.005c-1.895-.1-3.4-1.667-3.4-3.586 0-1.983 1.607-3.59 3.59-3.59zM3.592 211l.19.005c1.894.1 3.4 1.667 3.4 3.586l-.005.19c-.1 1.895-1.667 3.4-3.585 3.4l-.191-.004C1.505 218.077 0 216.51 0 214.59 0 212.608 1.607 211 3.592 211zm35.909 0l.19.005c1.831.096 3.3 1.564 3.395 3.395l.005.19-.005.192c-.096 1.831-1.564 3.299-3.395 3.395l-.19.005-.191-.005c-1.895-.1-3.4-1.667-3.4-3.586 0-1.983 1.607-3.591 3.59-3.591zm35.909 0l.19.005c1.831.096 3.3 1.564 3.395 3.395l.005.19-.005.192c-.096 1.831-1.564 3.299-3.395 3.395l-.19.005-.191-.005c-1.895-.1-3.4-1.667-3.4-3.586 0-1.983 1.607-3.591 3.59-3.591zM3.592 176.818l.19.005c1.831.096 3.299 1.564 3.395 3.395l.005.191-.005.19c-.096 1.832-1.564 3.3-3.395 3.396l-.19.005-.191-.005c-1.896-.1-3.401-1.666-3.401-3.586 0-1.983 1.607-3.59 3.592-3.59zm35.909 0l.19.005c1.831.096 3.3 1.564 3.395 3.395l.005.191-.005.19c-.096 1.832-1.564 3.3-3.395 3.396l-.19.005-.191-.005c-1.895-.1-3.4-1.666-3.4-3.586 0-1.983 1.607-3.59 3.59-3.59zm35.909 0l.19.005c1.831.096 3.3 1.564 3.395 3.395l.005.191-.005.19c-.096 1.832-1.564 3.3-3.395 3.396l-.19.005-.191-.005c-1.895-.1-3.4-1.666-3.4-3.586 0-1.983 1.607-3.59 3.59-3.59zM3.592 140.91l.19.005c1.831.096 3.299 1.564 3.395 3.395l.005.191-.005.19c-.096 1.832-1.564 3.3-3.395 3.396l-.19.005-.191-.005C1.505 147.986 0 146.419 0 144.5c0-1.983 1.607-3.59 3.592-3.59zm35.909 0l.19.005c1.831.096 3.3 1.564 3.395 3.395l.005.191-.005.19c-.096 1.832-1.564 3.3-3.395 3.396l-.19.005-.191-.005c-1.895-.1-3.4-1.667-3.4-3.586 0-1.983 1.607-3.59 3.59-3.59zm35.909 0l.19.005c1.831.096 3.3 1.564 3.395 3.395l.005.191-.005.19c-.096 1.832-1.564 3.3-3.395 3.396l-.19.005-.191-.005c-1.895-.1-3.4-1.667-3.4-3.586 0-1.983 1.607-3.59 3.59-3.59zM3.592 105l.19.005c1.894.1 3.4 1.667 3.4 3.586l-.005.19c-.1 1.895-1.667 3.4-3.585 3.4l-.191-.004C1.505 112.077 0 110.51 0 108.59 0 106.608 1.607 105 3.592 105zm35.909 0l.19.005c1.831.096 3.3 1.564 3.395 3.395l.005.19-.005.192c-.096 1.831-1.564 3.299-3.395 3.395l-.19.005-.191-.005c-1.895-.1-3.4-1.667-3.4-3.586 0-1.983 1.607-3.591 3.59-3.591zm35.909 0l.19.005c1.831.096 3.3 1.564 3.395 3.395l.005.19-.005.192c-.096 1.831-1.564 3.299-3.395 3.395l-.19.005-.191-.005c-1.895-.1-3.4-1.667-3.4-3.586 0-1.983 1.607-3.591 3.59-3.591zM216.592 71.818l.19.005c1.831.096 3.299 1.564 3.395 3.395l.005.191-.005.19c-.096 1.832-1.564 3.3-3.395 3.396l-.19.005-.191-.005c-1.896-.1-3.401-1.666-3.401-3.586 0-1.983 1.607-3.59 3.592-3.59zm35.909 0l.19.005c1.831.096 3.3 1.564 3.395 3.395l.005.191-.005.19c-.096 1.832-1.564 3.3-3.395 3.396l-.19.005-.191-.005c-1.895-.1-3.4-1.666-3.4-3.586 0-1.983 1.607-3.59 3.59-3.59zm35.909 0l.19.005c1.831.096 3.3 1.564 3.395 3.395l.005.191-.005.19c-.096 1.832-1.564 3.3-3.395 3.396l-.19.005-.191-.005c-1.895-.1-3.4-1.666-3.4-3.586 0-1.983 1.607-3.59 3.59-3.59zM216.592 35.91l.19.005c1.831.096 3.299 1.564 3.395 3.395l.005.191-.005.19c-.096 1.832-1.564 3.3-3.395 3.396l-.19.005-.191-.005c-1.896-.1-3.401-1.667-3.401-3.586 0-1.983 1.607-3.59 3.592-3.59zm35.909 0l.19.005c1.831.096 3.3 1.564 3.395 3.395l.005.191-.005.19c-.096 1.832-1.564 3.3-3.395 3.396l-.19.005-.191-.005c-1.895-.1-3.4-1.667-3.4-3.586 0-1.983 1.607-3.59 3.59-3.59zm35.909 0l.19.005c1.831.096 3.3 1.564 3.395 3.395l.005.191-.005.19c-.096 1.832-1.564 3.3-3.395 3.396l-.19.005-.191-.005c-1.895-.1-3.4-1.667-3.4-3.586 0-1.983 1.607-3.59 3.59-3.59zM216.592 0l.19.005c1.894.1 3.4 1.667 3.4 3.586l-.005.19c-.1 1.895-1.667 3.4-3.585 3.4l-.191-.004C214.505 7.077 213 5.51 213 3.59 213 1.608 214.607 0 216.592 0zM252.5 0l.19.005c1.831.096 3.3 1.564 3.395 3.395l.005.19-.005.192c-.096 1.831-1.564 3.299-3.395 3.395l-.19.005-.191-.005c-1.895-.1-3.4-1.667-3.4-3.586 0-1.983 1.607-3.591 3.59-3.591zm35.909 0l.19.005c1.831.096 3.3 1.564 3.395 3.395l.005.19-.005.192c-.096 1.831-1.564 3.299-3.395 3.395l-.19.005-.191-.005c-1.895-.1-3.4-1.667-3.4-3.586 0-1.983 1.607-3.591 3.59-3.591zM109.592 71.818l.19.005c1.831.096 3.299 1.564 3.395 3.395l.005.191-.005.19c-.096 1.832-1.564 3.3-3.395 3.396l-.19.005-.191-.005c-1.896-.1-3.401-1.666-3.401-3.586 0-1.983 1.607-3.59 3.592-3.59zm35.909 0l.19.005c1.831.096 3.3 1.564 3.395 3.395l.005.191-.005.19c-.096 1.832-1.564 3.3-3.395 3.396l-.19.005-.191-.005c-1.895-.1-3.4-1.666-3.4-3.586 0-1.983 1.607-3.59 3.59-3.59zm35.909 0l.19.005c1.831.096 3.3 1.564 3.395 3.395l.005.191-.005.19c-.096 1.832-1.564 3.3-3.395 3.396l-.19.005-.191-.005c-1.895-.1-3.4-1.666-3.4-3.586 0-1.983 1.607-3.59 3.59-3.59zM109.592 35.91l.19.005c1.831.096 3.299 1.564 3.395 3.395l.005.191-.005.19c-.096 1.832-1.564 3.3-3.395 3.396l-.19.005-.191-.005c-1.896-.1-3.401-1.667-3.401-3.586 0-1.983 1.607-3.59 3.592-3.59zm35.909 0l.19.005c1.831.096 3.3 1.564 3.395 3.395l.005.191-.005.19c-.096 1.832-1.564 3.3-3.395 3.396l-.19.005-.191-.005c-1.895-.1-3.4-1.667-3.4-3.586 0-1.983 1.607-3.59 3.59-3.59zm35.909 0l.19.005c1.831.096 3.3 1.564 3.395 3.395l.005.191-.005.19c-.096 1.832-1.564 3.3-3.395 3.396l-.19.005-.191-.005c-1.895-.1-3.4-1.667-3.4-3.586 0-1.983 1.607-3.59 3.59-3.59zM109.592 0l.19.005c1.894.1 3.4 1.667 3.4 3.586l-.005.19c-.1 1.895-1.667 3.4-3.585 3.4l-.191-.004C107.505 7.077 106 5.51 106 3.59 106 1.608 107.607 0 109.592 0zM145.5 0l.19.005c1.831.096 3.3 1.564 3.395 3.395l.005.19-.005.192c-.096 1.831-1.564 3.299-3.395 3.395l-.19.005-.191-.005c-1.895-.1-3.4-1.667-3.4-3.586 0-1.983 1.607-3.591 3.59-3.591zm35.909 0l.19.005c1.831.096 3.3 1.564 3.395 3.395l.005.19-.005.192c-.096 1.831-1.564 3.299-3.395 3.395l-.19.005-.191-.005c-1.895-.1-3.4-1.667-3.4-3.586 0-1.983 1.607-3.591 3.59-3.591zM3.592 71.818l.19.005c1.831.096 3.299 1.564 3.395 3.395l.005.191-.005.19c-.096 1.832-1.564 3.3-3.395 3.396l-.19.005-.191-.005C1.505 78.895 0 77.329 0 75.409c0-1.983 1.607-3.59 3.592-3.59zm35.909 0l.19.005c1.831.096 3.3 1.564 3.395 3.395l.005.191-.005.19c-.096 1.832-1.564 3.3-3.395 3.396l-.19.005-.191-.005c-1.895-.1-3.4-1.666-3.4-3.586 0-1.983 1.607-3.59 3.59-3.59zm35.909 0l.19.005c1.831.096 3.3 1.564 3.395 3.395l.005.191-.005.19c-.096 1.832-1.564 3.3-3.395 3.396l-.19.005-.191-.005c-1.895-.1-3.4-1.666-3.4-3.586 0-1.983 1.607-3.59 3.59-3.59zM3.592 35.91l.19.005c1.831.096 3.299 1.564 3.395 3.395l.005.191-.005.19c-.096 1.832-1.564 3.3-3.395 3.396l-.19.005-.191-.005C1.505 42.986 0 41.419 0 39.5c0-1.983 1.607-3.59 3.592-3.59zm35.909 0l.19.005c1.831.096 3.3 1.564 3.395 3.395l.005.191-.005.19c-.096 1.832-1.564 3.3-3.395 3.396l-.19.005-.191-.005c-1.895-.1-3.4-1.667-3.4-3.586 0-1.983 1.607-3.59 3.59-3.59zm35.909 0l.19.005c1.831.096 3.3 1.564 3.395 3.395L79 39.5l-.005.19c-.096 1.832-1.564 3.3-3.395 3.396l-.19.005-.191-.005c-1.895-.1-3.4-1.667-3.4-3.586 0-1.983 1.607-3.59 3.59-3.59zM3.592 0l.19.005c1.894.1 3.4 1.667 3.4 3.586l-.005.19c-.1 1.895-1.667 3.4-3.585 3.4L3.4 7.178C1.505 7.077 0 5.51 0 3.59 0 1.608 1.607 0 3.592 0zM39.5 0l.19.005c1.831.096 3.3 1.564 3.395 3.395l.005.19-.005.192c-.096 1.831-1.564 3.299-3.395 3.395l-.19.005-.191-.005c-1.895-.1-3.4-1.667-3.4-3.586C35.91 1.608 37.516 0 39.5 0zM75.41 0l.19.005c1.831.096 3.3 1.564 3.395 3.395l.005.19-.005.192c-.096 1.831-1.564 3.299-3.395 3.395l-.19.005-.191-.005c-1.895-.1-3.4-1.667-3.4-3.586 0-1.983 1.607-3.591 3.59-3.591zM532.592 282.818l.19.005c1.831.096 3.299 1.564 3.395 3.395l.005.191-.005.19c-.096 1.832-1.564 3.3-3.395 3.396l-.19.005-.191-.005c-1.896-.1-3.401-1.666-3.401-3.586 0-1.983 1.607-3.59 3.592-3.59zm35.909 0l.19.005c1.831.096 3.3 1.564 3.395 3.395l.005.191-.005.19c-.096 1.832-1.564 3.3-3.395 3.396l-.19.005-.191-.005c-1.895-.1-3.4-1.666-3.4-3.586 0-1.983 1.607-3.59 3.59-3.59zm35.909 0l.19.005c1.831.096 3.3 1.564 3.395 3.395l.005.191-.005.19c-.096 1.832-1.564 3.3-3.395 3.396l-.19.005-.191-.005c-1.895-.1-3.4-1.666-3.4-3.586 0-1.983 1.607-3.59 3.59-3.59zm-71.818-35.909l.19.005c1.831.096 3.299 1.564 3.395 3.395l.005.191-.005.19c-.096 1.832-1.564 3.3-3.395 3.396l-.19.005-.191-.005c-1.896-.1-3.401-1.667-3.401-3.586 0-1.983 1.607-3.59 3.592-3.59zm35.909 0l.19.005c1.831.096 3.3 1.564 3.395 3.395l.005.191-.005.19c-.096 1.832-1.564 3.3-3.395 3.396l-.19.005-.191-.005c-1.895-.1-3.4-1.667-3.4-3.586 0-1.983 1.607-3.59 3.59-3.59zm35.909 0l.19.005c1.831.096 3.3 1.564 3.395 3.395l.005.191-.005.19c-.096 1.832-1.564 3.3-3.395 3.396l-.19.005-.191-.005c-1.895-.1-3.4-1.667-3.4-3.586 0-1.983 1.607-3.59 3.59-3.59zM532.592 211l.19.005c1.894.1 3.4 1.667 3.4 3.586l-.005.19c-.1 1.895-1.667 3.4-3.585 3.4l-.191-.004c-1.896-.1-3.401-1.667-3.401-3.586 0-1.983 1.607-3.591 3.592-3.591zm35.909 0l.19.005c1.831.096 3.3 1.564 3.395 3.395l.005.19-.005.192c-.096 1.831-1.564 3.299-3.395 3.395l-.19.005-.191-.005c-1.895-.1-3.4-1.667-3.4-3.586 0-1.983 1.607-3.591 3.59-3.591zm35.909 0l.19.005c1.831.096 3.3 1.564 3.395 3.395l.005.19-.005.192c-.096 1.831-1.564 3.299-3.395 3.395l-.19.005-.191-.005c-1.895-.1-3.4-1.667-3.4-3.586 0-1.983 1.607-3.591 3.59-3.591zM532.592 176.818l.19.005c1.831.096 3.299 1.564 3.395 3.395l.005.191-.005.19c-.096 1.832-1.564 3.3-3.395 3.396l-.19.005-.191-.005c-1.896-.1-3.401-1.666-3.401-3.586 0-1.983 1.607-3.59 3.592-3.59zm35.909 0l.19.005c1.831.096 3.3 1.564 3.395 3.395l.005.191-.005.19c-.096 1.832-1.564 3.3-3.395 3.396l-.19.005-.191-.005c-1.895-.1-3.4-1.666-3.4-3.586 0-1.983 1.607-3.59 3.59-3.59zm35.909 0l.19.005c1.831.096 3.3 1.564 3.395 3.395l.005.191-.005.19c-.096 1.832-1.564 3.3-3.395 3.396l-.19.005-.191-.005c-1.895-.1-3.4-1.666-3.4-3.586 0-1.983 1.607-3.59 3.59-3.59zm-71.818-35.909l.19.005c1.831.096 3.299 1.564 3.395 3.395l.005.191-.005.19c-.096 1.832-1.564 3.3-3.395 3.396l-.19.005-.191-.005c-1.896-.1-3.401-1.667-3.401-3.586 0-1.983 1.607-3.59 3.592-3.59zm35.909 0l.19.005c1.831.096 3.3 1.564 3.395 3.395l.005.191-.005.19c-.096 1.832-1.564 3.3-3.395 3.396l-.19.005-.191-.005c-1.895-.1-3.4-1.667-3.4-3.586 0-1.983 1.607-3.59 3.59-3.59zm35.909 0l.19.005c1.831.096 3.3 1.564 3.395 3.395l.005.191-.005.19c-.096 1.832-1.564 3.3-3.395 3.396l-.19.005-.191-.005c-1.895-.1-3.4-1.667-3.4-3.586 0-1.983 1.607-3.59 3.59-3.59zM532.592 105l.19.005c1.894.1 3.4 1.667 3.4 3.586l-.005.19c-.1 1.895-1.667 3.4-3.585 3.4l-.191-.004c-1.896-.1-3.401-1.667-3.401-3.586 0-1.983 1.607-3.591 3.592-3.591zm35.909 0l.19.005c1.831.096 3.3 1.564 3.395 3.395l.005.19-.005.192c-.096 1.831-1.564 3.299-3.395 3.395l-.19.005-.191-.005c-1.895-.1-3.4-1.667-3.4-3.586 0-1.983 1.607-3.591 3.59-3.591zm35.909 0l.19.005c1.831.096 3.3 1.564 3.395 3.395l.005.19-.005.192c-.096 1.831-1.564 3.299-3.395 3.395l-.19.005-.191-.005c-1.895-.1-3.4-1.667-3.4-3.586 0-1.983 1.607-3.591 3.59-3.591zM426.592 282.818l.19.005c1.831.096 3.299 1.564 3.395 3.395l.005.191-.005.19c-.096 1.832-1.564 3.3-3.395 3.396l-.19.005-.191-.005c-1.896-.1-3.401-1.666-3.401-3.586 0-1.983 1.607-3.59 3.592-3.59zm35.909 0l.19.005c1.831.096 3.3 1.564 3.395 3.395l.005.191-.005.19c-.096 1.832-1.564 3.3-3.395 3.396l-.19.005-.191-.005c-1.895-.1-3.4-1.666-3.4-3.586 0-1.983 1.607-3.59 3.59-3.59zm35.909 0l.19.005c1.831.096 3.3 1.564 3.395 3.395l.005.191-.005.19c-.096 1.832-1.564 3.3-3.395 3.396l-.19.005-.191-.005c-1.895-.1-3.4-1.666-3.4-3.586 0-1.983 1.607-3.59 3.59-3.59zm-71.818-35.909l.19.005c1.831.096 3.299 1.564 3.395 3.395l.005.191-.005.19c-.096 1.832-1.564 3.3-3.395 3.396l-.19.005-.191-.005c-1.896-.1-3.401-1.667-3.401-3.586 0-1.983 1.607-3.59 3.592-3.59zm35.909 0l.19.005c1.831.096 3.3 1.564 3.395 3.395l.005.191-.005.19c-.096 1.832-1.564 3.3-3.395 3.396l-.19.005-.191-.005c-1.895-.1-3.4-1.667-3.4-3.586 0-1.983 1.607-3.59 3.59-3.59zm35.909 0l.19.005c1.831.096 3.3 1.564 3.395 3.395l.005.191-.005.19c-.096 1.832-1.564 3.3-3.395 3.396l-.19.005-.191-.005c-1.895-.1-3.4-1.667-3.4-3.586 0-1.983 1.607-3.59 3.59-3.59zM426.592 211l.19.005c1.894.1 3.4 1.667 3.4 3.586l-.005.19c-.1 1.895-1.667 3.4-3.585 3.4l-.191-.004c-1.896-.1-3.401-1.667-3.401-3.586 0-1.983 1.607-3.591 3.592-3.591zm35.909 0l.19.005c1.831.096 3.3 1.564 3.395 3.395l.005.19-.005.192c-.096 1.831-1.564 3.299-3.395 3.395l-.19.005-.191-.005c-1.895-.1-3.4-1.667-3.4-3.586 0-1.983 1.607-3.591 3.59-3.591zm35.909 0l.19.005c1.831.096 3.3 1.564 3.395 3.395l.005.19-.005.192c-.096 1.831-1.564 3.299-3.395 3.395l-.19.005-.191-.005c-1.895-.1-3.4-1.667-3.4-3.586 0-1.983 1.607-3.591 3.59-3.591zM321.592 282.818l.19.005c1.831.096 3.299 1.564 3.395 3.395l.005.191-.005.19c-.096 1.832-1.564 3.3-3.395 3.396l-.19.005-.191-.005c-1.896-.1-3.401-1.666-3.401-3.586 0-1.983 1.607-3.59 3.592-3.59zm35.909 0l.19.005c1.831.096 3.3 1.564 3.395 3.395l.005.191-.005.19c-.096 1.832-1.564 3.3-3.395 3.396l-.19.005-.191-.005c-1.895-.1-3.4-1.666-3.4-3.586 0-1.983 1.607-3.59 3.59-3.59zm35.909 0l.19.005c1.831.096 3.3 1.564 3.395 3.395l.005.191-.005.19c-.096 1.832-1.564 3.3-3.395 3.396l-.19.005-.191-.005c-1.895-.1-3.4-1.666-3.4-3.586 0-1.983 1.607-3.59 3.59-3.59zm-71.818-35.909l.19.005c1.831.096 3.299 1.564 3.395 3.395l.005.191-.005.19c-.096 1.832-1.564 3.3-3.395 3.396l-.19.005-.191-.005c-1.896-.1-3.401-1.667-3.401-3.586 0-1.983 1.607-3.59 3.592-3.59zm35.909 0l.19.005c1.831.096 3.3 1.564 3.395 3.395l.005.191-.005.19c-.096 1.832-1.564 3.3-3.395 3.396l-.19.005-.191-.005c-1.895-.1-3.4-1.667-3.4-3.586 0-1.983 1.607-3.59 3.59-3.59zm35.909 0l.19.005c1.831.096 3.3 1.564 3.395 3.395l.005.191-.005.19c-.096 1.832-1.564 3.3-3.395 3.396l-.19.005-.191-.005c-1.895-.1-3.4-1.667-3.4-3.586 0-1.983 1.607-3.59 3.59-3.59zM321.592 211l.19.005c1.894.1 3.4 1.667 3.4 3.586l-.005.19c-.1 1.895-1.667 3.4-3.585 3.4l-.191-.004c-1.896-.1-3.401-1.667-3.401-3.586 0-1.983 1.607-3.591 3.592-3.591zm35.909 0l.19.005c1.831.096 3.3 1.564 3.395 3.395l.005.19-.005.192c-.096 1.831-1.564 3.299-3.395 3.395l-.19.005-.191-.005c-1.895-.1-3.4-1.667-3.4-3.586 0-1.983 1.607-3.591 3.59-3.591zm35.909 0l.19.005c1.831.096 3.3 1.564 3.395 3.395l.005.19-.005.192c-.096 1.831-1.564 3.299-3.395 3.395l-.19.005-.191-.005c-1.895-.1-3.4-1.667-3.4-3.586 0-1.983 1.607-3.591 3.59-3.591zM426.592 176.818l.19.005c1.831.096 3.299 1.564 3.395 3.395l.005.191-.005.19c-.096 1.832-1.564 3.3-3.395 3.396l-.19.005-.191-.005c-1.896-.1-3.401-1.666-3.401-3.586 0-1.983 1.607-3.59 3.592-3.59zm35.909 0l.19.005c1.831.096 3.3 1.564 3.395 3.395l.005.191-.005.19c-.096 1.832-1.564 3.3-3.395 3.396l-.19.005-.191-.005c-1.895-.1-3.4-1.666-3.4-3.586 0-1.983 1.607-3.59 3.59-3.59zm35.909 0l.19.005c1.831.096 3.3 1.564 3.395 3.395l.005.191-.005.19c-.096 1.832-1.564 3.3-3.395 3.396l-.19.005-.191-.005c-1.895-.1-3.4-1.666-3.4-3.586 0-1.983 1.607-3.59 3.59-3.59zm-71.818-35.909l.19.005c1.831.096 3.299 1.564 3.395 3.395l.005.191-.005.19c-.096 1.832-1.564 3.3-3.395 3.396l-.19.005-.191-.005c-1.896-.1-3.401-1.667-3.401-3.586 0-1.983 1.607-3.59 3.592-3.59zm35.909 0l.19.005c1.831.096 3.3 1.564 3.395 3.395l.005.191-.005.19c-.096 1.832-1.564 3.3-3.395 3.396l-.19.005-.191-.005c-1.895-.1-3.4-1.667-3.4-3.586 0-1.983 1.607-3.59 3.59-3.59zm35.909 0l.19.005c1.831.096 3.3 1.564 3.395 3.395l.005.191-.005.19c-.096 1.832-1.564 3.3-3.395 3.396l-.19.005-.191-.005c-1.895-.1-3.4-1.667-3.4-3.586 0-1.983 1.607-3.59 3.59-3.59zM426.592 105l.19.005c1.894.1 3.4 1.667 3.4 3.586l-.005.19c-.1 1.895-1.667 3.4-3.585 3.4l-.191-.004c-1.896-.1-3.401-1.667-3.401-3.586 0-1.983 1.607-3.591 3.592-3.591zm35.909 0l.19.005c1.831.096 3.3 1.564 3.395 3.395l.005.19-.005.192c-.096 1.831-1.564 3.299-3.395 3.395l-.19.005-.191-.005c-1.895-.1-3.4-1.667-3.4-3.586 0-1.983 1.607-3.591 3.59-3.591zm35.909 0l.19.005c1.831.096 3.3 1.564 3.395 3.395l.005.19-.005.192c-.096 1.831-1.564 3.299-3.395 3.395l-.19.005-.191-.005c-1.895-.1-3.4-1.667-3.4-3.586 0-1.983 1.607-3.591 3.59-3.591zM321.592 176.818l.19.005c1.831.096 3.299 1.564 3.395 3.395l.005.191-.005.19c-.096 1.832-1.564 3.3-3.395 3.396l-.19.005-.191-.005c-1.896-.1-3.401-1.666-3.401-3.586 0-1.983 1.607-3.59 3.592-3.59zm35.909 0l.19.005c1.831.096 3.3 1.564 3.395 3.395l.005.191-.005.19c-.096 1.832-1.564 3.3-3.395 3.396l-.19.005-.191-.005c-1.895-.1-3.4-1.666-3.4-3.586 0-1.983 1.607-3.59 3.59-3.59zm35.909 0l.19.005c1.831.096 3.3 1.564 3.395 3.395l.005.191-.005.19c-.096 1.832-1.564 3.3-3.395 3.396l-.19.005-.191-.005c-1.895-.1-3.4-1.666-3.4-3.586 0-1.983 1.607-3.59 3.59-3.59zm-71.818-35.909l.19.005c1.831.096 3.299 1.564 3.395 3.395l.005.191-.005.19c-.096 1.832-1.564 3.3-3.395 3.396l-.19.005-.191-.005c-1.896-.1-3.401-1.667-3.401-3.586 0-1.983 1.607-3.59 3.592-3.59zm35.909 0l.19.005c1.831.096 3.3 1.564 3.395 3.395l.005.191-.005.19c-.096 1.832-1.564 3.3-3.395 3.396l-.19.005-.191-.005c-1.895-.1-3.4-1.667-3.4-3.586 0-1.983 1.607-3.59 3.59-3.59zm35.909 0l.19.005c1.831.096 3.3 1.564 3.395 3.395l.005.191-.005.19c-.096 1.832-1.564 3.3-3.395 3.396l-.19.005-.191-.005c-1.895-.1-3.4-1.667-3.4-3.586 0-1.983 1.607-3.59 3.59-3.59zM321.592 105l.19.005c1.894.1 3.4 1.667 3.4 3.586l-.005.19c-.1 1.895-1.667 3.4-3.585 3.4l-.191-.004c-1.896-.1-3.401-1.667-3.401-3.586 0-1.983 1.607-3.591 3.592-3.591zm35.909 0l.19.005c1.831.096 3.3 1.564 3.395 3.395l.005.19-.005.192c-.096 1.831-1.564 3.299-3.395 3.395l-.19.005-.191-.005c-1.895-.1-3.4-1.667-3.4-3.586 0-1.983 1.607-3.591 3.59-3.591zm35.909 0l.19.005c1.831.096 3.3 1.564 3.395 3.395l.005.19-.005.192c-.096 1.831-1.564 3.299-3.395 3.395l-.19.005-.191-.005c-1.895-.1-3.4-1.667-3.4-3.586 0-1.983 1.607-3.591 3.59-3.591zM532.592 71.818l.19.005c1.831.096 3.299 1.564 3.395 3.395l.005.191-.005.19c-.096 1.832-1.564 3.3-3.395 3.396l-.19.005-.191-.005c-1.896-.1-3.401-1.666-3.401-3.586 0-1.983 1.607-3.59 3.592-3.59zm35.909 0l.19.005c1.831.096 3.3 1.564 3.395 3.395l.005.191-.005.19c-.096 1.832-1.564 3.3-3.395 3.396l-.19.005-.191-.005c-1.895-.1-3.4-1.666-3.4-3.586 0-1.983 1.607-3.59 3.59-3.59zm35.909 0l.19.005c1.831.096 3.3 1.564 3.395 3.395l.005.191-.005.19c-.096 1.832-1.564 3.3-3.395 3.396l-.19.005-.191-.005c-1.895-.1-3.4-1.666-3.4-3.586 0-1.983 1.607-3.59 3.59-3.59zM532.592 35.91l.19.005c1.831.096 3.299 1.564 3.395 3.395l.005.191-.005.19c-.096 1.832-1.564 3.3-3.395 3.396l-.19.005-.191-.005c-1.896-.1-3.401-1.667-3.401-3.586 0-1.983 1.607-3.59 3.592-3.59zm35.909 0l.19.005c1.831.096 3.3 1.564 3.395 3.395l.005.191-.005.19c-.096 1.832-1.564 3.3-3.395 3.396l-.19.005-.191-.005c-1.895-.1-3.4-1.667-3.4-3.586 0-1.983 1.607-3.59 3.59-3.59zm35.909 0l.19.005c1.831.096 3.3 1.564 3.395 3.395l.005.191-.005.19c-.096 1.832-1.564 3.3-3.395 3.396l-.19.005-.191-.005c-1.895-.1-3.4-1.667-3.4-3.586 0-1.983 1.607-3.59 3.59-3.59zM532.592 0l.19.005c1.894.1 3.4 1.667 3.4 3.586l-.005.19c-.1 1.895-1.667 3.4-3.585 3.4l-.191-.004C530.505 7.077 529 5.51 529 3.59 529 1.608 530.607 0 532.592 0zM568.5 0l.19.005c1.831.096 3.3 1.564 3.395 3.395l.005.19-.005.192c-.096 1.831-1.564 3.299-3.395 3.395l-.19.005-.191-.005c-1.895-.1-3.4-1.667-3.4-3.586 0-1.983 1.607-3.591 3.59-3.591zm35.909 0l.19.005c1.831.096 3.3 1.564 3.395 3.395l.005.19-.005.192c-.096 1.831-1.564 3.299-3.395 3.395l-.19.005-.191-.005c-1.895-.1-3.4-1.667-3.4-3.586 0-1.983 1.607-3.591 3.59-3.591zM426.592 71.818l.19.005c1.831.096 3.299 1.564 3.395 3.395l.005.191-.005.19c-.096 1.832-1.564 3.3-3.395 3.396l-.19.005-.191-.005c-1.896-.1-3.401-1.666-3.401-3.586 0-1.983 1.607-3.59 3.592-3.59zm35.909 0l.19.005c1.831.096 3.3 1.564 3.395 3.395l.005.191-.005.19c-.096 1.832-1.564 3.3-3.395 3.396l-.19.005-.191-.005c-1.895-.1-3.4-1.666-3.4-3.586 0-1.983 1.607-3.59 3.59-3.59zm35.909 0l.19.005c1.831.096 3.3 1.564 3.395 3.395l.005.191-.005.19c-.096 1.832-1.564 3.3-3.395 3.396l-.19.005-.191-.005c-1.895-.1-3.4-1.666-3.4-3.586 0-1.983 1.607-3.59 3.59-3.59zM426.592 35.91l.19.005c1.831.096 3.299 1.564 3.395 3.395l.005.191-.005.19c-.096 1.832-1.564 3.3-3.395 3.396l-.19.005-.191-.005c-1.896-.1-3.401-1.667-3.401-3.586 0-1.983 1.607-3.59 3.592-3.59zm35.909 0l.19.005c1.831.096 3.3 1.564 3.395 3.395l.005.191-.005.19c-.096 1.832-1.564 3.3-3.395 3.396l-.19.005-.191-.005c-1.895-.1-3.4-1.667-3.4-3.586 0-1.983 1.607-3.59 3.59-3.59zm35.909 0l.19.005c1.831.096 3.3 1.564 3.395 3.395l.005.191-.005.19c-.096 1.832-1.564 3.3-3.395 3.396l-.19.005-.191-.005c-1.895-.1-3.4-1.667-3.4-3.586 0-1.983 1.607-3.59 3.59-3.59zM426.592 0l.19.005c1.894.1 3.4 1.667 3.4 3.586l-.005.19c-.1 1.895-1.667 3.4-3.585 3.4l-.191-.004C424.505 7.077 423 5.51 423 3.59 423 1.608 424.607 0 426.592 0zM462.5 0l.19.005c1.831.096 3.3 1.564 3.395 3.395l.005.19-.005.192c-.096 1.831-1.564 3.299-3.395 3.395l-.19.005-.191-.005c-1.895-.1-3.4-1.667-3.4-3.586 0-1.983 1.607-3.591 3.59-3.591zm35.909 0l.19.005c1.831.096 3.3 1.564 3.395 3.395l.005.19-.005.192c-.096 1.831-1.564 3.299-3.395 3.395l-.19.005-.191-.005c-1.895-.1-3.4-1.667-3.4-3.586 0-1.983 1.607-3.591 3.59-3.591zM321.592 71.818l.19.005c1.831.096 3.299 1.564 3.395 3.395l.005.191-.005.19c-.096 1.832-1.564 3.3-3.395 3.396l-.19.005-.191-.005c-1.896-.1-3.401-1.666-3.401-3.586 0-1.983 1.607-3.59 3.592-3.59zm35.909 0l.19.005c1.831.096 3.3 1.564 3.395 3.395l.005.191-.005.19c-.096 1.832-1.564 3.3-3.395 3.396l-.19.005-.191-.005c-1.895-.1-3.4-1.666-3.4-3.586 0-1.983 1.607-3.59 3.59-3.59zm35.909 0l.19.005c1.831.096 3.3 1.564 3.395 3.395l.005.191-.005.19c-.096 1.832-1.564 3.3-3.395 3.396l-.19.005-.191-.005c-1.895-.1-3.4-1.666-3.4-3.586 0-1.983 1.607-3.59 3.59-3.59zM321.592 35.91l.19.005c1.831.096 3.299 1.564 3.395 3.395l.005.191-.005.19c-.096 1.832-1.564 3.3-3.395 3.396l-.19.005-.191-.005c-1.896-.1-3.401-1.667-3.401-3.586 0-1.983 1.607-3.59 3.592-3.59zm35.909 0l.19.005c1.831.096 3.3 1.564 3.395 3.395l.005.191-.005.19c-.096 1.832-1.564 3.3-3.395 3.396l-.19.005-.191-.005c-1.895-.1-3.4-1.667-3.4-3.586 0-1.983 1.607-3.59 3.59-3.59zm35.909 0l.19.005c1.831.096 3.3 1.564 3.395 3.395l.005.191-.005.19c-.096 1.832-1.564 3.3-3.395 3.396l-.19.005-.191-.005c-1.895-.1-3.4-1.667-3.4-3.586 0-1.983 1.607-3.59 3.59-3.59zM321.592 0l.19.005c1.894.1 3.4 1.667 3.4 3.586l-.005.19c-.1 1.895-1.667 3.4-3.585 3.4l-.191-.004C319.505 7.077 318 5.51 318 3.59 318 1.608 319.607 0 321.592 0zM357.5 0l.19.005c1.831.096 3.3 1.564 3.395 3.395l.005.19-.005.192c-.096 1.831-1.564 3.299-3.395 3.395l-.19.005-.191-.005c-1.895-.1-3.4-1.667-3.4-3.586 0-1.983 1.607-3.591 3.59-3.591zm35.909 0l.19.005c1.831.096 3.3 1.564 3.395 3.395l.005.19-.005.192c-.096 1.831-1.564 3.299-3.395 3.395l-.19.005-.191-.005c-1.895-.1-3.4-1.667-3.4-3.586 0-1.983 1.607-3.591 3.59-3.591z"/>
        </g>
        <path fill="#44CEA8" d="M459 108.545c0 1.959 1.587 3.546 3.546 3.546 1.958 0 3.545-1.587 3.545-3.546 0-1.957-1.587-3.545-3.545-3.545-1.959 0-3.546 1.588-3.546 3.545zM354 144.545c0 1.959 1.587 3.546 3.546 3.546 1.958 0 3.545-1.587 3.545-3.546 0-1.957-1.587-3.545-3.545-3.545-1.959 0-3.546 1.588-3.546 3.545z"/>
    </g>
</svg>
