<svg width="75" height="65" fill="none" xmlns="http://www.w3.org/2000/svg"><path opacity=".4" fill-rule="evenodd" clip-rule="evenodd" d="M15.98 29.66h10.04c2.39 0 4.42.85 6.1 2.55a8.48 8.48 0 0 1 2.5 6.18v17.46c0 2.42-.84 4.48-2.5 6.18a8.24 8.24 0 0 1-6.1 2.54H8.82a8.24 8.24 0 0 1-6.1-2.54A8.48 8.48 0 0 1 .2 55.85v-32c0-3.16.6-6.16 1.81-9.03A23.46 23.46 0 0 1 6.93 7.4 23.1 23.1 0 0 1 23.15.57h2.87c.77 0 1.45.3 2.01.87.57.57.85 1.25.85 2.04V9.3c0 .79-.28 1.47-.85 2.05-.56.57-1.24.86-2.01.86h-2.87c-3.17 0-5.87 1.14-8.11 3.4a11.3 11.3 0 0 0-3.36 8.24v1.45c0 1.21.42 2.24 1.25 3.1a4.12 4.12 0 0 0 3.05 1.26Zm49.89 0c2.39 0 4.42.85 6.09 2.55a8.48 8.48 0 0 1 2.5 6.18v17.46c0 2.42-.83 4.48-2.5 6.18a8.24 8.24 0 0 1-6.1 2.54h-17.2a8.24 8.24 0 0 1-6.1-2.54 8.48 8.48 0 0 1-2.5-6.18v-32c0-3.16.6-6.16 1.81-9.03a23.45 23.45 0 0 1 4.9-7.43A23.1 23.1 0 0 1 63 .57h2.87c.77 0 1.45.3 2.01.87.57.57.85 1.25.85 2.04V9.3c0 .79-.28 1.47-.85 2.05-.56.57-1.24.86-2.01.86H63c-3.17 0-5.87 1.14-8.11 3.4a11.3 11.3 0 0 0-3.36 8.24v1.45c0 1.21.42 2.24 1.25 3.1a4.12 4.12 0 0 0 3.05 1.26h10.04Z" fill="url(#a)"/><defs><linearGradient id="a" x1=".21" y1="32.57" x2="74.47" y2="32.57" gradientUnits="userSpaceOnUse"><stop stop-color="#7bf2da"/><stop offset=".51" stop-color="#5DB6E1"/><stop offset="1" stop-color="#B896FF"/></linearGradient></defs></svg>