<svg xmlns="http://www.w3.org/2000/svg" xmlns:xlink="http://www.w3.org/1999/xlink" width="25" height="25" viewBox="0 0 25 25">
    <defs>
        <path id="a" d="M.003 0H25v25H.003z"/>
    </defs>
    <g fill="none" fill-rule="evenodd">
        <g>
            <mask id="b" fill="#fff">
                <use xlink:href="#a"/>
            </mask>
            <path fill="#3DD5AF" fill-opacity=".604" d="M23.535 22.803a.733.733 0 0 1-.732.732H2.197a.733.733 0 0 1-.732-.732V10.352h22.07v12.45zM2.197 4.395h.733v.732a2.2 2.2 0 0 0 2.197 2.197 2.2 2.2 0 0 0 2.197-2.197v-.732h3.028v.732a2.2 2.2 0 0 0 2.197 2.197 2.2 2.2 0 0 0 2.197-2.197v-.732h2.93v.732a2.2 2.2 0 0 0 2.197 2.197 2.2 2.2 0 0 0 2.197-2.197v-.732h.733c.404 0 .732.328.732.732v3.76H1.465v-3.76c0-.404.328-.732.732-.732zm2.198-2.198a.733.733 0 0 1 1.464 0v2.93a.733.733 0 0 1-1.464 0v-2.93zm7.421 0a.733.733 0 0 1 1.465 0v2.93a.733.733 0 0 1-1.465 0v-2.93zm7.325 0a.733.733 0 0 1 1.464 0v2.93a.733.733 0 0 1-1.464 0v-2.93zm3.662.733h-.733v-.733A2.2 2.2 0 0 0 19.873 0a2.2 2.2 0 0 0-2.197 2.197v.733h-2.93v-.733A2.2 2.2 0 0 0 12.55 0a2.2 2.2 0 0 0-2.197 2.197v.733H7.324v-.733A2.2 2.2 0 0 0 5.127 0 2.2 2.2 0 0 0 2.93 2.197v.733h-.733A2.2 2.2 0 0 0 0 5.127v17.676A2.2 2.2 0 0 0 2.197 25h20.606A2.2 2.2 0 0 0 25 22.803V5.127a2.2 2.2 0 0 0-2.197-2.197z" mask="url(#b)"/>
        </g>
        <path fill="#3DD5AF" fill-opacity=".604" d="M4.395 16.21h2.93v-2.929h-2.93v2.93zm4.394 0h3.027v-2.929H8.79v2.93zm4.492 0h2.93v-2.929h-2.93v2.93zm4.395 0h2.93v-2.929h-2.93v2.93zm0 4.395h2.93v-2.93h-2.93v2.93zm-4.395 0h2.93v-2.93h-2.93v2.93zm-8.886 0h2.93v-2.93h-2.93v2.93zm4.394 0h3.027v-2.93H8.79v2.93zM3.662 22.07h17.676a.732.732 0 0 0 .732-.732v-8.79a.732.732 0 0 0-.732-.732H3.662a.732.732 0 0 0-.732.733v8.789c0 .404.328.732.732.732z"/>
    </g>
</svg>
