<svg width="25" height="24" viewBox="0 0 25 24" fill="none" xmlns="http://www.w3.org/2000/svg">
<circle cx="12.5" cy="12" r="11.5" stroke="#454545"/>
<path d="M11.1465 15.2351V15.1136C11.155 14.321 11.2338 13.6903 11.383 13.2216C11.5364 12.7528 11.7537 12.3736 12.035 12.0838C12.3162 11.794 12.655 11.5298 13.0513 11.2912C13.307 11.1293 13.5371 10.9482 13.7417 10.7479C13.9462 10.5476 14.1081 10.3175 14.2275 10.0575C14.3468 9.79758 14.4064 9.50994 14.4064 9.1946C14.4064 8.81534 14.3169 8.48722 14.138 8.21023C13.959 7.93324 13.7203 7.72017 13.4221 7.57102C13.128 7.41761 12.7999 7.34091 12.4377 7.34091C12.1096 7.34091 11.7963 7.40909 11.498 7.54545C11.1998 7.68182 10.9526 7.89489 10.7566 8.18466C10.5605 8.47017 10.4476 8.83878 10.4178 9.29048H8.47461C8.50444 8.52344 8.69833 7.87571 9.05629 7.3473C9.41424 6.81463 9.88725 6.41193 10.4753 6.1392C11.0676 5.86648 11.7218 5.73011 12.4377 5.73011C13.2218 5.73011 13.9078 5.87713 14.4959 6.17116C15.084 6.46094 15.54 6.8679 15.8638 7.39205C16.1919 7.91193 16.356 8.51918 16.356 9.21378C16.356 9.69105 16.2814 10.1214 16.1323 10.505C15.9831 10.8842 15.7701 11.223 15.4931 11.5213C15.2203 11.8196 14.8922 12.0838 14.5087 12.3139C14.1465 12.5398 13.8525 12.7741 13.6266 13.017C13.405 13.2599 13.2431 13.5476 13.1408 13.88C13.0385 14.2124 12.9831 14.6236 12.9746 15.1136V15.2351H11.1465ZM12.1117 19.1214C11.7623 19.1214 11.4618 18.9979 11.2104 18.7507C10.959 18.4993 10.8333 18.1967 10.8333 17.843C10.8333 17.4936 10.959 17.1953 11.2104 16.9482C11.4618 16.6967 11.7623 16.571 12.1117 16.571C12.4569 16.571 12.7551 16.6967 13.0066 16.9482C13.2623 17.1953 13.3901 17.4936 13.3901 17.843C13.3901 18.0774 13.3304 18.2926 13.2111 18.4886C13.0961 18.6804 12.9426 18.8338 12.7509 18.9489C12.5591 19.0639 12.3461 19.1214 12.1117 19.1214Z" fill="#454545"/>
</svg>
