<?xml version="1.0" encoding="utf-8"?>
<svg xmlns:xlink="http://www.w3.org/1999/xlink" xmlns="http://www.w3.org/2000/svg">
    <symbol viewBox="0 0 24 46" id="icon-arrow-next" xmlns="http://www.w3.org/2000/svg">
        <path d="M1.333 1.333 23.07 23.07M1.333 44.911 23.07 23.176" fill="none" stroke="currentColor"
              stroke-linecap="square" stroke-width="2"/>
    </symbol>
    <symbol viewBox="0 0 45 58" id="icon-cookies" xmlns="http://www.w3.org/2000/svg">
        <g fill="none" opacity=".9">
            <path fill="#3CD5AF"
                  d="M14 19c-.55 0-1 .34-1 .77v1.46c0 .43.45.77 1 .77s1-.34 1-.77v-1.46c0-.42-.45-.77-1-.77zm16 0c-.55 0-1 .34-1 .77v1.46c0 .43.45.77 1 .77s1-.34 1-.77v-1.46c0-.42-.45-.77-1-.77zm-4.29 2.22a.8.8 0 0 0-1.18.08 2.63 2.63 0 0 1-2.03.94 2.63 2.63 0 0 1-2.03-.94.8.8 0 0 0-1.18-.08.91.91 0 0 0-.08 1.24A4.27 4.27 0 0 0 22.5 24c1.28 0 2.48-.56 3.3-1.54a.91.91 0 0 0-.09-1.24z"/>
            <path fill="#243746"
                  d="M9.5 41c-1.38 0-2.5.9-2.5 2s1.12 2 2.5 2 2.5-.9 2.5-2-1.12-2-2.5-2zm0 2.33c-.42 0-.68-.21-.68-.33 0-.12.26-.33.68-.33.42 0 .68.22.68.33 0 .12-.26.33-.68.33zM19 42c-1.65 0-3 1.12-3 2.5s1.35 2.5 3 2.5 3-1.12 3-2.5-1.35-2.5-3-2.5zm0 3.15c-.62 0-1.08-.35-1.08-.65s.46-.65 1.08-.65 1.08.35 1.08.65-.46.65-1.08.65zM25 47c-1.65 0-3 1.12-3 2.5s1.35 2.5 3 2.5 3-1.12 3-2.5-1.35-2.5-3-2.5zm0 3.15c-.62 0-1.08-.35-1.08-.65s.46-.65 1.08-.65 1.08.35 1.08.65-.46.65-1.08.65zM36 46c-1.65 0-3 1.12-3 2.5s1.35 2.5 3 2.5 3-1.12 3-2.5-1.35-2.5-3-2.5zm0 3.15c-.62 0-1.08-.35-1.08-.65s.46-.65 1.08-.65 1.08.35 1.08.65-.46.65-1.08.65zM25.5 40c-1.38 0-2.5.9-2.5 2s1.12 2 2.5 2 2.5-.9 2.5-2-1.12-2-2.5-2zm0 2.33c-.42 0-.68-.21-.68-.33 0-.12.26-.33.68-.33.42 0 .68.22.68.33 0 .12-.26.33-.68.33zM12.5 29c-1.38 0-2.5.9-2.5 2s1.12 2 2.5 2 2.5-.9 2.5-2-1.12-2-2.5-2zm0 2.33c-.42 0-.68-.21-.68-.33 0-.12.26-.33.68-.33.42 0 .68.21.68.33 0 .12-.26.33-.68.33zm6-1.33c-1.38 0-2.5.9-2.5 2s1.12 2 2.5 2 2.5-.9 2.5-2-1.12-2-2.5-2zm0 2.33c-.42 0-.68-.22-.68-.33 0-.12.26-.33.68-.33.42 0 .68.21.68.33 0 .11-.26.33-.68.33zm12-3.33c-1.38 0-2.5.9-2.5 2s1.12 2 2.5 2 2.5-.9 2.5-2-1.12-2-2.5-2zm0 2.33c-.42 0-.68-.21-.68-.33 0-.12.26-.33.68-.33.42 0 .68.21.68.33 0 .12-.26.33-.68.33z"/>
            <path fill="#243746"
                  d="M39.71 12.51v-2c0-1.37-.92-2.52-2.17-2.9v-.9c0-1.82-1.5-3.3-3.32-3.3h-8.14v-.94A2.48 2.48 0 0 0 23.59 0h-2.18a2.48 2.48 0 0 0-2.49 2.47v.95h-8.14a3.31 3.31 0 0 0-3.32 3.3v.9a3.02 3.02 0 0 0-2.17 2.89v2a14.37 14.37 0 0 0-3.03 3.4.85.85 0 0 0 .26 1.17.86.86 0 0 0 1.18-.26 12.68 12.68 0 0 1 2.74-3.05h32.12a12.75 12.75 0 0 1 4.73 9.86V51.1c0 2.87-2.35 5.2-5.24 5.2H6.95a5.23 5.23 0 0 1-5.24-5.2V23.63c0-1.26.19-2.51.56-3.72a.86.86 0 0 0-1.63-.5A14.3 14.3 0 0 0 0 23.63V51.1C0 54.9 3.12 58 6.95 58h31.1c3.83 0 6.95-3.1 6.95-6.9V23.63c0-4.28-1.97-8.4-5.29-11.12zM20.63 2.47c0-.42.35-.77.78-.77h2.18c.43 0 .78.35.78.77v.95h-3.74v-.95zM9.17 6.71c0-.88.73-1.6 1.61-1.6h23.44c.88 0 1.6.72 1.6 1.6v.79H9.18v-.8zM38 12.07H7v-1.56A1.32 1.32 0 0 1 8.32 9.2h28.36c.73 0 1.32.59 1.32 1.31v1.56z"/>
            <path fill="#243746"
                  d="M41.77 40.18a4.46 4.46 0 0 1-.52-.9 6.16 6.16 0 0 0-1.65-2.2l.01-.19a4.43 4.43 0 0 1 .19-1.01 6.12 6.12 0 0 0-.97-5.44 4.46 4.46 0 0 1-.53-.9A6.24 6.24 0 0 0 34.03 26c-.34-.08-.67-.2-.98-.35a6.33 6.33 0 0 0-5.59 0 4.58 4.58 0 0 1-.98.35A6.27 6.27 0 0 0 23 28.22 6.27 6.27 0 0 0 19.52 26c-.34-.08-.67-.2-.98-.35a6.33 6.33 0 0 0-5.58 0 4.57 4.57 0 0 1-.99.35 6.24 6.24 0 0 0-4.27 3.55 4.46 4.46 0 0 1-.53.9 6.13 6.13 0 0 0-.97 5.43c.1.33.17.67.19 1.01l.01.18a6.16 6.16 0 0 0-1.65 2.22 4.46 4.46 0 0 1-.52.9 6.13 6.13 0 0 0-.97 5.43c.1.33.16.67.18 1.01a6.17 6.17 0 0 0 2.8 4.78c.28.19.55.41.8.66A6.3 6.3 0 0 0 11.56 54c.59 0 1.16-.1 1.75-.04a6.33 6.33 0 0 0 4.58-1.29 6.32 6.32 0 0 0 4.58 1.29c.59-.07 1.16.04 1.75.04a6.3 6.3 0 0 0 3.87-1.33 6.33 6.33 0 0 0 4.58 1.29c.34-.04.7-.04 1.04 0a6.3 6.3 0 0 0 5.25-1.89c.24-.25.5-.47.8-.66a6.17 6.17 0 0 0 2.8-4.78 4.43 4.43 0 0 1 .17-1.02 6.13 6.13 0 0 0-.97-5.43zm-14.9-12.54c.47-.1.92-.27 1.35-.49a4.6 4.6 0 0 1 4.06 0c.43.22.88.38 1.35.49a4.54 4.54 0 0 1 3.1 2.58c.2.43.44.85.73 1.23a4.45 4.45 0 0 1 .7 3.94 6.07 6.07 0 0 0-.16.69 6.15 6.15 0 0 0-.32-.13c-.56-.2-1.15-.3-1.69-.56a6.33 6.33 0 0 0-5.58 0c-.64.31-1.37.41-2.03.7-.09.03-.27.12-.28.13a5.29 5.29 0 0 0-.2-.1 6.2 6.2 0 0 0-.78-.29c-.45-.13-.9-.23-1.33-.44a6.19 6.19 0 0 0-.34-.16v-.03a6.15 6.15 0 0 0-.44-3.58c-.27-.62-.71-1.13-1.04-1.72l-.02-.05a4.55 4.55 0 0 1 2.92-2.21zm-18.33 3.8c.29-.38.53-.79.72-1.23a4.54 4.54 0 0 1 3.1-2.57 6.3 6.3 0 0 0 1.36-.49 4.6 4.6 0 0 1 4.06 0 6.29 6.29 0 0 0 1.35.49 4.54 4.54 0 0 1 3.09 2.54l.02.05c.36.74.93 1.38 1.25 2.15.32.75.43 1.6.3 2.4a6.29 6.29 0 0 0-3.58.6c-.45.23-.95.33-1.43.49-.3.1-.6.2-.88.34h-.02a6.34 6.34 0 0 0-1.3-.47c-.46-.1-.88-.32-1.32-.5a6.31 6.31 0 0 0-2.46-.5 6.3 6.3 0 0 0-2.8.65c-.43.22-.9.31-1.37.46-.21.06-.42.14-.63.23a6.13 6.13 0 0 0-.16-.69 4.45 4.45 0 0 1 .7-3.94zm4.98 20.85a6.33 6.33 0 0 0-1.44 0 4.58 4.58 0 0 1-3.81-1.37 6.2 6.2 0 0 0-1.1-.92 4.48 4.48 0 0 1-2.03-3.47 6.1 6.1 0 0 0-.25-1.4 4.45 4.45 0 0 1 .7-3.95c.3-.38.53-.79.72-1.23a4.52 4.52 0 0 1 2.12-2.21l.02-.01c.74-.37 1.58-.47 2.32-.84a4.6 4.6 0 0 1 4.06 0c.43.22.88.38 1.35.49l.06.02c-.37.36-.69.78-.95 1.23-.3.5-.5 1.07-.86 1.55a6.13 6.13 0 0 0-.97 5.43c.1.33.16.68.18 1.02a6.17 6.17 0 0 0 2.79 4.78l.17.12a4.6 4.6 0 0 1-3.08.76zM28.63 50c-.4.26-.77.57-1.1.91a1.84 1.84 0 0 0-.04.05 4.58 4.58 0 0 1-3.77 1.33 6.3 6.3 0 0 0-1.44 0 4.58 4.58 0 0 1-3.77-1.33 6.82 6.82 0 0 0-1.14-.96 4.48 4.48 0 0 1-2.03-3.47 6.1 6.1 0 0 0-.25-1.4 4.45 4.45 0 0 1 .7-3.94c.29-.38.53-.8.72-1.23a4.6 4.6 0 0 1 3.11-2.58c.64-.15 1.2-.46 1.81-.68a4.63 4.63 0 0 1 3.3.06c.3.12.57.27.87.38.98.37 2.06.61 2.84 1.34.45.42.8.92 1.05 1.48.19.43.43.85.72 1.23a4.45 4.45 0 0 1 .7 3.94 6.1 6.1 0 0 0-.25 1.4A4.48 4.48 0 0 1 28.63 50zm12.48-4.87a6.1 6.1 0 0 0-.25 1.4A4.48 4.48 0 0 1 38.83 50c-.4.26-.77.57-1.1.92a4.58 4.58 0 0 1-3.81 1.37 6.75 6.75 0 0 0-1.44 0 4.6 4.6 0 0 1-3.08-.76l.17-.12a6.17 6.17 0 0 0 2.8-4.78 4.43 4.43 0 0 1 .17-1.02 6.13 6.13 0 0 0-.97-5.43 4.46 4.46 0 0 1-.52-.9 6.16 6.16 0 0 0-1.3-1.88l.07-.02a6.29 6.29 0 0 0 1.35-.49 4.6 4.6 0 0 1 4.06 0c.73.37 1.58.47 2.32.84l.02.01a4.52 4.52 0 0 1 2.12 2.22c.19.43.43.85.71 1.23a4.45 4.45 0 0 1 .7 3.94z"/>
        </g>
    </symbol>
    <symbol viewBox="0 0 24 24" id="icon-email" xmlns="http://www.w3.org/2000/svg">
        <path fill-rule="evenodd"
              d="M4 0a4 4 0 0 0-4 4v16a4 4 0 0 0 4 4h16a4 4 0 0 0 4-4V4a4 4 0 0 0-4-4H4Zm1.279 15.96s-1.26 1.299.02 1.299h13.437s1.26 0-.02-1.26l-3.247-3.586c-.316-.35-.926-.861-1.285-.592-.238.178-.53.492-.797.78-.136.146-.266.286-.38.397l-.69.681s-.278.32-.64 0l-.675-.676a12.82 12.82 0 0 1-.414-.445c-.255-.284-.53-.588-.756-.773-.359-.292-.971.238-1.289.586L5.28 15.96ZM5.27 15c.206-.252.415-.509.582-.693l2.67-2.934c.154-.155.105-.333 0-.487-.127-.182-.446-.432-.752-.672-.103-.08-.205-.16-.297-.235L4.832 7.817c-.222-.223-.386-.348-.506-.408-.309-.155-.31.665-.31 1.149v.061l-.016 7c0 .697.405.394.759-.003.147-.167.329-.39.512-.615Zm7.396-2.912a9.36 9.36 0 0 1 .308-.268l6.36-5.22s.618-.6-.598-.6H5.228s-.396-.002-.622.114c-.314.16.317.759.684 1.056l5.748 4.663c.096.078.195.163.291.248.273.238.532.464.682.463.146 0 .393-.22.656-.456Zm6.055 2.906c.185.228.369.454.519.622.354.397.76.7.76.003l-.018-7v-.065c0-.484-.001-1.3-.31-1.145-.219.11-.511.372-.791.622-.13.117-.26.232-.376.327l-1.98 1.62c-.093.076-.194.155-.297.236-.307.24-.626.49-.752.672-.107.154-.155.332 0 .486l2.668 2.935c.166.183.373.436.577.687Z"/>
    </symbol>
    <symbol viewBox="0 0 24 25" id="icon-facebook" xmlns="http://www.w3.org/2000/svg">
        <path fill-rule="evenodd"
              d="M4 .75a4 4 0 0 0-4 4v16a4 4 0 0 0 4 4h9.55V14.4h-2.22v-3.56h2.22V8.71c0-2.9 1.25-4.63 4.8-4.63h2.96v3.56h-1.85c-1.38 0-1.47.5-1.47 1.43v1.78h3.34l-.39 3.56h-2.96v10.34H20a4 4 0 0 0 4-4v-16a4 4 0 0 0-4-4H4Z"/>
    </symbol>
    <symbol viewBox="0 0 24 24" id="icon-linkedin" xmlns="http://www.w3.org/2000/svg">
        <path fill-rule="evenodd"
              d="M4 0a4 4 0 0 0-4 4v16a4 4 0 0 0 4 4h16a4 4 0 0 0 4-4V4a4 4 0 0 0-4-4H4Zm4 9.333H4.667v11.334H8V9.333ZM5.966 8h.024C7.23 8 8 7.115 8 6c-.024-1.138-.771-2-1.987-2C4.796 4 4 4.864 4 6.003 4 7.119 4.773 8 5.966 8Zm10.91 12.667h3.79v-6.243c0-3.475-1.866-5.09-4.241-5.09-1.915 0-3.115 1.099-3.337 1.869V9.44H9.333c.049.935 0 11.226 0 11.226h3.755V14.47c-.002-.296-.003-.583.082-.796.258-.676.813-1.375 1.81-1.375 1.304 0 1.896 1.037 1.896 2.557v5.81Z"/>
    </symbol>
    <symbol fill="none" viewBox="0 0 64 64" id="icon-play" xmlns="http://www.w3.org/2000/svg">
        <path d="M32 64c17.645 0 32-14.356 32-32S49.645 0 32 0 0 14.356 0 32s14.356 32 32 32Z" fill="#fff"/>
        <path d="M25.991 46.422c.876 0 1.792-.284 2.722-.841l16.311-9.789c1.583-.95 2.491-2.331 2.492-3.793 0-1.462-.909-2.845-2.492-3.794l-16.311-9.787c-.93-.558-1.846-.84-2.722-.84-1.84 0-3.698 1.383-3.698 4.474v19.894c0 3.092 1.857 4.476 3.698 4.476Z"
              fill="#000"/>
    </symbol>
    <symbol viewBox="0 0 20 20" id="icon-search" xmlns="http://www.w3.org/2000/svg">
        <path fill-rule="evenodd" clip-rule="evenodd"
              d="M12.7 14.14a7.91 7.91 0 0 1-4.78 1.6A7.9 7.9 0 0 1 0 7.86 7.9 7.9 0 0 1 7.92 0a7.9 7.9 0 0 1 7.91 7.87 7.8 7.8 0 0 1-1.72 4.89l5.6 5.56c.39.39.39 1 0 1.4a1 1 0 0 1-1.4 0l-5.61-5.58Zm-1.19-1.58a5.93 5.93 0 0 1-9.53-4.7c0-3.25 2.66-5.9 5.94-5.9a5.92 5.92 0 0 1 4.72 9.48l-1.13 1.12Z"/>
    </symbol>
    <symbol viewBox="0 0 70 42" id="icon-send" xmlns="http://www.w3.org/2000/svg">
        <path d="M65.23 0H14.32c-.95 0-1.6.64-1.6 1.59 0 .95.65 1.6 1.6 1.6h50.9c.96 0 1.6.63 1.6 1.58V36.6c0 .95-.64 1.6-1.6 1.6h-50.9c-.95 0-1.6.63-1.6 1.58 0 .96.65 1.6 1.6 1.6h50.9c2.71 0 4.78-2.07 4.78-4.78V4.77C70 2.07 67.93 0 65.23 0zm-3.46 7a1.7 1.7 0 0 1 2.22.33 1.7 1.7 0 0 1-.31 2.22L46.8 22.44a7.5 7.5 0 0 1-4.77 1.59 7.83 7.83 0 0 1-4.77-1.59L20.24 9.55c-.8-.48-.8-1.59-.31-2.23.47-.8 1.59-.8 2.22-.31l16.87 12.88a5.01 5.01 0 0 0 5.88 0L61.77 7.01zm-47.45 4.14H1.59c-.95 0-1.59.63-1.59 1.59 0 .95.64 1.59 1.59 1.59h12.73c.95 0 1.59-.64 1.59-1.6 0-.95-.64-1.58-1.6-1.58zm-7.96 7.95H19.1c.95 0 1.59.64 1.59 1.6 0 .95-.64 1.58-1.59 1.58H6.36c-.95 0-1.59-.63-1.59-1.59 0-.95.64-1.59 1.6-1.59zm4.78 7.96h12.72c.96 0 1.6.63 1.6 1.59s-.64 1.59-1.6 1.59H11.14c-.96 0-1.6-.64-1.6-1.6 0-.95.64-1.58 1.6-1.58zm42.47-4.3 9.55 9.54c.64.64.64 1.6 0 2.23-.32.32-.8.48-1.11.48-.32 0-.8-.16-1.12-.48l-9.54-9.54a1.54 1.54 0 0 1 0-2.23c.63-.64 1.59-.64 2.22 0z"
              clip-rule="evenodd"/>
    </symbol>
    <symbol viewBox="0 0 30 28" id="icon-star-rating" xmlns="http://www.w3.org/2000/svg">
        <path fill-rule="evenodd"
              d="M15 21.67 5.73 28 9 17.391l-9-6.696 11.292-.226L15 0l3.708 10.47L30 10.694l-9 6.696L24.27 28z"/>
    </symbol>
    <symbol viewBox="0 0 32 28" id="icon-star-rating-empty" xmlns="http://www.w3.org/2000/svg">
        <path fill="none" stroke="currentColor" stroke-width="1.5"
              d="m24.052 26.223-2.84-9.095 7.776-5.712-9.758-.192L16 2.22l-3.23 9.003-9.758.192 7.777 5.712-2.84 9.095L16 20.796l8.052 5.427z"/>
    </symbol>
    <symbol viewBox="0 0 30 28" id="icon-star-rating-half" xmlns="http://www.w3.org/2000/svg">
        <g fill="none" fill-rule="evenodd">
            <path stroke="currentColor" stroke-width="1.5"
                  d="m22.922 26.17-2.795-9.064 7.668-5.705-9.62-.192L15 2.246l-3.174 8.963-9.62.192 7.667 5.705-2.795 9.065L15 20.76l7.922 5.41z"/>
            <path fill="currentColor" d="M16 21.67 6.73 28 10 17.391l-9-6.696 11.292-.226L16 0z"/>
        </g>
    </symbol>
    <symbol viewBox="0 0 24 24" id="icon-twitter" xmlns="http://www.w3.org/2000/svg">
        <path fill-rule="evenodd"
              d="M4 0a4 4 0 0 0-4 4v16a4 4 0 0 0 4 4h16a4 4 0 0 0 4-4V4a4 4 0 0 0-4-4H4Zm4.73 4.13H4l6.52 8.85-5.7 6.42H6.1l5.04-5.61 4.13 5.48H20l-6.25-8.4 6.1-6.85-1.3-.02-5.44 6.02-4.38-5.89ZM5.8 5h2.5l9.95 13.38H15.8L5.79 5Z"/>
    </symbol>
    <symbol viewBox="0 0 18 18" id="plyr-captions-off" xmlns="http://www.w3.org/2000/svg">
        <path d="M1 1c-.6 0-1 .4-1 1v11c0 .6.4 1 1 1h4.6l2.7 2.7c.2.2.4.3.7.3.3 0 .5-.1.7-.3l2.7-2.7H17c.6 0 1-.4 1-1V2c0-.6-.4-1-1-1H1Zm4.52 10.15c1.99 0 3.01-1.32 3.28-2.41l-1.29-.39c-.19.66-.78 1.45-1.99 1.45-1.14 0-2.2-.83-2.2-2.34 0-1.61 1.12-2.37 2.18-2.37 1.23 0 1.78.75 1.95 1.43l1.3-.41C8.47 4.96 7.46 3.76 5.5 3.76c-1.9 0-3.61 1.44-3.61 3.7 0 2.26 1.65 3.69 3.63 3.69Zm7.57 0c1.99 0 3.01-1.32 3.28-2.41l-1.29-.39c-.19.66-.78 1.45-1.99 1.45-1.14 0-2.2-.83-2.2-2.34 0-1.61 1.12-2.37 2.18-2.37 1.23 0 1.78.75 1.95 1.43l1.3-.41c-.28-1.15-1.29-2.35-3.25-2.35-1.9 0-3.61 1.44-3.61 3.7 0 2.26 1.65 3.69 3.63 3.69Z"
              fill-rule="evenodd" fill-opacity=".5"/>
    </symbol>
    <symbol viewBox="0 0 18 18" id="plyr-captions-on" xmlns="http://www.w3.org/2000/svg">
        <path d="M1 1c-.6 0-1 .4-1 1v11c0 .6.4 1 1 1h4.6l2.7 2.7c.2.2.4.3.7.3.3 0 .5-.1.7-.3l2.7-2.7H17c.6 0 1-.4 1-1V2c0-.6-.4-1-1-1H1Zm4.52 10.15c1.99 0 3.01-1.32 3.28-2.41l-1.29-.39c-.19.66-.78 1.45-1.99 1.45-1.14 0-2.2-.83-2.2-2.34 0-1.61 1.12-2.37 2.18-2.37 1.23 0 1.78.75 1.95 1.43l1.3-.41C8.47 4.96 7.46 3.76 5.5 3.76c-1.9 0-3.61 1.44-3.61 3.7 0 2.26 1.65 3.69 3.63 3.69Zm7.57 0c1.99 0 3.01-1.32 3.28-2.41l-1.29-.39c-.19.66-.78 1.45-1.99 1.45-1.14 0-2.2-.83-2.2-2.34 0-1.61 1.12-2.37 2.18-2.37 1.23 0 1.78.75 1.95 1.43l1.3-.41c-.28-1.15-1.29-2.35-3.25-2.35-1.9 0-3.61 1.44-3.61 3.7 0 2.26 1.65 3.69 3.63 3.69Z"
              fill-rule="evenodd"/>
    </symbol>
    <symbol viewBox="0 0 18 18" id="plyr-enter-fullscreen" xmlns="http://www.w3.org/2000/svg">
        <path d="M10 3h3.6l-4 4L11 8.4l4-4V8h2V1h-7zM7 9.6l-4 4V10H1v7h7v-2H4.4l4-4z"/>
    </symbol>
    <symbol viewBox="0 0 18 18" id="plyr-exit-fullscreen" xmlns="http://www.w3.org/2000/svg">
        <path d="M1 12h3.6l-4 4L2 17.4l4-4V17h2v-7H1zM16 .6l-4 4V1h-2v7h7V6h-3.6l4-4z"/>
    </symbol>
    <symbol viewBox="0 0 18 18" id="plyr-fast-forward" xmlns="http://www.w3.org/2000/svg">
        <path d="M7.875 7.171 0 1v16l7.875-6.171V17L18 9 7.875 1z"/>
    </symbol>
    <symbol viewBox="0 0 18 18" id="plyr-muted" xmlns="http://www.w3.org/2000/svg">
        <path d="m12.4 12.5 2.1-2.1 2.1 2.1 1.4-1.4L15.9 9 18 6.9l-1.4-1.4-2.1 2.1-2.1-2.1L11 6.9 13.1 9 11 11.1zM3.786 6.008H.714C.286 6.008 0 6.31 0 6.76v4.512c0 .452.286.752.714.752h3.072l4.071 3.858c.5.3 1.143 0 1.143-.602V2.752c0-.601-.643-.977-1.143-.601L3.786 6.008Z"/>
    </symbol>
    <symbol viewBox="0 0 18 18" id="plyr-pause" xmlns="http://www.w3.org/2000/svg">
        <path d="M6 1H3c-.6 0-1 .4-1 1v14c0 .6.4 1 1 1h3c.6 0 1-.4 1-1V2c0-.6-.4-1-1-1Zm6 0c-.6 0-1 .4-1 1v14c0 .6.4 1 1 1h3c.6 0 1-.4 1-1V2c0-.6-.4-1-1-1h-3Z"/>
    </symbol>
    <symbol viewBox="0 0 18 18" id="plyr-pip" xmlns="http://www.w3.org/2000/svg">
        <path d="M13.293 3.293 7.022 9.564l1.414 1.414 6.271-6.271L17 7V1h-6z"/>
        <path d="M13 15H3V5h5V3H2a1 1 0 0 0-1 1v12a1 1 0 0 0 1 1h12a1 1 0 0 0 1-1v-6h-2v5z"/>
    </symbol>
    <symbol viewBox="0 0 26 30" id="plyr-play" xmlns="http://www.w3.org/2000/svg">
        <path d="M4 29.42c.87 0 1.78-.28 2.71-.84l16.31-9.79c1.59-.95 2.5-2.33 2.5-3.8 0-1.45-.91-2.84-2.5-3.79L6.72 1.42A5.31 5.31 0 0 0 3.98.58C2.15.58.3 1.96.3 5.05v19.9c0 3.09 1.86 4.47 3.7 4.47Z"/>
    </symbol>
    <symbol viewBox="0 0 18 18" id="plyr-restart" xmlns="http://www.w3.org/2000/svg">
        <path d="m9.7 1.2.7 6.4 2.1-2.1c1.9 1.9 1.9 5.1 0 7-.9 1-2.2 1.5-3.5 1.5-1.3 0-2.6-.5-3.5-1.5-1.9-1.9-1.9-5.1 0-7 .6-.6 1.4-1.1 2.3-1.3l-.6-1.9C6 2.6 4.9 3.2 4 4.1 1.3 6.8 1.3 11.2 4 14c1.3 1.3 3.1 2 4.9 2 1.9 0 3.6-.7 4.9-2 2.7-2.7 2.7-7.1 0-9.9L16 1.9l-6.3-.7Z"/>
    </symbol>
    <symbol viewBox="0 0 18 18" id="plyr-rewind" xmlns="http://www.w3.org/2000/svg">
        <path d="M10.125 1 0 9l10.125 8v-6.171L18 17V1l-7.875 6.171z"/>
    </symbol>
    <symbol viewBox="0 0 18 18" id="plyr-settings" xmlns="http://www.w3.org/2000/svg">
        <path d="M16.135 7.784a2 2 0 0 1-1.23-2.969c.322-.536.225-.998-.094-1.316l-.31-.31c-.318-.318-.78-.415-1.316-.094a2 2 0 0 1-2.969-1.23C10.065 1.258 9.669 1 9.219 1h-.438c-.45 0-.845.258-.997.865a2 2 0 0 1-2.969 1.23c-.536-.322-.999-.225-1.317.093l-.31.31c-.318.318-.415.781-.093 1.317a2 2 0 0 1-1.23 2.969C1.26 7.935 1 8.33 1 8.781v.438c0 .45.258.845.865.997a2 2 0 0 1 1.23 2.969c-.322.536-.225.998.094 1.316l.31.31c.319.319.782.415 1.316.094a2 2 0 0 1 2.969 1.23c.151.607.547.865.997.865h.438c.45 0 .845-.258.997-.865a2 2 0 0 1 2.969-1.23c.535.321.997.225 1.316-.094l.31-.31c.318-.318.415-.781.094-1.316a2 2 0 0 1 1.23-2.969c.607-.151.865-.547.865-.997v-.438c0-.451-.26-.846-.865-.997zM9 12a3 3 0 1 1 0-6 3 3 0 0 1 0 6z"/>
    </symbol>
    <symbol viewBox="0 0 18 18" id="plyr-volume" xmlns="http://www.w3.org/2000/svg">
        <path d="M15.6 3.3c-.4-.4-1-.4-1.4 0-.4.4-.4 1 0 1.4C15.4 5.9 16 7.4 16 9c0 1.6-.6 3.1-1.8 4.3-.4.4-.4 1 0 1.4.2.2.5.3.7.3.3 0 .5-.1.7-.3C17.1 13.2 18 11.2 18 9s-.9-4.2-2.4-5.7Z"/>
        <path d="M11.282 5.282a.909.909 0 0 0 0 1.316c.735.735.995 1.458.995 2.402 0 .936-.425 1.917-.995 2.487a.909.909 0 0 0 0 1.316c.145.145.636.262 1.018.156a.725.725 0 0 0 .298-.156C13.773 11.733 14.13 10.16 14.13 9c0-.17-.002-.34-.011-.51-.053-.992-.319-2.005-1.522-3.208a.909.909 0 0 0-1.316 0Zm-7.496.726H.714C.286 6.008 0 6.31 0 6.76v4.512c0 .452.286.752.714.752h3.072l4.071 3.858c.5.3 1.143 0 1.143-.602V2.752c0-.601-.643-.977-1.143-.601L3.786 6.008Z"/>
    </symbol>
</svg>