<svg width="633" height="755" viewBox="0 0 633 755" fill="none" xmlns="http://www.w3.org/2000/svg">
<path d="M367.532 190.501C321.586 243.049 285.489 298.6 264.268 345.929C253.657 369.595 246.771 391.193 244.227 409.326C241.684 427.46 243.488 442.091 250.218 451.872C256.947 461.653 267.999 465.708 282.267 464.615C296.534 463.522 313.987 457.282 333.477 446.522C372.455 425.002 419.539 385.419 465.484 332.872C511.43 280.324 547.527 224.772 568.748 177.443C579.359 153.778 586.245 132.179 588.789 114.047C591.332 95.9125 589.528 81.2819 582.798 71.5007C576.069 61.7195 565.017 57.6645 550.749 58.7578C536.482 59.851 519.029 66.0904 499.539 76.8509C460.561 98.3709 413.477 137.953 367.532 190.501Z" stroke="#787878" stroke-width="0.4"/>
<path d="M254.91 342.177C184.554 399.603 126.177 463.023 88.6689 519.131C69.9141 547.186 56.3837 573.402 49.1786 596.119C41.9727 618.838 41.1036 638.021 47.6217 652.053C54.1398 666.085 67.4532 673.692 86.0011 675.39C104.547 677.088 128.298 672.874 155.64 663.305C210.32 644.166 279.322 603.617 349.678 546.191C420.034 488.765 478.411 425.344 515.92 369.236C534.674 341.182 548.205 314.965 555.41 292.249C562.616 269.53 563.485 250.347 556.967 236.315C550.449 222.283 537.135 214.676 518.587 212.978C500.041 211.28 476.29 215.493 448.949 225.063C394.268 244.202 325.267 284.75 254.91 342.177Z" stroke="#787878" stroke-width="0.4"/>
</svg>
