<svg width="559" height="638" viewBox="0 0 559 638" fill="none" xmlns="http://www.w3.org/2000/svg">
<path d="M244.798 268.758C287.76 323.771 335.526 369.678 378.016 399.426C399.262 414.301 419.179 425.129 436.508 431.039C453.84 436.95 468.549 437.931 479.422 433.163C490.295 428.394 496.357 418.303 497.968 404.084C499.579 389.867 496.736 371.551 489.836 350.384C476.035 308.053 446.021 254.361 403.058 199.348C360.096 144.334 312.33 98.4281 269.84 68.6796C248.594 53.8047 228.678 42.9766 211.348 37.0664C194.016 31.1554 179.308 30.1743 168.435 34.943C157.562 39.7116 151.5 49.8024 149.888 64.0216C148.277 78.2388 151.12 96.555 158.021 117.721C171.821 160.053 201.835 213.744 244.798 268.758Z" stroke="#787878" stroke-width="0.4"/>
<path d="M159.999 349.871C204.121 429.25 256.255 497.895 304.87 544.708C329.179 568.116 352.599 586.057 373.689 597.154C394.782 608.253 413.511 612.491 428.472 608.549C443.434 604.607 453.269 592.844 458.211 574.886C463.152 556.929 463.192 532.808 458.593 504.207C449.395 447.009 421.648 371.939 377.527 292.56C333.405 213.18 281.271 144.536 232.656 97.7222C208.347 74.3146 184.928 56.3738 163.837 45.2762C142.745 34.1775 124.016 29.9397 109.054 33.8815C94.0927 37.8234 84.2576 49.587 79.3157 67.545C74.3744 85.5011 74.3342 109.623 78.9332 138.223C88.1311 195.422 115.878 270.492 159.999 349.871Z" stroke="#787878" stroke-width="0.4"/>
</svg>
