<svg width="656" height="595" viewBox="0 0 656 595" fill="none" xmlns="http://www.w3.org/2000/svg">
<path d="M334.89 327.481C280.898 371.721 224.22 406.02 176.235 425.715C152.242 435.563 130.434 441.754 112.23 443.716C94.0232 445.678 79.4579 443.405 69.8972 436.366C60.3365 429.327 56.6374 418.151 58.187 403.925C59.7364 389.701 66.5314 372.456 77.9103 353.321C100.667 315.052 141.737 269.26 195.729 225.02C249.721 180.781 306.399 146.481 354.384 126.786C378.377 116.938 400.185 110.747 418.389 108.785C436.596 106.824 451.161 109.096 460.722 116.135C470.283 123.174 473.982 134.35 472.432 148.576C470.883 162.8 464.088 180.045 452.709 199.18C429.952 237.449 388.882 283.241 334.89 327.481Z" stroke="#787878" stroke-width="0.4"/>
<path d="M436.19 349.172C375.718 416.928 309.786 472.453 252.079 507.451C223.225 524.951 196.437 537.313 173.425 543.51C150.411 549.707 131.208 549.73 117.477 542.599C103.746 535.469 96.7333 521.833 95.8545 503.228C94.9757 484.626 100.232 461.083 110.998 434.19C132.529 380.406 176.079 313.26 236.551 245.503C297.023 177.747 362.955 122.222 420.662 87.2237C449.516 69.7239 476.304 57.3623 499.316 51.1656C522.33 44.9683 541.533 44.9456 555.264 52.0759C568.995 59.2062 576.008 72.842 576.886 91.4467C577.765 110.05 572.509 133.592 561.743 160.485C540.212 214.269 496.662 281.416 436.19 349.172Z" stroke="#787878" stroke-width="0.4"/>
</svg>
