<svg width="721" height="704" viewBox="0 0 721 704" fill="none" xmlns="http://www.w3.org/2000/svg">
<path d="M361.802 390.483C428.186 436.713 494.29 469.928 547.498 486.263C574.103 494.43 597.472 498.373 616.035 497.619C634.601 496.864 648.319 491.413 655.684 480.837C663.049 470.261 663.404 455.505 657.672 437.829C651.942 420.157 640.138 399.606 623.25 377.485C589.475 333.245 535.395 282.765 469.011 236.535C402.627 190.306 336.522 157.09 283.315 140.756C256.71 132.588 233.34 128.645 214.778 129.4C196.211 130.154 182.494 135.605 175.129 146.181C167.764 156.757 167.409 171.514 173.14 189.189C178.871 206.861 190.675 227.412 207.563 249.533C241.337 293.773 295.418 344.254 361.802 390.483Z" stroke="#787878" stroke-width="0.4"/>
<path d="M275.923 439.968C352.068 512.627 430.447 568.5 495.609 600.099C528.191 615.9 557.459 625.626 581.483 628.354C605.512 631.082 624.257 626.806 635.851 614.656C647.445 602.505 650.839 583.581 646.988 559.706C643.139 535.835 632.052 507.056 614.743 475.249C580.126 411.638 520.644 335.962 444.499 263.303C368.354 190.644 289.974 134.771 224.812 103.172C192.23 87.3712 162.963 77.6446 138.938 74.9169C114.909 72.1887 96.1641 76.4649 84.5701 88.6153C72.976 100.766 69.5824 119.69 73.4329 143.565C77.2828 167.436 88.3694 196.215 105.678 228.022C140.295 291.632 199.777 367.309 275.923 439.968Z" stroke="#787878" stroke-width="0.4"/>
</svg>
